<svg width="168" height="80" viewBox="0 0 168 80" fill="none" xmlns="http://www.w3.org/2000/svg">
<path opacity="0.2" d="M57.5013 22.5L50.5981 62.9094C50.5222 63.3619 50.3232 63.7849 50.0229 64.1318C49.7226 64.4788 49.3326 64.7364 48.8957 64.8765C48.4587 65.0165 47.9916 65.0336 47.5456 64.9259C47.0995 64.8181 46.6917 64.5897 46.3669 64.2656L15.7419 33.6406C15.4178 33.3158 15.1894 32.908 15.0816 32.4619C14.9739 32.0159 14.991 31.5488 15.131 31.1118C15.2711 30.6749 15.5287 30.2849 15.8757 29.9846C16.2227 29.6843 16.6456 29.4853 17.0981 29.4094L57.5013 22.5Z" fill="#10298E"/>
<path d="M20 73.75C20 74.4917 19.7801 75.2167 19.368 75.8334C18.956 76.4501 18.3703 76.9307 17.6851 77.2146C16.9998 77.4984 16.2458 77.5727 15.5184 77.428C14.791 77.2833 14.1228 76.9261 13.5984 76.4017C13.0739 75.8772 12.7168 75.209 12.5721 74.4816C12.4274 73.7542 12.5016 73.0002 12.7855 72.315C13.0693 71.6297 13.5499 71.0441 14.1666 70.632C14.7833 70.22 15.5083 70 16.25 70C17.2446 70 18.1984 70.3951 18.9017 71.0984C19.6049 71.8016 20 72.7555 20 73.75ZM26.25 60C25.5083 60 24.7833 60.22 24.1666 60.632C23.5499 61.0441 23.0693 61.6297 22.7855 62.315C22.5016 63.0002 22.4274 63.7542 22.5721 64.4816C22.7168 65.209 23.0739 65.8772 23.5984 66.4017C24.1228 66.9261 24.791 67.2833 25.5184 67.428C26.2458 67.5727 26.9998 67.4984 27.6851 67.2146C28.3703 66.9307 28.956 66.4501 29.368 65.8334C29.7801 65.2167 30 64.4917 30 63.75C30 62.7555 29.6049 61.8016 28.9017 61.0984C28.1984 60.3951 27.2446 60 26.25 60ZM6.25 60C5.50832 60 4.7833 60.22 4.16661 60.632C3.54993 61.0441 3.06928 61.6297 2.78545 62.315C2.50162 63.0002 2.42736 63.7542 2.57206 64.4816C2.71675 65.209 3.0739 65.8772 3.59835 66.4017C4.1228 66.9261 4.79098 67.2833 5.51841 67.428C6.24584 67.5727 6.99984 67.4984 7.68506 67.2146C8.37029 66.9307 8.95596 66.4501 9.36801 65.8334C9.78007 65.2167 10 64.4917 10 63.75C10 62.7555 9.60491 61.8016 8.90165 61.0984C8.19839 60.3951 7.24456 60 6.25 60ZM16.25 50C15.5083 50 14.7833 50.22 14.1666 50.632C13.5499 51.0441 13.0693 51.6297 12.7855 52.315C12.5016 53.0002 12.4274 53.7542 12.5721 54.4816C12.7168 55.209 13.0739 55.8772 13.5984 56.4017C14.1228 56.9261 14.791 57.2833 15.5184 57.428C16.2458 57.5727 16.9998 57.4984 17.6851 57.2146C18.3703 56.9307 18.956 56.4501 19.368 55.8334C19.7801 55.2167 20 54.4917 20 53.75C20 52.7555 19.6049 51.8016 18.9017 51.0984C18.1984 50.3951 17.2446 50 16.25 50ZM80 12.5C80 13.1631 79.7366 13.799 79.2678 14.2678C78.7989 14.7366 78.163 15 77.5 15H68.5344L59.8313 23.7063L53.0625 63.3281C52.9102 64.2334 52.5115 65.0792 51.9104 65.7729C51.3092 66.4665 50.5287 66.9814 49.6543 67.2609C48.78 67.5404 47.8455 67.5738 46.9535 67.3575C46.0614 67.1411 45.2461 66.6834 44.5969 66.0344L13.9719 35.4094C13.3219 34.7597 12.8635 33.9434 12.6472 33.0502C12.4308 32.157 12.4648 31.2215 12.7454 30.3463C13.0261 29.4712 13.5425 28.6904 14.2379 28.0895C14.9333 27.4887 15.7809 27.0912 16.6875 26.9406L56.2937 20.1688L65 11.4656C65.4626 10.9993 66.0133 10.6296 66.6201 10.378C67.2268 10.1264 67.8775 9.99793 68.5344 10H77.5C78.163 10 78.7989 10.2634 79.2678 10.7323C79.7366 11.2011 80 11.837 80 12.5ZM54.4406 25.5594L17.5 31.875L48.125 62.5L54.4406 25.5594Z" fill="#10298E"/>
<path opacity="0.2" d="M163 35V45C163 48.9782 161.42 52.7936 158.607 55.6066C155.794 58.4196 151.978 60 148 60H108C104.022 60 100.206 58.4196 97.3934 55.6066C94.5804 52.7936 93 48.9782 93 45V35C93 34.337 93.2634 33.7011 93.7322 33.2322C94.2011 32.7634 94.837 32.5 95.5 32.5H130.5V45H150.5V32.5H160.5C161.163 32.5 161.799 32.7634 162.268 33.2322C162.737 33.7011 163 34.337 163 35Z" fill="#10298E"/>
<path d="M160.5 30.0001H153C153 29.3371 152.737 28.7012 152.268 28.2323C151.799 27.7635 151.163 27.5001 150.5 27.5001H130.5C129.837 27.5001 129.201 27.7635 128.732 28.2323C128.263 28.7012 128 29.3371 128 30.0001H108V16.2501C108 15.2556 108.395 14.3017 109.098 13.5985C109.802 12.8952 110.755 12.5001 111.75 12.5001C112.629 12.4965 113.483 12.7909 114.173 13.3351C114.863 13.8794 115.349 14.6415 115.55 15.497C115.687 16.1413 116.073 16.7053 116.624 17.0665C117.175 17.4277 117.846 17.5569 118.492 17.4259C119.138 17.295 119.705 16.9145 120.072 16.3673C120.439 15.82 120.575 15.1501 120.45 14.5032C120.026 12.5139 118.929 10.7315 117.344 9.45601C115.76 8.18052 113.784 7.48981 111.75 7.50011C109.429 7.50011 107.204 8.42199 105.563 10.0629C103.922 11.7039 103 13.9295 103 16.2501V30.0001H95.5C94.1739 30.0001 92.9021 30.5269 91.9645 31.4646C91.0268 32.4023 90.5 33.674 90.5 35.0001V45.0001C90.505 49.6399 92.3503 54.0882 95.6311 57.369C98.9119 60.6498 103.36 62.4952 108 62.5001V67.5001C108 68.1632 108.263 68.799 108.732 69.2679C109.201 69.7367 109.837 70.0001 110.5 70.0001C111.163 70.0001 111.799 69.7367 112.268 69.2679C112.737 68.799 113 68.1632 113 67.5001V62.5001H143V67.5001C143 68.1632 143.263 68.799 143.732 69.2679C144.201 69.7367 144.837 70.0001 145.5 70.0001C146.163 70.0001 146.799 69.7367 147.268 69.2679C147.737 68.799 148 68.1632 148 67.5001V62.5001C152.64 62.4952 157.088 60.6498 160.369 57.369C163.65 54.0882 165.495 49.6399 165.5 45.0001V35.0001C165.5 33.674 164.973 32.4023 164.036 31.4646C163.098 30.5269 161.826 30.0001 160.5 30.0001ZM148 32.5001V42.5001H133V32.5001H148ZM160.5 45.0001C160.5 46.6416 160.177 48.2671 159.549 49.7837C158.92 51.3002 158 52.6782 156.839 53.8389C155.678 54.9997 154.3 55.9204 152.784 56.5486C151.267 57.1768 149.642 57.5001 148 57.5001H108C104.685 57.5001 101.505 56.1832 99.1612 53.8389C96.817 51.4947 95.5 48.3153 95.5 45.0001V35.0001H128V45.0001C128 45.6632 128.263 46.299 128.732 46.7679C129.201 47.2367 129.837 47.5001 130.5 47.5001H150.5C151.163 47.5001 151.799 47.2367 152.268 46.7679C152.737 46.299 153 45.6632 153 45.0001V35.0001H160.5V45.0001Z" fill="#10298E"/>
</svg>
