<svg width="171" height="68" viewBox="0 0 171 68" fill="none" xmlns="http://www.w3.org/2000/svg">
<path opacity="0.2" d="M51 25.5C51 28.8623 50.003 32.1491 48.135 34.9447C46.267 37.7403 43.612 39.9193 40.5056 41.206C37.3993 42.4926 33.9811 42.8293 30.6835 42.1734C27.3858 41.5174 24.3567 39.8983 21.9792 37.5208C19.6017 35.1433 17.9826 32.1142 17.3267 28.8165C16.6707 25.5189 17.0074 22.1007 18.2941 18.9944C19.5807 15.888 21.7597 13.233 24.5553 11.365C27.3509 9.49703 30.6377 8.5 34 8.5C38.5087 8.5 42.8327 10.2911 46.0208 13.4792C49.2089 16.6673 51 20.9913 51 25.5Z" fill="#10298E"/>
<path d="M61.3374 56.3129C57.292 49.319 51.0578 44.304 43.7823 41.9266C47.3811 39.7843 50.1771 36.5198 51.741 32.6345C53.3049 28.7493 53.5501 24.4581 52.4392 20.4199C51.3282 16.3818 48.9223 12.82 45.5911 10.2815C42.2599 7.74298 38.1875 6.36816 33.9993 6.36816C29.8111 6.36816 25.7387 7.74298 22.4075 10.2815C19.0763 12.82 16.6705 16.3818 15.5595 20.4199C14.4485 24.4581 14.6938 28.7493 16.2577 32.6345C17.8215 36.5198 20.6176 39.7843 24.2163 41.9266C16.9409 44.3013 10.7067 49.3163 6.66119 56.3129C6.51284 56.5548 6.41443 56.824 6.37179 57.1045C6.32914 57.385 6.34312 57.6713 6.4129 57.9463C6.48267 58.2214 6.60683 58.4797 6.77804 58.706C6.94926 58.9323 7.16407 59.122 7.40979 59.2639C7.65551 59.4059 7.92717 59.4971 8.20874 59.5324C8.49031 59.5676 8.77609 59.5461 9.04922 59.4691C9.32234 59.3921 9.57728 59.2612 9.79899 59.0841C10.0207 58.907 10.2047 58.6873 10.3401 58.4379C15.3445 49.7891 24.1898 44.6254 33.9993 44.6254C43.8088 44.6254 52.6542 49.7891 57.6585 58.4379C57.7939 58.6873 57.9779 58.907 58.1996 59.0841C58.4214 59.2612 58.6763 59.3921 58.9494 59.4691C59.2225 59.5461 59.5083 59.5676 59.7899 59.5324C60.0715 59.4971 60.3431 59.4059 60.5888 59.2639C60.8346 59.122 61.0494 58.9323 61.2206 58.706C61.3918 58.4797 61.516 58.2214 61.5857 57.9463C61.6555 57.6713 61.6695 57.385 61.6268 57.1045C61.5842 56.824 61.4858 56.5548 61.3374 56.3129ZM19.1243 25.5004C19.1243 22.5584 19.9967 19.6825 21.6312 17.2363C23.2657 14.7901 25.5888 12.8835 28.3069 11.7577C31.0249 10.6318 34.0158 10.3373 36.9013 10.9112C39.7868 11.4852 42.4372 12.9019 44.5175 14.9822C46.5978 17.0625 48.0145 19.713 48.5885 22.5984C49.1625 25.4839 48.8679 28.4748 47.742 31.1928C46.6162 33.9109 44.7096 36.234 42.2634 37.8685C39.8172 39.503 36.9413 40.3754 33.9993 40.3754C30.0555 40.3712 26.2745 38.8026 23.4858 36.0139C20.6971 33.2253 19.1285 29.4442 19.1243 25.5004Z" fill="#10298E"/>
<path opacity="0.2" d="M102.852 25.5C102.852 28.8623 101.855 32.1491 99.9866 34.9447C98.1186 37.7403 95.4635 39.9193 92.3572 41.206C89.2508 42.4926 85.8327 42.8293 82.535 42.1734C79.2374 41.5174 76.2082 39.8983 73.8308 37.5208C71.4533 35.1433 69.8342 32.1142 69.1782 28.8165C68.5223 25.5189 68.8589 22.1007 70.1456 18.9944C71.4323 15.888 73.6112 13.233 76.4069 11.365C79.2025 9.49703 82.4893 8.5 85.8516 8.5C90.3603 8.5 94.6843 10.2911 97.8724 13.4792C101.061 16.6673 102.852 20.9913 102.852 25.5Z" fill="#10298E"/>
<path d="M113.189 56.3129C109.144 49.319 102.909 44.304 95.6338 41.9266C99.2326 39.7843 102.029 36.5198 103.593 32.6345C105.156 28.7493 105.402 24.4581 104.291 20.4199C103.18 16.3818 100.774 12.82 97.4427 10.2815C94.1115 7.74298 90.0391 6.36816 85.8509 6.36816C81.6627 6.36816 77.5903 7.74298 74.2591 10.2815C70.9279 12.82 68.522 16.3818 67.411 20.4199C66.3 24.4581 66.5453 28.7493 68.1092 32.6345C69.6731 36.5198 72.4691 39.7843 76.0679 41.9266C68.7924 44.3013 62.5582 49.3163 58.5128 56.3129C58.3644 56.5548 58.266 56.824 58.2234 57.1045C58.1807 57.385 58.1947 57.6713 58.2645 57.9463C58.3342 58.2214 58.4584 58.4797 58.6296 58.706C58.8008 58.9323 59.0156 59.122 59.2614 59.2639C59.5071 59.4059 59.7787 59.4971 60.0603 59.5324C60.3419 59.5676 60.6277 59.5461 60.9008 59.4691C61.1739 59.3921 61.4288 59.2612 61.6505 59.0841C61.8723 58.907 62.0562 58.6873 62.1917 58.4379C67.196 49.7891 76.0413 44.6254 85.8509 44.6254C95.6604 44.6254 104.506 49.7891 109.51 58.4379C109.646 58.6873 109.829 58.907 110.051 59.0841C110.273 59.2612 110.528 59.3921 110.801 59.4691C111.074 59.5461 111.36 59.5676 111.641 59.5324C111.923 59.4971 112.195 59.4059 112.44 59.2639C112.686 59.122 112.901 58.9323 113.072 58.706C113.243 58.4797 113.368 58.2214 113.437 57.9463C113.507 57.6713 113.521 57.385 113.478 57.1045C113.436 56.824 113.337 56.5548 113.189 56.3129ZM70.9759 25.5004C70.9759 22.5584 71.8483 19.6825 73.4828 17.2363C75.1173 14.7901 77.4404 12.8835 80.1585 11.7577C82.8765 10.6318 85.8674 10.3373 88.7528 10.9112C91.6383 11.4852 94.2888 12.9019 96.3691 14.9822C98.4494 17.0625 99.8661 19.713 100.44 22.5984C101.014 25.4839 100.719 28.4748 99.5936 31.1928C98.4677 33.9109 96.5612 36.234 94.115 37.8685C91.6688 39.503 88.7929 40.3754 85.8509 40.3754C81.9071 40.3712 78.126 38.8026 75.3373 36.0139C72.5486 33.2253 70.9801 29.4442 70.9759 25.5004Z" fill="#10298E"/>
<path opacity="0.2" d="M153.852 25.5C153.852 28.8623 152.855 32.1491 150.987 34.9447C149.119 37.7403 146.464 39.9193 143.357 41.206C140.251 42.4926 136.833 42.8293 133.535 42.1734C130.237 41.5174 127.208 39.8983 124.831 37.5208C122.453 35.1433 120.834 32.1142 120.178 28.8165C119.522 25.5189 119.859 22.1007 121.146 18.9944C122.432 15.888 124.611 13.233 127.407 11.365C130.203 9.49703 133.489 8.5 136.852 8.5C141.36 8.5 145.684 10.2911 148.872 13.4792C152.061 16.6673 153.852 20.9913 153.852 25.5Z" fill="#10298E"/>
<path d="M164.189 56.3129C160.144 49.319 153.909 44.304 146.634 41.9266C150.233 39.7843 153.029 36.5198 154.593 32.6345C156.156 28.7493 156.402 24.4581 155.291 20.4199C154.18 16.3818 151.774 12.82 148.443 10.2815C145.111 7.74298 141.039 6.36816 136.851 6.36816C132.663 6.36816 128.59 7.74298 125.259 10.2815C121.928 12.82 119.522 16.3818 118.411 20.4199C117.3 24.4581 117.545 28.7493 119.109 32.6345C120.673 36.5198 123.469 39.7843 127.068 41.9266C119.792 44.3013 113.558 49.3163 109.513 56.3129C109.364 56.5548 109.266 56.824 109.223 57.1045C109.181 57.385 109.195 57.6713 109.264 57.9463C109.334 58.2214 109.458 58.4797 109.63 58.706C109.801 58.9323 110.016 59.122 110.261 59.2639C110.507 59.4059 110.779 59.4971 111.06 59.5324C111.342 59.5676 111.628 59.5461 111.901 59.4691C112.174 59.3921 112.429 59.2612 112.651 59.0841C112.872 58.907 113.056 58.6873 113.192 58.4379C118.196 49.7891 127.041 44.6254 136.851 44.6254C146.66 44.6254 155.506 49.7891 160.51 58.4379C160.646 58.6873 160.829 58.907 161.051 59.0841C161.273 59.2612 161.528 59.3921 161.801 59.4691C162.074 59.5461 162.36 59.5676 162.641 59.5324C162.923 59.4971 163.195 59.4059 163.44 59.2639C163.686 59.122 163.901 58.9323 164.072 58.706C164.243 58.4797 164.368 58.2214 164.437 57.9463C164.507 57.6713 164.521 57.385 164.478 57.1045C164.436 56.824 164.337 56.5548 164.189 56.3129ZM121.976 25.5004C121.976 22.5584 122.848 19.6825 124.483 17.2363C126.117 14.7901 128.44 12.8835 131.158 11.7577C133.877 10.6318 136.867 10.3373 139.753 10.9112C142.638 11.4852 145.289 12.9019 147.369 14.9822C149.449 17.0625 150.866 19.713 151.44 22.5984C152.014 25.4839 151.719 28.4748 150.594 31.1928C149.468 33.9109 147.561 36.234 145.115 37.8685C142.669 39.503 139.793 40.3754 136.851 40.3754C132.907 40.3712 129.126 38.8026 126.337 36.0139C123.549 33.2253 121.98 29.4442 121.976 25.5004Z" fill="#10298E"/>
</svg>
