<svg width="171" height="128" viewBox="0 0 171 128" fill="none" xmlns="http://www.w3.org/2000/svg">
<path opacity="0.2" d="M102 25.5C102 28.8623 101.003 32.1491 99.135 34.9447C97.267 37.7403 94.612 39.9193 91.5056 41.206C88.3993 42.4926 84.9811 42.8293 81.6835 42.1734C78.3858 41.5174 75.3567 39.8983 72.9792 37.5208C70.6017 35.1433 68.9826 32.1142 68.3267 28.8165C67.6707 25.5189 68.0074 22.1007 69.2941 18.9944C70.5807 15.888 72.7597 13.233 75.5553 11.365C78.3509 9.49703 81.6377 8.5 85 8.5C89.5087 8.5 93.8327 10.2911 97.0208 13.4792C100.209 16.6673 102 20.9913 102 25.5Z" fill="#10298E"/>
<path d="M112.337 56.3124C108.292 49.3185 102.058 44.3035 94.7823 41.9262C98.3811 39.7838 101.177 36.5193 102.741 32.634C104.305 28.7488 104.55 24.4576 103.439 20.4194C102.328 16.3813 99.9223 12.8195 96.5911 10.281C93.2599 7.74249 89.1875 6.36768 84.9993 6.36768C80.8111 6.36768 76.7387 7.74249 73.4075 10.281C70.0763 12.8195 67.6705 16.3813 66.5595 20.4194C65.4485 24.4576 65.6938 28.7488 67.2577 32.634C68.8215 36.5193 71.6176 39.7838 75.2163 41.9262C67.9409 44.3008 61.7067 49.3158 57.6612 56.3124C57.5128 56.5543 57.4144 56.8235 57.3718 57.104C57.3291 57.3846 57.3431 57.6708 57.4129 57.9459C57.4827 58.2209 57.6068 58.4792 57.778 58.7055C57.9493 58.9318 58.1641 59.1215 58.4098 59.2634C58.6555 59.4054 58.9272 59.4967 59.2087 59.5319C59.4903 59.5671 59.7761 59.5456 60.0492 59.4686C60.3223 59.3917 60.5773 59.2607 60.799 59.0836C61.0207 58.9065 61.2047 58.6868 61.3401 58.4374C66.3445 49.7887 75.1898 44.6249 84.9993 44.6249C94.8088 44.6249 103.654 49.7887 108.659 58.4374C108.794 58.6868 108.978 58.9065 109.2 59.0836C109.421 59.2607 109.676 59.3917 109.949 59.4686C110.223 59.5456 110.508 59.5671 110.79 59.5319C111.071 59.4967 111.343 59.4054 111.589 59.2634C111.835 59.1215 112.049 58.9318 112.221 58.7055C112.392 58.4792 112.516 58.2209 112.586 57.9459C112.656 57.6708 112.669 57.3846 112.627 57.104C112.584 56.8235 112.486 56.5543 112.337 56.3124ZM70.1243 25.4999C70.1243 22.5579 70.9967 19.682 72.6312 17.2358C74.2657 14.7896 76.5888 12.883 79.3069 11.7572C82.0249 10.6313 85.0158 10.3368 87.9013 10.9107C90.7868 11.4847 93.4372 12.9014 95.5175 14.9817C97.5978 17.062 99.0145 19.7125 99.5885 22.5979C100.162 25.4834 99.8679 28.4743 98.742 31.1923C97.6162 33.9104 95.7096 36.2335 93.2634 37.868C90.8172 39.5025 87.9413 40.3749 84.9993 40.3749C81.0555 40.3707 77.2745 38.8021 74.4858 36.0135C71.6971 33.2248 70.1285 29.4437 70.1243 25.4999Z" fill="#10298E"/>
<path opacity="0.2" d="M153.852 25.5C153.852 28.8623 152.855 32.1491 150.987 34.9447C149.119 37.7403 146.464 39.9193 143.357 41.206C140.251 42.4926 136.833 42.8293 133.535 42.1734C130.237 41.5174 127.208 39.8983 124.831 37.5208C122.453 35.1433 120.834 32.1142 120.178 28.8165C119.522 25.5189 119.859 22.1007 121.146 18.9944C122.432 15.888 124.611 13.233 127.407 11.365C130.203 9.49703 133.489 8.5 136.852 8.5C141.36 8.5 145.684 10.2911 148.872 13.4792C152.061 16.6673 153.852 20.9913 153.852 25.5Z" fill="#10298E"/>
<path d="M164.189 56.3124C160.144 49.3185 153.909 44.3035 146.634 41.9262C150.233 39.7838 153.029 36.5193 154.593 32.634C156.156 28.7488 156.402 24.4576 155.291 20.4194C154.18 16.3813 151.774 12.8195 148.443 10.281C145.111 7.74249 141.039 6.36768 136.851 6.36768C132.663 6.36768 128.59 7.74249 125.259 10.281C121.928 12.8195 119.522 16.3813 118.411 20.4194C117.3 24.4576 117.545 28.7488 119.109 32.634C120.673 36.5193 123.469 39.7838 127.068 41.9262C119.792 44.3008 113.558 49.3158 109.513 56.3124C109.364 56.5543 109.266 56.8235 109.223 57.104C109.181 57.3846 109.195 57.6708 109.264 57.9459C109.334 58.2209 109.458 58.4792 109.63 58.7055C109.801 58.9318 110.016 59.1215 110.261 59.2634C110.507 59.4054 110.779 59.4967 111.06 59.5319C111.342 59.5671 111.628 59.5456 111.901 59.4686C112.174 59.3917 112.429 59.2607 112.651 59.0836C112.872 58.9065 113.056 58.6868 113.192 58.4374C118.196 49.7887 127.041 44.6249 136.851 44.6249C146.66 44.6249 155.506 49.7887 160.51 58.4374C160.646 58.6868 160.829 58.9065 161.051 59.0836C161.273 59.2607 161.528 59.3917 161.801 59.4686C162.074 59.5456 162.36 59.5671 162.641 59.5319C162.923 59.4967 163.195 59.4054 163.44 59.2634C163.686 59.1215 163.901 58.9318 164.072 58.7055C164.243 58.4792 164.368 58.2209 164.437 57.9459C164.507 57.6708 164.521 57.3846 164.478 57.104C164.436 56.8235 164.337 56.5543 164.189 56.3124ZM121.976 25.4999C121.976 22.5579 122.848 19.682 124.483 17.2358C126.117 14.7896 128.44 12.883 131.158 11.7572C133.877 10.6313 136.867 10.3368 139.753 10.9107C142.638 11.4847 145.289 12.9014 147.369 14.9817C149.449 17.062 150.866 19.7125 151.44 22.5979C152.014 25.4834 151.719 28.4743 150.594 31.1923C149.468 33.9104 147.561 36.2335 145.115 37.868C142.669 39.5025 139.793 40.3749 136.851 40.3749C132.907 40.3707 129.126 38.8021 126.337 36.0135C123.549 33.2248 121.98 29.4437 121.976 25.4999Z" fill="#10298E"/>
<path opacity="0.2" d="M76 85.5C76 88.8623 75.003 92.1491 73.135 94.9447C71.267 97.7403 68.612 99.9193 65.5056 101.206C62.3993 102.493 58.9811 102.829 55.6835 102.173C52.3858 101.517 49.3567 99.8983 46.9792 97.5208C44.6017 95.1433 42.9826 92.1142 42.3267 88.8165C41.6707 85.5189 42.0074 82.1007 43.2941 78.9944C44.5807 75.888 46.7597 73.233 49.5553 71.365C52.3509 69.497 55.6377 68.5 59 68.5C63.5087 68.5 67.8327 70.2911 71.0208 73.4792C74.2089 76.6673 76 80.9913 76 85.5Z" fill="#10298E"/>
<path d="M86.3374 116.312C82.292 109.318 76.0578 104.303 68.7823 101.926C72.3811 99.7838 75.1771 96.5193 76.741 92.634C78.3049 88.7488 78.5501 84.4576 77.4392 80.4194C76.3282 76.3813 73.9223 72.8195 70.5911 70.281C67.2599 67.7425 63.1875 66.3677 58.9993 66.3677C54.8111 66.3677 50.7387 67.7425 47.4075 70.281C44.0763 72.8195 41.6705 76.3813 40.5595 80.4194C39.4485 84.4576 39.6938 88.7488 41.2577 92.634C42.8215 96.5193 45.6176 99.7838 49.2163 101.926C41.9409 104.301 35.7067 109.316 31.6612 116.312C31.5128 116.554 31.4144 116.823 31.3718 117.104C31.3291 117.385 31.3431 117.671 31.4129 117.946C31.4827 118.221 31.6068 118.479 31.778 118.706C31.9493 118.932 32.1641 119.122 32.4098 119.263C32.6555 119.405 32.9272 119.497 33.2087 119.532C33.4903 119.567 33.7761 119.546 34.0492 119.469C34.3223 119.392 34.5773 119.261 34.799 119.084C35.0207 118.907 35.2047 118.687 35.3401 118.437C40.3445 109.789 49.1898 104.625 58.9993 104.625C68.8088 104.625 77.6542 109.789 82.6585 118.437C82.7939 118.687 82.9779 118.907 83.1996 119.084C83.4214 119.261 83.6763 119.392 83.9494 119.469C84.2225 119.546 84.5083 119.567 84.7899 119.532C85.0715 119.497 85.3431 119.405 85.5888 119.263C85.8346 119.122 86.0494 118.932 86.2206 118.706C86.3918 118.479 86.516 118.221 86.5857 117.946C86.6555 117.671 86.6695 117.385 86.6268 117.104C86.5842 116.823 86.4858 116.554 86.3374 116.312ZM44.1243 85.4999C44.1243 82.5579 44.9967 79.682 46.6312 77.2358C48.2657 74.7896 50.5888 72.883 53.3069 71.7572C56.0249 70.6313 59.0158 70.3368 61.9013 70.9107C64.7868 71.4847 67.4372 72.9014 69.5175 74.9817C71.5978 77.062 73.0145 79.7125 73.5885 82.5979C74.1625 85.4834 73.8679 88.4743 72.742 91.1923C71.6162 93.9104 69.7096 96.2335 67.2634 97.868C64.8172 99.5025 61.9413 100.375 58.9993 100.375C55.0555 100.371 51.2745 98.8021 48.4858 96.0135C45.6971 93.2248 44.1285 89.4437 44.1243 85.4999Z" fill="#10298E"/>
<path opacity="0.2" d="M128.148 85.5C128.148 88.8623 127.151 92.1491 125.283 94.9447C123.415 97.7403 120.76 99.9193 117.654 101.206C114.548 102.493 111.13 102.829 107.832 102.173C104.534 101.517 101.505 99.8983 99.1276 97.5208C96.7501 95.1433 95.131 92.1142 94.4751 88.8165C93.8191 85.5189 94.1558 82.1007 95.4425 78.9944C96.7292 75.888 98.9081 73.233 101.704 71.365C104.499 69.497 107.786 68.5 111.148 68.5C115.657 68.5 119.981 70.2911 123.169 73.4792C126.357 76.6673 128.148 80.9913 128.148 85.5Z" fill="#10298E"/>
<path d="M138.486 116.312C134.44 109.318 128.206 104.303 120.931 101.926C124.529 99.7838 127.326 96.5193 128.889 92.634C130.453 88.7488 130.699 84.4576 129.588 80.4194C128.477 76.3813 126.071 72.8195 122.74 70.281C119.408 67.7425 115.336 66.3677 111.148 66.3677C106.96 66.3677 102.887 67.7425 99.5559 70.281C96.2247 72.8195 93.8189 76.3813 92.7079 80.4194C91.5969 84.4576 91.8422 88.7488 93.4061 92.634C94.97 96.5193 97.766 99.7838 101.365 101.926C94.0893 104.301 87.8551 109.316 83.8096 116.312C83.6613 116.554 83.5629 116.823 83.5202 117.104C83.4776 117.385 83.4916 117.671 83.5613 117.946C83.6311 118.221 83.7553 118.479 83.9265 118.706C84.0977 118.932 84.3125 119.122 84.5582 119.263C84.8039 119.405 85.0756 119.497 85.3572 119.532C85.6388 119.567 85.9245 119.546 86.1977 119.469C86.4708 119.392 86.7257 119.261 86.9474 119.084C87.1691 118.907 87.3531 118.687 87.4885 118.437C92.4929 109.789 101.338 104.625 111.148 104.625C120.957 104.625 129.803 109.789 134.807 118.437C134.942 118.687 135.126 118.907 135.348 119.084C135.57 119.261 135.825 119.392 136.098 119.469C136.371 119.546 136.657 119.567 136.938 119.532C137.22 119.497 137.492 119.405 137.737 119.263C137.983 119.122 138.198 118.932 138.369 118.706C138.54 118.479 138.664 118.221 138.734 117.946C138.804 117.671 138.818 117.385 138.775 117.104C138.733 116.823 138.634 116.554 138.486 116.312ZM96.2728 85.4999C96.2728 82.5579 97.1452 79.682 98.7796 77.2358C100.414 74.7896 102.737 72.883 105.455 71.7572C108.173 70.6313 111.164 70.3368 114.05 70.9107C116.935 71.4847 119.586 72.9014 121.666 74.9817C123.746 77.062 125.163 79.7125 125.737 82.5979C126.311 85.4834 126.016 88.4743 124.89 91.1923C123.765 93.9104 121.858 96.2335 119.412 97.868C116.966 99.5025 114.09 100.375 111.148 100.375C107.204 100.371 103.423 98.8021 100.634 96.0135C97.8455 93.2248 96.277 89.4437 96.2728 85.4999Z" fill="#10298E"/>
<path opacity="0.2" d="M51 25.5C51 28.8623 50.003 32.1491 48.135 34.9447C46.267 37.7403 43.612 39.9193 40.5056 41.206C37.3993 42.4926 33.9811 42.8293 30.6835 42.1734C27.3858 41.5174 24.3567 39.8983 21.9792 37.5208C19.6017 35.1433 17.9826 32.1142 17.3267 28.8165C16.6707 25.5189 17.0074 22.1007 18.2941 18.9944C19.5807 15.888 21.7597 13.233 24.5553 11.365C27.3509 9.49703 30.6377 8.5 34 8.5C38.5087 8.5 42.8327 10.2911 46.0208 13.4792C49.2089 16.6673 51 20.9913 51 25.5Z" fill="#10298E"/>
<path d="M61.3374 56.3124C57.292 49.3185 51.0578 44.3035 43.7823 41.9262C47.3811 39.7838 50.1771 36.5193 51.741 32.634C53.3049 28.7488 53.5501 24.4576 52.4392 20.4194C51.3282 16.3813 48.9223 12.8195 45.5911 10.281C42.2599 7.74249 38.1875 6.36768 33.9993 6.36768C29.8111 6.36768 25.7387 7.74249 22.4075 10.281C19.0763 12.8195 16.6705 16.3813 15.5595 20.4194C14.4485 24.4576 14.6938 28.7488 16.2577 32.634C17.8215 36.5193 20.6176 39.7838 24.2163 41.9262C16.9409 44.3008 10.7067 49.3158 6.66119 56.3124C6.51284 56.5543 6.41443 56.8235 6.37179 57.104C6.32914 57.3846 6.34312 57.6708 6.4129 57.9459C6.48267 58.2209 6.60683 58.4792 6.77804 58.7055C6.94926 58.9318 7.16407 59.1215 7.40979 59.2634C7.65551 59.4054 7.92717 59.4967 8.20874 59.5319C8.49031 59.5671 8.77609 59.5456 9.04922 59.4686C9.32234 59.3917 9.57728 59.2607 9.79899 59.0836C10.0207 58.9065 10.2047 58.6868 10.3401 58.4374C15.3445 49.7887 24.1898 44.6249 33.9993 44.6249C43.8088 44.6249 52.6542 49.7887 57.6585 58.4374C57.7939 58.6868 57.9779 58.9065 58.1996 59.0836C58.4214 59.2607 58.6763 59.3917 58.9494 59.4686C59.2225 59.5456 59.5083 59.5671 59.7899 59.5319C60.0715 59.4967 60.3431 59.4054 60.5888 59.2634C60.8346 59.1215 61.0494 58.9318 61.2206 58.7055C61.3918 58.4792 61.516 58.2209 61.5857 57.9459C61.6555 57.6708 61.6695 57.3846 61.6268 57.104C61.5842 56.8235 61.4858 56.5543 61.3374 56.3124ZM19.1243 25.4999C19.1243 22.5579 19.9967 19.682 21.6312 17.2358C23.2657 14.7896 25.5888 12.883 28.3069 11.7572C31.0249 10.6313 34.0158 10.3368 36.9013 10.9107C39.7868 11.4847 42.4372 12.9014 44.5175 14.9817C46.5978 17.062 48.0145 19.7125 48.5885 22.5979C49.1625 25.4834 48.8679 28.4743 47.742 31.1923C46.6162 33.9104 44.7096 36.2335 42.2634 37.868C39.8172 39.5025 36.9413 40.3749 33.9993 40.3749C30.0555 40.3707 26.2745 38.8021 23.4858 36.0135C20.6971 33.2248 19.1285 29.4437 19.1243 25.4999Z" fill="#10298E"/>
</svg>
