<svg width="80" height="80" viewBox="0 0 80 80" fill="none" xmlns="http://www.w3.org/2000/svg">
<path opacity="0.2" d="M67.5 27.5V57.5C67.5 59.4891 66.7098 61.3968 65.3033 62.8033C63.8968 64.2098 61.9891 65 60 65H20C18.0109 65 16.1032 64.2098 14.6967 62.8033C13.2902 61.3968 12.5 59.4891 12.5 57.5V27.5C12.5 26.837 12.7634 26.2011 13.2322 25.7322C13.7011 25.2634 14.337 25 15 25H65C65.663 25 66.2989 25.2634 66.7678 25.7322C67.2366 26.2011 67.5 26.837 67.5 27.5Z" fill="#10298E"/>
<path d="M27.5 15V5C27.5 4.33696 27.7634 3.70107 28.2322 3.23223C28.7011 2.76339 29.337 2.5 30 2.5C30.6631 2.5 31.2989 2.76339 31.7678 3.23223C32.2366 3.70107 32.5 4.33696 32.5 5V15C32.5 15.663 32.2366 16.2989 31.7678 16.7678C31.2989 17.2366 30.6631 17.5 30 17.5C29.337 17.5 28.7011 17.2366 28.2322 16.7678C27.7634 16.2989 27.5 15.663 27.5 15ZM40 17.5C40.6631 17.5 41.2989 17.2366 41.7678 16.7678C42.2366 16.2989 42.5 15.663 42.5 15V5C42.5 4.33696 42.2366 3.70107 41.7678 3.23223C41.2989 2.76339 40.6631 2.5 40 2.5C39.337 2.5 38.7011 2.76339 38.2322 3.23223C37.7634 3.70107 37.5 4.33696 37.5 5V15C37.5 15.663 37.7634 16.2989 38.2322 16.7678C38.7011 17.2366 39.337 17.5 40 17.5ZM50 17.5C50.6631 17.5 51.2989 17.2366 51.7678 16.7678C52.2366 16.2989 52.5 15.663 52.5 15V5C52.5 4.33696 52.2366 3.70107 51.7678 3.23223C51.2989 2.76339 50.6631 2.5 50 2.5C49.337 2.5 48.7011 2.76339 48.2322 3.23223C47.7634 3.70107 47.5 4.33696 47.5 5V15C47.5 15.663 47.7634 16.2989 48.2322 16.7678C48.7011 17.2366 49.337 17.5 50 17.5ZM79 32L70 38.75V57.5C70 60.1522 68.9464 62.6957 67.0711 64.5711C65.1957 66.4464 62.6522 67.5 60 67.5H20C17.3478 67.5 14.8043 66.4464 12.9289 64.5711C11.0536 62.6957 10 60.1522 10 57.5V38.75L1.00001 32C0.469577 31.6022 0.118905 31.0099 0.0251365 30.3536C-0.0686317 29.6972 0.102185 29.0304 0.50001 28.5C0.897835 27.9696 1.49008 27.6189 2.14646 27.5251C2.80283 27.4314 3.46958 27.6022 4.00001 28L10 32.5V27.5C10 26.1739 10.5268 24.9021 11.4645 23.9645C12.4022 23.0268 13.6739 22.5 15 22.5H65C66.3261 22.5 67.5979 23.0268 68.5355 23.9645C69.4732 24.9021 70 26.1739 70 27.5V32.5L76 28C76.5304 27.6022 77.1972 27.4314 77.8536 27.5251C78.5099 27.6189 79.1022 27.9696 79.5 28.5C79.8978 29.0304 80.0687 29.6972 79.9749 30.3536C79.8811 31.0099 79.5304 31.6022 79 32ZM65 27.5H15V57.5C15 58.8261 15.5268 60.0979 16.4645 61.0355C17.4022 61.9732 18.6739 62.5 20 62.5H60C61.3261 62.5 62.5979 61.9732 63.5355 61.0355C64.4732 60.0979 65 58.8261 65 57.5V27.5Z" fill="#10298E"/>
</svg>
