<svg width="274" height="119" viewBox="0 0 274 119" fill="none" xmlns="http://www.w3.org/2000/svg">
<path opacity="0.2" d="M154.004 25.5C154.004 28.8623 153.007 32.1491 151.139 34.9447C149.271 37.7403 146.616 39.9193 143.51 41.206C140.403 42.4926 136.985 42.8293 133.687 42.1734C130.39 41.5174 127.361 39.8983 124.983 37.5208C122.606 35.1433 120.987 32.1142 120.331 28.8165C119.675 25.5189 120.011 22.1007 121.298 18.9944C122.585 15.888 124.764 13.233 127.559 11.365C130.355 9.49703 133.642 8.5 137.004 8.5C141.513 8.5 145.837 10.2911 149.025 13.4792C152.213 16.6673 154.004 20.9913 154.004 25.5Z" fill="#10298E"/>
<path d="M164.341 56.3124C160.296 49.3185 154.062 44.3035 146.786 41.9262C150.385 39.7838 153.181 36.5193 154.745 32.634C156.309 28.7488 156.554 24.4576 155.443 20.4194C154.332 16.3813 151.926 12.8195 148.595 10.281C145.264 7.74249 141.191 6.36768 137.003 6.36768C132.815 6.36768 128.743 7.74249 125.411 10.281C122.08 12.8195 119.674 16.3813 118.563 20.4194C117.452 24.4576 117.698 28.7488 119.262 32.634C120.825 36.5193 123.621 39.7838 127.22 41.9262C119.945 44.3008 113.711 49.3158 109.665 56.3124C109.517 56.5543 109.418 56.8235 109.376 57.104C109.333 57.3846 109.347 57.6708 109.417 57.9459C109.487 58.2209 109.611 58.4792 109.782 58.7055C109.953 58.9318 110.168 59.1215 110.414 59.2634C110.659 59.4054 110.931 59.4967 111.213 59.5319C111.494 59.5671 111.78 59.5456 112.053 59.4686C112.326 59.3917 112.581 59.2607 112.803 59.0836C113.025 58.9065 113.209 58.6868 113.344 58.4374C118.348 49.7887 127.194 44.6249 137.003 44.6249C146.813 44.6249 155.658 49.7887 160.662 58.4374C160.798 58.6868 160.982 58.9065 161.204 59.0836C161.425 59.2607 161.68 59.3917 161.953 59.4686C162.226 59.5456 162.512 59.5671 162.794 59.5319C163.075 59.4967 163.347 59.4054 163.593 59.2634C163.838 59.1215 164.053 58.9318 164.224 58.7055C164.396 58.4792 164.52 58.2209 164.59 57.9459C164.659 57.6708 164.673 57.3846 164.631 57.104C164.588 56.8235 164.49 56.5543 164.341 56.3124ZM122.128 25.4999C122.128 22.5579 123.001 19.682 124.635 17.2358C126.27 14.7896 128.593 12.883 131.311 11.7572C134.029 10.6313 137.02 10.3368 139.905 10.9107C142.791 11.4847 145.441 12.9014 147.521 14.9817C149.602 17.062 151.018 19.7125 151.592 22.5979C152.166 25.4834 151.872 28.4743 150.746 31.1923C149.62 33.9104 147.714 36.2335 145.267 37.868C142.821 39.5025 139.945 40.3749 137.003 40.3749C133.059 40.3707 129.278 38.8021 126.49 36.0135C123.701 33.2248 122.132 29.4437 122.128 25.4999Z" fill="#10298E"/>
<path opacity="0.2" d="M102.004 25.5C102.004 28.8623 101.007 32.1491 99.1389 34.9447C97.2709 37.7403 94.6159 39.9193 91.5095 41.206C88.4032 42.4926 84.9851 42.8293 81.6874 42.1734C78.3897 41.5174 75.3606 39.8983 72.9831 37.5208C70.6056 35.1433 68.9865 32.1142 68.3306 28.8165C67.6746 25.5189 68.0113 22.1007 69.298 18.9944C70.5847 15.888 72.7636 13.233 75.5592 11.365C78.3549 9.49703 81.6416 8.5 85.0039 8.5C89.5126 8.5 93.8366 10.2911 97.0247 13.4792C100.213 16.6673 102.004 20.9913 102.004 25.5Z" fill="#10298E"/>
<path d="M112.341 56.3124C108.296 49.3185 102.062 44.3035 94.7862 41.9262C98.385 39.7838 101.181 36.5193 102.745 32.634C104.309 28.7488 104.554 24.4576 103.443 20.4194C102.332 16.3813 99.9262 12.8195 96.595 10.281C93.2638 7.74249 89.1914 6.36768 85.0032 6.36768C80.815 6.36768 76.7426 7.74249 73.4114 10.281C70.0802 12.8195 67.6744 16.3813 66.5634 20.4194C65.4524 24.4576 65.6977 28.7488 67.2616 32.634C68.8255 36.5193 71.6215 39.7838 75.2203 41.9262C67.9448 44.3008 61.7106 49.3158 57.6651 56.3124C57.5167 56.5543 57.4183 56.8235 57.3757 57.104C57.3331 57.3846 57.347 57.6708 57.4168 57.9459C57.4866 58.2209 57.6107 58.4792 57.7819 58.7055C57.9532 58.9318 58.168 59.1215 58.4137 59.2634C58.6594 59.4054 58.9311 59.4967 59.2126 59.5319C59.4942 59.5671 59.78 59.5456 60.0531 59.4686C60.3262 59.3917 60.5812 59.2607 60.8029 59.0836C61.0246 58.9065 61.2086 58.6868 61.344 58.4374C66.3484 49.7887 75.1937 44.6249 85.0032 44.6249C94.8128 44.6249 103.658 49.7887 108.662 58.4374C108.798 58.6868 108.982 58.9065 109.204 59.0836C109.425 59.2607 109.68 59.3917 109.953 59.4686C110.226 59.5456 110.512 59.5671 110.794 59.5319C111.075 59.4967 111.347 59.4054 111.593 59.2634C111.838 59.1215 112.053 58.9318 112.224 58.7055C112.396 58.4792 112.52 58.2209 112.59 57.9459C112.659 57.6708 112.673 57.3846 112.631 57.104C112.588 56.8235 112.49 56.5543 112.341 56.3124ZM70.1282 25.4999C70.1282 22.5579 71.0006 19.682 72.6351 17.2358C74.2696 14.7896 76.5928 12.883 79.3108 11.7572C82.0289 10.6313 85.0197 10.3368 87.9052 10.9107C90.7907 11.4847 93.4411 12.9014 95.5214 14.9817C97.6017 17.062 99.0184 19.7125 99.5924 22.5979C100.166 25.4834 99.8718 28.4743 98.7459 31.1923C97.6201 33.9104 95.7135 36.2335 93.2673 37.868C90.8211 39.5025 87.9452 40.3749 85.0032 40.3749C81.0594 40.3707 77.2784 38.8021 74.4897 36.0135C71.701 33.2248 70.1324 29.4437 70.1282 25.4999Z" fill="#10298E"/>
<path opacity="0.2" d="M51.0039 25.5C51.0039 28.8623 50.0069 32.1491 48.1389 34.9447C46.2709 37.7403 43.6159 39.9193 40.5095 41.206C37.4032 42.4926 33.9851 42.8293 30.6874 42.1734C27.3897 41.5174 24.3606 39.8983 21.9831 37.5208C19.6056 35.1433 17.9865 32.1142 17.3306 28.8165C16.6746 25.5189 17.0113 22.1007 18.298 18.9944C19.5847 15.888 21.7636 13.233 24.5592 11.365C27.3549 9.49703 30.6416 8.5 34.0039 8.5C38.5126 8.5 42.8366 10.2911 46.0247 13.4792C49.2128 16.6673 51.0039 20.9913 51.0039 25.5Z" fill="#10298E"/>
<path d="M61.3413 56.3124C57.2959 49.3185 51.0617 44.3035 43.7862 41.9262C47.385 39.7838 50.181 36.5193 51.7449 32.634C53.3088 28.7488 53.5541 24.4576 52.4431 20.4194C51.3321 16.3813 48.9262 12.8195 45.595 10.281C42.2638 7.74249 38.1914 6.36768 34.0032 6.36768C29.815 6.36768 25.7426 7.74249 22.4114 10.281C19.0802 12.8195 16.6744 16.3813 15.5634 20.4194C14.4524 24.4576 14.6977 28.7488 16.2616 32.634C17.8255 36.5193 20.6215 39.7838 24.2203 41.9262C16.9448 44.3008 10.7106 49.3158 6.6651 56.3124C6.51674 56.5543 6.41834 56.8235 6.3757 57.104C6.33305 57.3846 6.34703 57.6708 6.4168 57.9459C6.48658 58.2209 6.61073 58.4792 6.78195 58.7055C6.95317 58.9318 7.16797 59.1215 7.41369 59.2634C7.65942 59.4054 7.93108 59.4967 8.21265 59.5319C8.49422 59.5671 8.78 59.5456 9.05312 59.4686C9.32625 59.3917 9.58118 59.2607 9.80289 59.0836C10.0246 58.9065 10.2086 58.6868 10.344 58.4374C15.3484 49.7887 24.1937 44.6249 34.0032 44.6249C43.8128 44.6249 52.6581 49.7887 57.6624 58.4374C57.7979 58.6868 57.9818 58.9065 58.2036 59.0836C58.4253 59.2607 58.6802 59.3917 58.9533 59.4686C59.2264 59.5456 59.5122 59.5671 59.7938 59.5319C60.0754 59.4967 60.347 59.4054 60.5927 59.2634C60.8385 59.1215 61.0533 58.9318 61.2245 58.7055C61.3957 58.4792 61.5199 58.2209 61.5896 57.9459C61.6594 57.6708 61.6734 57.3846 61.6307 57.104C61.5881 56.8235 61.4897 56.5543 61.3413 56.3124ZM19.1282 25.4999C19.1282 22.5579 20.0006 19.682 21.6351 17.2358C23.2696 14.7896 25.5928 12.883 28.3108 11.7572C31.0289 10.6313 34.0197 10.3368 36.9052 10.9107C39.7907 11.4847 42.4411 12.9014 44.5214 14.9817C46.6017 17.062 48.0184 19.7125 48.5924 22.5979C49.1664 25.4834 48.8718 28.4743 47.7459 31.1923C46.6201 33.9104 44.7135 36.2335 42.2673 37.868C39.8211 39.5025 36.9452 40.3749 34.0032 40.3749C30.0594 40.3707 26.2784 38.8021 23.4897 36.0135C20.701 33.2248 19.1324 29.4437 19.1282 25.4999Z" fill="#10298E"/>
<path opacity="0.2" d="M206.004 25.5C206.004 28.8623 205.007 32.1491 203.139 34.9447C201.271 37.7403 198.616 39.9193 195.51 41.206C192.403 42.4926 188.985 42.8293 185.687 42.1734C182.39 41.5174 179.361 39.8983 176.983 37.5208C174.606 35.1433 172.987 32.1142 172.331 28.8165C171.675 25.5189 172.011 22.1007 173.298 18.9944C174.585 15.888 176.764 13.233 179.559 11.365C182.355 9.49703 185.642 8.5 189.004 8.5C193.513 8.5 197.837 10.2911 201.025 13.4792C204.213 16.6673 206.004 20.9913 206.004 25.5Z" fill="#10298E"/>
<path d="M216.341 56.3124C212.296 49.3185 206.062 44.3035 198.786 41.9262C202.385 39.7838 205.181 36.5193 206.745 32.634C208.309 28.7488 208.554 24.4576 207.443 20.4194C206.332 16.3813 203.926 12.8195 200.595 10.281C197.264 7.74249 193.191 6.36768 189.003 6.36768C184.815 6.36768 180.743 7.74249 177.411 10.281C174.08 12.8195 171.674 16.3813 170.563 20.4194C169.452 24.4576 169.698 28.7488 171.262 32.634C172.825 36.5193 175.621 39.7838 179.22 41.9262C171.945 44.3008 165.711 49.3158 161.665 56.3124C161.517 56.5543 161.418 56.8235 161.376 57.104C161.333 57.3846 161.347 57.6708 161.417 57.9459C161.487 58.2209 161.611 58.4792 161.782 58.7055C161.953 58.9318 162.168 59.1215 162.414 59.2634C162.659 59.4054 162.931 59.4967 163.213 59.5319C163.494 59.5671 163.78 59.5456 164.053 59.4686C164.326 59.3917 164.581 59.2607 164.803 59.0836C165.025 58.9065 165.209 58.6868 165.344 58.4374C170.348 49.7887 179.194 44.6249 189.003 44.6249C198.813 44.6249 207.658 49.7887 212.662 58.4374C212.798 58.6868 212.982 58.9065 213.204 59.0836C213.425 59.2607 213.68 59.3917 213.953 59.4686C214.226 59.5456 214.512 59.5671 214.794 59.5319C215.075 59.4967 215.347 59.4054 215.593 59.2634C215.838 59.1215 216.053 58.9318 216.224 58.7055C216.396 58.4792 216.52 58.2209 216.59 57.9459C216.659 57.6708 216.673 57.3846 216.631 57.104C216.588 56.8235 216.49 56.5543 216.341 56.3124ZM174.128 25.4999C174.128 22.5579 175.001 19.682 176.635 17.2358C178.27 14.7896 180.593 12.883 183.311 11.7572C186.029 10.6313 189.02 10.3368 191.905 10.9107C194.791 11.4847 197.441 12.9014 199.521 14.9817C201.602 17.062 203.018 19.7125 203.592 22.5979C204.166 25.4834 203.872 28.4743 202.746 31.1923C201.62 33.9104 199.714 36.2335 197.267 37.868C194.821 39.5025 191.945 40.3749 189.003 40.3749C185.059 40.3707 181.278 38.8021 178.49 36.0135C175.701 33.2248 174.132 29.4437 174.128 25.4999Z" fill="#10298E"/>
<path opacity="0.2" d="M257.004 25.5C257.004 28.8623 256.007 32.1491 254.139 34.9447C252.271 37.7403 249.616 39.9193 246.51 41.206C243.403 42.4926 239.985 42.8293 236.687 42.1734C233.39 41.5174 230.361 39.8983 227.983 37.5208C225.606 35.1433 223.987 32.1142 223.331 28.8165C222.675 25.5189 223.011 22.1007 224.298 18.9944C225.585 15.888 227.764 13.233 230.559 11.365C233.355 9.49703 236.642 8.5 240.004 8.5C244.513 8.5 248.837 10.2911 252.025 13.4792C255.213 16.6673 257.004 20.9913 257.004 25.5Z" fill="#10298E"/>
<path d="M267.341 56.3124C263.296 49.3185 257.062 44.3035 249.786 41.9262C253.385 39.7838 256.181 36.5193 257.745 32.634C259.309 28.7488 259.554 24.4576 258.443 20.4194C257.332 16.3813 254.926 12.8195 251.595 10.281C248.264 7.74249 244.191 6.36768 240.003 6.36768C235.815 6.36768 231.743 7.74249 228.411 10.281C225.08 12.8195 222.674 16.3813 221.563 20.4194C220.452 24.4576 220.698 28.7488 222.262 32.634C223.825 36.5193 226.621 39.7838 230.22 41.9262C222.945 44.3008 216.711 49.3158 212.665 56.3124C212.517 56.5543 212.418 56.8235 212.376 57.104C212.333 57.3846 212.347 57.6708 212.417 57.9459C212.487 58.2209 212.611 58.4792 212.782 58.7055C212.953 58.9318 213.168 59.1215 213.414 59.2634C213.659 59.4054 213.931 59.4967 214.213 59.5319C214.494 59.5671 214.78 59.5456 215.053 59.4686C215.326 59.3917 215.581 59.2607 215.803 59.0836C216.025 58.9065 216.209 58.6868 216.344 58.4374C221.348 49.7887 230.194 44.6249 240.003 44.6249C249.813 44.6249 258.658 49.7887 263.662 58.4374C263.798 58.6868 263.982 58.9065 264.204 59.0836C264.425 59.2607 264.68 59.3917 264.953 59.4686C265.226 59.5456 265.512 59.5671 265.794 59.5319C266.075 59.4967 266.347 59.4054 266.593 59.2634C266.838 59.1215 267.053 58.9318 267.224 58.7055C267.396 58.4792 267.52 58.2209 267.59 57.9459C267.659 57.6708 267.673 57.3846 267.631 57.104C267.588 56.8235 267.49 56.5543 267.341 56.3124ZM225.128 25.4999C225.128 22.5579 226.001 19.682 227.635 17.2358C229.27 14.7896 231.593 12.883 234.311 11.7572C237.029 10.6313 240.02 10.3368 242.905 10.9107C245.791 11.4847 248.441 12.9014 250.521 14.9817C252.602 17.062 254.018 19.7125 254.592 22.5979C255.166 25.4834 254.872 28.4743 253.746 31.1923C252.62 33.9104 250.714 36.2335 248.267 37.868C245.821 39.5025 242.945 40.3749 240.003 40.3749C236.059 40.3707 232.278 38.8021 229.49 36.0135C226.701 33.2248 225.132 29.4437 225.128 25.4999Z" fill="#10298E"/>
<path opacity="0.2" d="M153.004 76.5C153.004 79.8623 152.007 83.1491 150.139 85.9447C148.271 88.7403 145.616 90.9193 142.51 92.206C139.403 93.4926 135.985 93.8293 132.687 93.1734C129.39 92.5174 126.361 90.8983 123.983 88.5208C121.606 86.1433 119.987 83.1142 119.331 79.8165C118.675 76.5189 119.011 73.1007 120.298 69.9944C121.585 66.888 123.764 64.233 126.559 62.365C129.355 60.497 132.642 59.5 136.004 59.5C140.513 59.5 144.837 61.2911 148.025 64.4792C151.213 67.6673 153.004 71.9913 153.004 76.5Z" fill="#10298E"/>
<path d="M163.341 107.312C159.296 100.318 153.062 95.3035 145.786 92.9262C149.385 90.7838 152.181 87.5193 153.745 83.634C155.309 79.7488 155.554 75.4576 154.443 71.4194C153.332 67.3813 150.926 63.8195 147.595 61.281C144.264 58.7425 140.191 57.3677 136.003 57.3677C131.815 57.3677 127.743 58.7425 124.411 61.281C121.08 63.8195 118.674 67.3813 117.563 71.4194C116.452 75.4576 116.698 79.7488 118.262 83.634C119.825 87.5193 122.621 90.7838 126.22 92.9262C118.945 95.3008 112.711 100.316 108.665 107.312C108.517 107.554 108.418 107.823 108.376 108.104C108.333 108.385 108.347 108.671 108.417 108.946C108.487 109.221 108.611 109.479 108.782 109.706C108.953 109.932 109.168 110.122 109.414 110.263C109.659 110.405 109.931 110.497 110.213 110.532C110.494 110.567 110.78 110.546 111.053 110.469C111.326 110.392 111.581 110.261 111.803 110.084C112.025 109.907 112.209 109.687 112.344 109.437C117.348 100.789 126.194 95.6249 136.003 95.6249C145.813 95.6249 154.658 100.789 159.662 109.437C159.798 109.687 159.982 109.907 160.204 110.084C160.425 110.261 160.68 110.392 160.953 110.469C161.226 110.546 161.512 110.567 161.794 110.532C162.075 110.497 162.347 110.405 162.593 110.263C162.838 110.122 163.053 109.932 163.224 109.706C163.396 109.479 163.52 109.221 163.59 108.946C163.659 108.671 163.673 108.385 163.631 108.104C163.588 107.823 163.49 107.554 163.341 107.312ZM121.128 76.4999C121.128 73.5579 122.001 70.682 123.635 68.2358C125.27 65.7896 127.593 63.883 130.311 62.7572C133.029 61.6313 136.02 61.3368 138.905 61.9107C141.791 62.4847 144.441 63.9014 146.521 65.9817C148.602 68.062 150.018 70.7125 150.592 73.5979C151.166 76.4834 150.872 79.4743 149.746 82.1923C148.62 84.9104 146.714 87.2335 144.267 88.868C141.821 90.5025 138.945 91.3749 136.003 91.3749C132.059 91.3707 128.278 89.8021 125.49 87.0135C122.701 84.2248 121.132 80.4437 121.128 76.4999Z" fill="#10298E"/>
<path opacity="0.2" d="M204.004 76.5C204.004 79.8623 203.007 83.1491 201.139 85.9447C199.271 88.7403 196.616 90.9193 193.51 92.206C190.403 93.4926 186.985 93.8293 183.687 93.1734C180.39 92.5174 177.361 90.8983 174.983 88.5208C172.606 86.1433 170.987 83.1142 170.331 79.8165C169.675 76.5189 170.011 73.1007 171.298 69.9944C172.585 66.888 174.764 64.233 177.559 62.365C180.355 60.497 183.642 59.5 187.004 59.5C191.513 59.5 195.837 61.2911 199.025 64.4792C202.213 67.6673 204.004 71.9913 204.004 76.5Z" fill="#10298E"/>
<path d="M214.341 107.312C210.296 100.318 204.062 95.3035 196.786 92.9262C200.385 90.7838 203.181 87.5193 204.745 83.634C206.309 79.7488 206.554 75.4576 205.443 71.4194C204.332 67.3813 201.926 63.8195 198.595 61.281C195.264 58.7425 191.191 57.3677 187.003 57.3677C182.815 57.3677 178.743 58.7425 175.411 61.281C172.08 63.8195 169.674 67.3813 168.563 71.4194C167.452 75.4576 167.698 79.7488 169.262 83.634C170.825 87.5193 173.621 90.7838 177.22 92.9262C169.945 95.3008 163.711 100.316 159.665 107.312C159.517 107.554 159.418 107.823 159.376 108.104C159.333 108.385 159.347 108.671 159.417 108.946C159.487 109.221 159.611 109.479 159.782 109.706C159.953 109.932 160.168 110.122 160.414 110.263C160.659 110.405 160.931 110.497 161.213 110.532C161.494 110.567 161.78 110.546 162.053 110.469C162.326 110.392 162.581 110.261 162.803 110.084C163.025 109.907 163.209 109.687 163.344 109.437C168.348 100.789 177.194 95.6249 187.003 95.6249C196.813 95.6249 205.658 100.789 210.662 109.437C210.798 109.687 210.982 109.907 211.204 110.084C211.425 110.261 211.68 110.392 211.953 110.469C212.226 110.546 212.512 110.567 212.794 110.532C213.075 110.497 213.347 110.405 213.593 110.263C213.838 110.122 214.053 109.932 214.224 109.706C214.396 109.479 214.52 109.221 214.59 108.946C214.659 108.671 214.673 108.385 214.631 108.104C214.588 107.823 214.49 107.554 214.341 107.312ZM172.128 76.4999C172.128 73.5579 173.001 70.682 174.635 68.2358C176.27 65.7896 178.593 63.883 181.311 62.7572C184.029 61.6313 187.02 61.3368 189.905 61.9107C192.791 62.4847 195.441 63.9014 197.521 65.9817C199.602 68.062 201.018 70.7125 201.592 73.5979C202.166 76.4834 201.872 79.4743 200.746 82.1923C199.62 84.9104 197.714 87.2335 195.267 88.868C192.821 90.5025 189.945 91.3749 187.003 91.3749C183.059 91.3707 179.278 89.8021 176.49 87.0135C173.701 84.2248 172.132 80.4437 172.128 76.4999Z" fill="#10298E"/>
<path opacity="0.2" d="M255.004 76.5C255.004 79.8623 254.007 83.1491 252.139 85.9447C250.271 88.7403 247.616 90.9193 244.51 92.206C241.403 93.4926 237.985 93.8293 234.687 93.1734C231.39 92.5174 228.361 90.8983 225.983 88.5208C223.606 86.1433 221.987 83.1142 221.331 79.8165C220.675 76.5189 221.011 73.1007 222.298 69.9944C223.585 66.888 225.764 64.233 228.559 62.365C231.355 60.497 234.642 59.5 238.004 59.5C242.513 59.5 246.837 61.2911 250.025 64.4792C253.213 67.6673 255.004 71.9913 255.004 76.5Z" fill="#10298E"/>
<path d="M265.341 107.312C261.296 100.318 255.062 95.3035 247.786 92.9262C251.385 90.7838 254.181 87.5193 255.745 83.634C257.309 79.7488 257.554 75.4576 256.443 71.4194C255.332 67.3813 252.926 63.8195 249.595 61.281C246.264 58.7425 242.191 57.3677 238.003 57.3677C233.815 57.3677 229.743 58.7425 226.411 61.281C223.08 63.8195 220.674 67.3813 219.563 71.4194C218.452 75.4576 218.698 79.7488 220.262 83.634C221.825 87.5193 224.621 90.7838 228.22 92.9262C220.945 95.3008 214.711 100.316 210.665 107.312C210.517 107.554 210.418 107.823 210.376 108.104C210.333 108.385 210.347 108.671 210.417 108.946C210.487 109.221 210.611 109.479 210.782 109.706C210.953 109.932 211.168 110.122 211.414 110.263C211.659 110.405 211.931 110.497 212.213 110.532C212.494 110.567 212.78 110.546 213.053 110.469C213.326 110.392 213.581 110.261 213.803 110.084C214.025 109.907 214.209 109.687 214.344 109.437C219.348 100.789 228.194 95.6249 238.003 95.6249C247.813 95.6249 256.658 100.789 261.662 109.437C261.798 109.687 261.982 109.907 262.204 110.084C262.425 110.261 262.68 110.392 262.953 110.469C263.226 110.546 263.512 110.567 263.794 110.532C264.075 110.497 264.347 110.405 264.593 110.263C264.838 110.122 265.053 109.932 265.224 109.706C265.396 109.479 265.52 109.221 265.59 108.946C265.659 108.671 265.673 108.385 265.631 108.104C265.588 107.823 265.49 107.554 265.341 107.312ZM223.128 76.4999C223.128 73.5579 224.001 70.682 225.635 68.2358C227.27 65.7896 229.593 63.883 232.311 62.7572C235.029 61.6313 238.02 61.3368 240.905 61.9107C243.791 62.4847 246.441 63.9014 248.521 65.9817C250.602 68.062 252.018 70.7125 252.592 73.5979C253.166 76.4834 252.872 79.4743 251.746 82.1923C250.62 84.9104 248.714 87.2335 246.267 88.868C243.821 90.5025 240.945 91.3749 238.003 91.3749C234.059 91.3707 230.278 89.8021 227.49 87.0135C224.701 84.2248 223.132 80.4437 223.128 76.4999Z" fill="#10298E"/>
<path opacity="0.2" d="M102.004 76.5C102.004 79.8623 101.007 83.1491 99.1389 85.9447C97.2709 88.7403 94.6159 90.9193 91.5095 92.206C88.4032 93.4926 84.9851 93.8293 81.6874 93.1734C78.3897 92.5174 75.3606 90.8983 72.9831 88.5208C70.6056 86.1433 68.9865 83.1142 68.3306 79.8165C67.6746 76.5189 68.0113 73.1007 69.298 69.9944C70.5847 66.888 72.7636 64.233 75.5592 62.365C78.3549 60.497 81.6416 59.5 85.0039 59.5C89.5126 59.5 93.8366 61.2911 97.0247 64.4792C100.213 67.6673 102.004 71.9913 102.004 76.5Z" fill="#10298E"/>
<path d="M112.341 107.312C108.296 100.318 102.062 95.3035 94.7862 92.9262C98.385 90.7838 101.181 87.5193 102.745 83.634C104.309 79.7488 104.554 75.4576 103.443 71.4194C102.332 67.3813 99.9262 63.8195 96.595 61.281C93.2638 58.7425 89.1914 57.3677 85.0032 57.3677C80.815 57.3677 76.7426 58.7425 73.4114 61.281C70.0802 63.8195 67.6744 67.3813 66.5634 71.4194C65.4524 75.4576 65.6977 79.7488 67.2616 83.634C68.8255 87.5193 71.6215 90.7838 75.2203 92.9262C67.9448 95.3008 61.7106 100.316 57.6651 107.312C57.5167 107.554 57.4183 107.823 57.3757 108.104C57.3331 108.385 57.347 108.671 57.4168 108.946C57.4866 109.221 57.6107 109.479 57.7819 109.706C57.9532 109.932 58.168 110.122 58.4137 110.263C58.6594 110.405 58.9311 110.497 59.2126 110.532C59.4942 110.567 59.78 110.546 60.0531 110.469C60.3262 110.392 60.5812 110.261 60.8029 110.084C61.0246 109.907 61.2086 109.687 61.344 109.437C66.3484 100.789 75.1937 95.6249 85.0032 95.6249C94.8128 95.6249 103.658 100.789 108.662 109.437C108.798 109.687 108.982 109.907 109.204 110.084C109.425 110.261 109.68 110.392 109.953 110.469C110.226 110.546 110.512 110.567 110.794 110.532C111.075 110.497 111.347 110.405 111.593 110.263C111.838 110.122 112.053 109.932 112.224 109.706C112.396 109.479 112.52 109.221 112.59 108.946C112.659 108.671 112.673 108.385 112.631 108.104C112.588 107.823 112.49 107.554 112.341 107.312ZM70.1282 76.4999C70.1282 73.5579 71.0006 70.682 72.6351 68.2358C74.2696 65.7896 76.5928 63.883 79.3108 62.7572C82.0289 61.6313 85.0197 61.3368 87.9052 61.9107C90.7907 62.4847 93.4411 63.9014 95.5214 65.9817C97.6017 68.062 99.0184 70.7125 99.5924 73.5979C100.166 76.4834 99.8718 79.4743 98.7459 82.1923C97.6201 84.9104 95.7135 87.2335 93.2673 88.868C90.8211 90.5025 87.9452 91.3749 85.0032 91.3749C81.0594 91.3707 77.2784 89.8021 74.4897 87.0135C71.701 84.2248 70.1324 80.4437 70.1282 76.4999Z" fill="#10298E"/>
<path opacity="0.2" d="M51.0039 76.5C51.0039 79.8623 50.0069 83.1491 48.1389 85.9447C46.2709 88.7403 43.6159 90.9193 40.5095 92.206C37.4032 93.4926 33.9851 93.8293 30.6874 93.1734C27.3897 92.5174 24.3606 90.8983 21.9831 88.5208C19.6056 86.1433 17.9865 83.1142 17.3306 79.8165C16.6746 76.5189 17.0113 73.1007 18.298 69.9944C19.5847 66.888 21.7636 64.233 24.5592 62.365C27.3549 60.497 30.6416 59.5 34.0039 59.5C38.5126 59.5 42.8366 61.2911 46.0247 64.4792C49.2128 67.6673 51.0039 71.9913 51.0039 76.5Z" fill="#10298E"/>
<path d="M61.3413 107.312C57.2959 100.318 51.0617 95.3035 43.7862 92.9262C47.385 90.7838 50.181 87.5193 51.7449 83.634C53.3088 79.7488 53.5541 75.4576 52.4431 71.4194C51.3321 67.3813 48.9262 63.8195 45.595 61.281C42.2638 58.7425 38.1914 57.3677 34.0032 57.3677C29.815 57.3677 25.7426 58.7425 22.4114 61.281C19.0802 63.8195 16.6744 67.3813 15.5634 71.4194C14.4524 75.4576 14.6977 79.7488 16.2616 83.634C17.8255 87.5193 20.6215 90.7838 24.2203 92.9262C16.9448 95.3008 10.7106 100.316 6.6651 107.312C6.51674 107.554 6.41834 107.823 6.3757 108.104C6.33305 108.385 6.34703 108.671 6.4168 108.946C6.48658 109.221 6.61073 109.479 6.78195 109.706C6.95317 109.932 7.16797 110.122 7.41369 110.263C7.65942 110.405 7.93108 110.497 8.21265 110.532C8.49422 110.567 8.78 110.546 9.05312 110.469C9.32625 110.392 9.58118 110.261 9.80289 110.084C10.0246 109.907 10.2086 109.687 10.344 109.437C15.3484 100.789 24.1937 95.6249 34.0032 95.6249C43.8128 95.6249 52.6581 100.789 57.6624 109.437C57.7979 109.687 57.9818 109.907 58.2036 110.084C58.4253 110.261 58.6802 110.392 58.9533 110.469C59.2264 110.546 59.5122 110.567 59.7938 110.532C60.0754 110.497 60.347 110.405 60.5927 110.263C60.8385 110.122 61.0533 109.932 61.2245 109.706C61.3957 109.479 61.5199 109.221 61.5896 108.946C61.6594 108.671 61.6734 108.385 61.6307 108.104C61.5881 107.823 61.4897 107.554 61.3413 107.312ZM19.1282 76.4999C19.1282 73.5579 20.0006 70.682 21.6351 68.2358C23.2696 65.7896 25.5928 63.883 28.3108 62.7572C31.0289 61.6313 34.0197 61.3368 36.9052 61.9107C39.7907 62.4847 42.4411 63.9014 44.5214 65.9817C46.6017 68.062 48.0184 70.7125 48.5924 73.5979C49.1664 76.4834 48.8718 79.4743 47.7459 82.1923C46.6201 84.9104 44.7135 87.2335 42.2673 88.868C39.8211 90.5025 36.9452 91.3749 34.0032 91.3749C30.0594 91.3707 26.2784 89.8021 23.4897 87.0135C20.701 84.2248 19.1324 80.4437 19.1282 76.4999Z" fill="#10298E"/>
</svg>
