<svg width="166" height="80" viewBox="0 0 166 80" fill="none" xmlns="http://www.w3.org/2000/svg">
<path opacity="0.2" d="M67.4961 27.5V57.5C67.4961 59.4891 66.7059 61.3968 65.2994 62.8033C63.8929 64.2098 61.9852 65 59.9961 65H19.9961C18.007 65 16.0993 64.2098 14.6928 62.8033C13.2863 61.3968 12.4961 59.4891 12.4961 57.5V27.5C12.4961 26.837 12.7595 26.2011 13.2283 25.7322C13.6972 25.2634 14.3331 25 14.9961 25H64.9961C65.6591 25 66.295 25.2634 66.7639 25.7322C67.2327 26.2011 67.4961 26.837 67.4961 27.5Z" fill="#10298E"/>
<path d="M27.4961 15V5C27.4961 4.33696 27.7595 3.70107 28.2283 3.23223C28.6972 2.76339 29.3331 2.5 29.9961 2.5C30.6591 2.5 31.295 2.76339 31.7639 3.23223C32.2327 3.70107 32.4961 4.33696 32.4961 5V15C32.4961 15.663 32.2327 16.2989 31.7639 16.7678C31.295 17.2366 30.6591 17.5 29.9961 17.5C29.3331 17.5 28.6972 17.2366 28.2283 16.7678C27.7595 16.2989 27.4961 15.663 27.4961 15ZM39.9961 17.5C40.6591 17.5 41.295 17.2366 41.7639 16.7678C42.2327 16.2989 42.4961 15.663 42.4961 15V5C42.4961 4.33696 42.2327 3.70107 41.7639 3.23223C41.295 2.76339 40.6591 2.5 39.9961 2.5C39.3331 2.5 38.6972 2.76339 38.2283 3.23223C37.7595 3.70107 37.4961 4.33696 37.4961 5V15C37.4961 15.663 37.7595 16.2989 38.2283 16.7678C38.6972 17.2366 39.3331 17.5 39.9961 17.5ZM49.9961 17.5C50.6591 17.5 51.295 17.2366 51.7639 16.7678C52.2327 16.2989 52.4961 15.663 52.4961 15V5C52.4961 4.33696 52.2327 3.70107 51.7639 3.23223C51.295 2.76339 50.6591 2.5 49.9961 2.5C49.3331 2.5 48.6972 2.76339 48.2283 3.23223C47.7595 3.70107 47.4961 4.33696 47.4961 5V15C47.4961 15.663 47.7595 16.2989 48.2283 16.7678C48.6972 17.2366 49.3331 17.5 49.9961 17.5ZM78.9961 32L69.9961 38.75V57.5C69.9961 60.1522 68.9425 62.6957 67.0672 64.5711C65.1918 66.4464 62.6483 67.5 59.9961 67.5H19.9961C17.3439 67.5 14.8004 66.4464 12.925 64.5711C11.0497 62.6957 9.9961 60.1522 9.9961 57.5V38.75L0.996104 32C0.465671 31.6022 0.114998 31.0099 0.0212302 30.3536C-0.072538 29.6972 0.0982792 29.0304 0.496104 28.5C0.893929 27.9696 1.48617 27.6189 2.14255 27.5251C2.79893 27.4314 3.46567 27.6022 3.9961 28L9.9961 32.5V27.5C9.9961 26.1739 10.5229 24.9021 11.4606 23.9645C12.3983 23.0268 13.67 22.5 14.9961 22.5H64.9961C66.3222 22.5 67.594 23.0268 68.5316 23.9645C69.4693 24.9021 69.9961 26.1739 69.9961 27.5V32.5L75.9961 28C76.5265 27.6022 77.1933 27.4314 77.8497 27.5251C78.506 27.6189 79.0983 27.9696 79.4961 28.5C79.8939 29.0304 80.0647 29.6972 79.971 30.3536C79.8772 31.0099 79.5265 31.6022 78.9961 32ZM64.9961 27.5H14.9961V57.5C14.9961 58.8261 15.5229 60.0979 16.4606 61.0355C17.3983 61.9732 18.67 62.5 19.9961 62.5H59.9961C61.3222 62.5 62.594 61.9732 63.5316 61.0355C64.4693 60.0979 64.9961 58.8261 64.9961 57.5V27.5Z" fill="#10298E"/>
<path opacity="0.2" d="M153.496 27.5V57.5C153.496 59.4891 152.706 61.3968 151.299 62.8033C149.893 64.2098 147.985 65 145.996 65H105.996C104.007 65 102.099 64.2098 100.693 62.8033C99.2863 61.3968 98.4961 59.4891 98.4961 57.5V27.5C98.4961 26.837 98.7595 26.2011 99.2283 25.7322C99.6972 25.2634 100.333 25 100.996 25H150.996C151.659 25 152.295 25.2634 152.764 25.7322C153.233 26.2011 153.496 26.837 153.496 27.5Z" fill="#10298E"/>
<path d="M113.496 15V5C113.496 4.33696 113.759 3.70107 114.228 3.23223C114.697 2.76339 115.333 2.5 115.996 2.5C116.659 2.5 117.295 2.76339 117.764 3.23223C118.233 3.70107 118.496 4.33696 118.496 5V15C118.496 15.663 118.233 16.2989 117.764 16.7678C117.295 17.2366 116.659 17.5 115.996 17.5C115.333 17.5 114.697 17.2366 114.228 16.7678C113.759 16.2989 113.496 15.663 113.496 15ZM125.996 17.5C126.659 17.5 127.295 17.2366 127.764 16.7678C128.233 16.2989 128.496 15.663 128.496 15V5C128.496 4.33696 128.233 3.70107 127.764 3.23223C127.295 2.76339 126.659 2.5 125.996 2.5C125.333 2.5 124.697 2.76339 124.228 3.23223C123.759 3.70107 123.496 4.33696 123.496 5V15C123.496 15.663 123.759 16.2989 124.228 16.7678C124.697 17.2366 125.333 17.5 125.996 17.5ZM135.996 17.5C136.659 17.5 137.295 17.2366 137.764 16.7678C138.233 16.2989 138.496 15.663 138.496 15V5C138.496 4.33696 138.233 3.70107 137.764 3.23223C137.295 2.76339 136.659 2.5 135.996 2.5C135.333 2.5 134.697 2.76339 134.228 3.23223C133.759 3.70107 133.496 4.33696 133.496 5V15C133.496 15.663 133.759 16.2989 134.228 16.7678C134.697 17.2366 135.333 17.5 135.996 17.5ZM164.996 32L155.996 38.75V57.5C155.996 60.1522 154.943 62.6957 153.067 64.5711C151.192 66.4464 148.648 67.5 145.996 67.5H105.996C103.344 67.5 100.8 66.4464 98.925 64.5711C97.0497 62.6957 95.9961 60.1522 95.9961 57.5V38.75L86.9961 32C86.4657 31.6022 86.115 31.0099 86.0212 30.3536C85.9275 29.6972 86.0983 29.0304 86.4961 28.5C86.8939 27.9696 87.4862 27.6189 88.1426 27.5251C88.7989 27.4314 89.4657 27.6022 89.9961 28L95.9961 32.5V27.5C95.9961 26.1739 96.5229 24.9021 97.4606 23.9645C98.3983 23.0268 99.67 22.5 100.996 22.5H150.996C152.322 22.5 153.594 23.0268 154.532 23.9645C155.469 24.9021 155.996 26.1739 155.996 27.5V32.5L161.996 28C162.527 27.6022 163.193 27.4314 163.85 27.5251C164.506 27.6189 165.098 27.9696 165.496 28.5C165.894 29.0304 166.065 29.6972 165.971 30.3536C165.877 31.0099 165.527 31.6022 164.996 32ZM150.996 27.5H100.996V57.5C100.996 58.8261 101.523 60.0979 102.461 61.0355C103.398 61.9732 104.67 62.5 105.996 62.5H145.996C147.322 62.5 148.594 61.9732 149.532 61.0355C150.469 60.0979 150.996 58.8261 150.996 57.5V27.5Z" fill="#10298E"/>
</svg>
