<svg width="284" height="65" viewBox="0 0 284 65" fill="none" xmlns="http://www.w3.org/2000/svg">
<path opacity="0.2" d="M60.9336 28.4375V36.5625C60.9336 39.7948 59.6496 42.8948 57.364 45.1804C55.0784 47.466 51.9784 48.75 48.7461 48.75H16.2461C13.0138 48.75 9.91383 47.466 7.62823 45.1804C5.34263 42.8948 4.05859 39.7948 4.05859 36.5625V28.4375C4.05859 27.8988 4.2726 27.3821 4.65353 27.0012C5.03447 26.6203 5.55112 26.4062 6.08984 26.4062H34.5273V36.5625H50.7773V26.4062H58.9023C59.4411 26.4062 59.9577 26.6203 60.3387 27.0012C60.7196 27.3821 60.9336 27.8988 60.9336 28.4375Z" fill="#10298E"/>
<path d="M58.9023 24.3751H52.8086C52.8086 23.8364 52.5946 23.3197 52.2137 22.9388C51.8327 22.5578 51.3161 22.3438 50.7773 22.3438H34.5273C33.9886 22.3438 33.472 22.5578 33.091 22.9388C32.7101 23.3197 32.4961 23.8364 32.4961 24.3751H16.2461V13.2032C16.2461 12.3951 16.5671 11.6202 17.1385 11.0488C17.7099 10.4774 18.4849 10.1563 19.293 10.1563C20.0071 10.1534 20.7011 10.3926 21.2618 10.8348C21.8225 11.277 22.2169 11.8962 22.3805 12.5913C22.4921 13.1148 22.8057 13.573 23.2533 13.8665C23.7009 14.16 24.2463 14.2649 24.7708 14.1586C25.2954 14.0522 25.7567 13.7431 26.0546 13.2984C26.3525 12.8537 26.4629 12.3095 26.3617 11.7839C26.0168 10.1675 25.1257 8.71934 23.8383 7.68301C22.5508 6.64668 20.9457 6.08547 19.293 6.09384C17.4074 6.09384 15.5991 6.84286 14.2659 8.17613C12.9326 9.5094 12.1836 11.3177 12.1836 13.2032V24.3751H6.08984C5.0124 24.3751 3.97909 24.8031 3.21722 25.565C2.45536 26.3268 2.02734 27.3602 2.02734 28.4376V36.5626C2.03138 40.3324 3.53071 43.9467 6.19637 46.6123C8.86203 49.278 12.4763 50.7773 16.2461 50.7813V54.8438C16.2461 55.3826 16.4601 55.8992 16.841 56.2802C17.222 56.6611 17.7386 56.8751 18.2773 56.8751C18.8161 56.8751 19.3327 56.6611 19.7137 56.2802C20.0946 55.8992 20.3086 55.3826 20.3086 54.8438V50.7813H44.6836V54.8438C44.6836 55.3826 44.8976 55.8992 45.2785 56.2802C45.6595 56.6611 46.1761 56.8751 46.7148 56.8751C47.2536 56.8751 47.7702 56.6611 48.1512 56.2802C48.5321 55.8992 48.7461 55.3826 48.7461 54.8438V50.7813C52.5159 50.7773 56.1302 49.278 58.7958 46.6123C61.4615 43.9467 62.9608 40.3324 62.9648 36.5626V28.4376C62.9648 27.3602 62.5368 26.3268 61.775 25.565C61.0131 24.8031 59.9798 24.3751 58.9023 24.3751ZM48.7461 26.4063V34.5313H36.5586V26.4063H48.7461ZM58.9023 36.5626C58.9023 37.8963 58.6396 39.217 58.1292 40.4492C57.6188 41.6814 56.8707 42.8011 55.9276 43.7441C54.9846 44.6872 53.8649 45.4353 52.6327 45.9457C51.4005 46.4561 50.0798 46.7188 48.7461 46.7188H16.2461C13.5525 46.7188 10.9692 45.6488 9.06454 43.7441C7.15987 41.8395 6.08984 39.2562 6.08984 36.5626V28.4376H32.4961V36.5626C32.4961 37.1013 32.7101 37.618 33.091 37.9989C33.472 38.3798 33.9886 38.5938 34.5273 38.5938H50.7773C51.3161 38.5938 51.8327 38.3798 52.2137 37.9989C52.5946 37.618 52.8086 37.1013 52.8086 36.5626V28.4376H58.9023V36.5626Z" fill="#10298E"/>
<path opacity="0.2" d="M133.934 28.4375V36.5625C133.934 39.7948 132.65 42.8948 130.364 45.1804C128.078 47.466 124.978 48.75 121.746 48.75H89.2461C86.0138 48.75 82.9138 47.466 80.6282 45.1804C78.3426 42.8948 77.0586 39.7948 77.0586 36.5625V28.4375C77.0586 27.8988 77.2726 27.3821 77.6535 27.0012C78.0345 26.6203 78.5511 26.4062 79.0898 26.4062H107.527V36.5625H123.777V26.4062H131.902C132.441 26.4062 132.958 26.6203 133.339 27.0012C133.72 27.3821 133.934 27.8988 133.934 28.4375Z" fill="#10298E"/>
<path d="M131.902 24.3751H125.809C125.809 23.8364 125.595 23.3197 125.214 22.9388C124.833 22.5578 124.316 22.3438 123.777 22.3438H107.527C106.989 22.3438 106.472 22.5578 106.091 22.9388C105.71 23.3197 105.496 23.8364 105.496 24.3751H89.2461V13.2032C89.2461 12.3951 89.5671 11.6202 90.1385 11.0488C90.7099 10.4774 91.4849 10.1563 92.293 10.1563C93.0071 10.1534 93.7011 10.3926 94.2618 10.8348C94.8225 11.277 95.2169 11.8962 95.3805 12.5913C95.4921 13.1148 95.8057 13.573 96.2533 13.8665C96.7009 14.16 97.2463 14.2649 97.7708 14.1586C98.2954 14.0522 98.7567 13.7431 99.0546 13.2984C99.3525 12.8537 99.4629 12.3095 99.3617 11.7839C99.0168 10.1675 98.1257 8.71934 96.8383 7.68301C95.5508 6.64668 93.9457 6.08547 92.293 6.09384C90.4074 6.09384 88.5991 6.84286 87.2659 8.17613C85.9326 9.5094 85.1836 11.3177 85.1836 13.2032V24.3751H79.0898C78.0124 24.3751 76.9791 24.8031 76.2172 25.565C75.4554 26.3268 75.0273 27.3602 75.0273 28.4376V36.5626C75.0314 40.3324 76.5307 43.9467 79.1964 46.6123C81.862 49.278 85.4763 50.7773 89.2461 50.7813V54.8438C89.2461 55.3826 89.4601 55.8992 89.841 56.2802C90.222 56.6611 90.7386 56.8751 91.2773 56.8751C91.8161 56.8751 92.3327 56.6611 92.7137 56.2802C93.0946 55.8992 93.3086 55.3826 93.3086 54.8438V50.7813H117.684V54.8438C117.684 55.3826 117.898 55.8992 118.279 56.2802C118.659 56.6611 119.176 56.8751 119.715 56.8751C120.254 56.8751 120.77 56.6611 121.151 56.2802C121.532 55.8992 121.746 55.3826 121.746 54.8438V50.7813C125.516 50.7773 129.13 49.278 131.796 46.6123C134.461 43.9467 135.961 40.3324 135.965 36.5626V28.4376C135.965 27.3602 135.537 26.3268 134.775 25.565C134.013 24.8031 132.98 24.3751 131.902 24.3751ZM121.746 26.4063V34.5313H109.559V26.4063H121.746ZM131.902 36.5626C131.902 37.8963 131.64 39.217 131.129 40.4492C130.619 41.6814 129.871 42.8011 128.928 43.7441C127.985 44.6872 126.865 45.4353 125.633 45.9457C124.401 46.4561 123.08 46.7188 121.746 46.7188H89.2461C86.5525 46.7188 83.9692 45.6488 82.0645 43.7441C80.1599 41.8395 79.0898 39.2562 79.0898 36.5626V28.4376H105.496V36.5626C105.496 37.1013 105.71 37.618 106.091 37.9989C106.472 38.3798 106.989 38.5938 107.527 38.5938H123.777C124.316 38.5938 124.833 38.3798 125.214 37.9989C125.595 37.618 125.809 37.1013 125.809 36.5626V28.4376H131.902V36.5626Z" fill="#10298E"/>
<path opacity="0.2" d="M192.714 18.2812L187.105 51.1139C187.044 51.4816 186.882 51.8252 186.638 52.1071C186.394 52.389 186.077 52.5983 185.722 52.7121C185.367 52.8259 184.988 52.8398 184.625 52.7523C184.263 52.6647 183.931 52.4791 183.667 52.2158L158.785 27.333C158.521 27.0691 158.336 26.7377 158.248 26.3753C158.161 26.0129 158.175 25.6334 158.288 25.2784C158.402 24.9233 158.611 24.6065 158.893 24.3625C159.175 24.1185 159.519 23.9568 159.887 23.8951L192.714 18.2812Z" fill="#10298E"/>
<path d="M162.246 59.9219C162.246 60.5245 162.067 61.1136 161.733 61.6146C161.398 62.1157 160.922 62.5062 160.365 62.7368C159.808 62.9674 159.196 63.0278 158.605 62.9102C158.014 62.7927 157.471 62.5025 157.045 62.0764C156.619 61.6502 156.328 61.1073 156.211 60.5163C156.093 59.9253 156.154 59.3126 156.384 58.7559C156.615 58.1992 157.005 57.7233 157.506 57.3885C158.008 57.0537 158.597 56.875 159.199 56.875C160.007 56.875 160.782 57.196 161.354 57.7674C161.925 58.3388 162.246 59.1138 162.246 59.9219ZM167.324 48.75C166.722 48.75 166.133 48.9287 165.631 49.2635C165.13 49.5983 164.74 50.0742 164.509 50.6309C164.279 51.1876 164.218 51.8003 164.336 52.3913C164.453 52.9823 164.744 53.5252 165.17 53.9514C165.596 54.3775 166.139 54.6677 166.73 54.7852C167.321 54.9028 167.933 54.8424 168.49 54.6118C169.047 54.3812 169.523 53.9907 169.858 53.4896C170.192 52.9886 170.371 52.3995 170.371 51.7969C170.371 50.9888 170.05 50.2138 169.479 49.6424C168.907 49.071 168.132 48.75 167.324 48.75ZM151.074 48.75C150.472 48.75 149.883 48.9287 149.381 49.2635C148.88 49.5983 148.49 50.0742 148.259 50.6309C148.029 51.1876 147.968 51.8003 148.086 52.3913C148.203 52.9823 148.494 53.5252 148.92 53.9514C149.346 54.3775 149.889 54.6677 150.48 54.7852C151.071 54.9028 151.683 54.8424 152.24 54.6118C152.797 54.3812 153.273 53.9907 153.608 53.4896C153.942 52.9886 154.121 52.3995 154.121 51.7969C154.121 50.9888 153.8 50.2138 153.229 49.6424C152.657 49.071 151.882 48.75 151.074 48.75ZM159.199 40.625C158.597 40.625 158.008 40.8037 157.506 41.1385C157.005 41.4733 156.615 41.9492 156.384 42.5059C156.154 43.0626 156.093 43.6753 156.211 44.2663C156.328 44.8573 156.619 45.4002 157.045 45.8264C157.471 46.2525 158.014 46.5427 158.605 46.6602C159.196 46.7778 159.808 46.7174 160.365 46.4868C160.922 46.2562 161.398 45.8657 161.733 45.3646C162.067 44.8636 162.246 44.2745 162.246 43.6719C162.246 42.8638 161.925 42.0888 161.354 41.5174C160.782 40.946 160.007 40.625 159.199 40.625ZM210.996 10.1563C210.996 10.695 210.782 11.2116 210.401 11.5926C210.02 11.9735 209.504 12.1875 208.965 12.1875H201.68L194.609 19.2613L189.109 51.4541C188.986 52.1896 188.662 52.8768 188.173 53.4404C187.685 54.0041 187.051 54.4224 186.34 54.6495C185.63 54.8766 184.871 54.9037 184.146 54.7279C183.421 54.5522 182.759 54.1802 182.231 53.6529L157.348 28.7701C156.82 28.2422 156.448 27.579 156.272 26.8533C156.096 26.1276 156.124 25.3675 156.352 24.6564C156.58 23.9454 156.999 23.3109 157.564 22.8228C158.129 22.3346 158.818 22.0116 159.555 21.8893L191.735 16.3871L198.809 9.31584C199.184 8.93696 199.632 8.63657 200.125 8.43214C200.618 8.22771 201.147 8.12332 201.68 8.12502H208.965C209.504 8.12502 210.02 8.33903 210.401 8.71996C210.782 9.10089 210.996 9.61755 210.996 10.1563ZM190.229 20.767L160.215 25.8985L185.098 50.7813L190.229 20.767Z" fill="#10298E"/>
<path opacity="0.2" d="M265.714 18.2812L260.105 51.1139C260.044 51.4816 259.882 51.8252 259.638 52.1071C259.394 52.389 259.077 52.5983 258.722 52.7121C258.367 52.8259 257.988 52.8398 257.625 52.7523C257.263 52.6647 256.931 52.4791 256.667 52.2158L231.785 27.333C231.521 27.0691 231.336 26.7377 231.248 26.3753C231.161 26.0129 231.175 25.6334 231.288 25.2784C231.402 24.9233 231.611 24.6065 231.893 24.3625C232.175 24.1185 232.519 23.9568 232.887 23.8951L265.714 18.2812Z" fill="#10298E"/>
<path d="M235.246 59.9219C235.246 60.5245 235.067 61.1136 234.733 61.6146C234.398 62.1157 233.922 62.5062 233.365 62.7368C232.808 62.9674 232.196 63.0278 231.605 62.9102C231.014 62.7927 230.471 62.5025 230.045 62.0764C229.619 61.6502 229.328 61.1073 229.211 60.5163C229.093 59.9253 229.154 59.3126 229.384 58.7559C229.615 58.1992 230.005 57.7233 230.506 57.3885C231.008 57.0537 231.597 56.875 232.199 56.875C233.007 56.875 233.782 57.196 234.354 57.7674C234.925 58.3388 235.246 59.1138 235.246 59.9219ZM240.324 48.75C239.722 48.75 239.133 48.9287 238.631 49.2635C238.13 49.5983 237.74 50.0742 237.509 50.6309C237.279 51.1876 237.218 51.8003 237.336 52.3913C237.453 52.9823 237.744 53.5252 238.17 53.9514C238.596 54.3775 239.139 54.6677 239.73 54.7852C240.321 54.9028 240.933 54.8424 241.49 54.6118C242.047 54.3812 242.523 53.9907 242.858 53.4896C243.192 52.9886 243.371 52.3995 243.371 51.7969C243.371 50.9888 243.05 50.2138 242.479 49.6424C241.907 49.071 241.132 48.75 240.324 48.75ZM224.074 48.75C223.472 48.75 222.883 48.9287 222.381 49.2635C221.88 49.5983 221.49 50.0742 221.259 50.6309C221.029 51.1876 220.968 51.8003 221.086 52.3913C221.203 52.9823 221.494 53.5252 221.92 53.9514C222.346 54.3775 222.889 54.6677 223.48 54.7852C224.071 54.9028 224.683 54.8424 225.24 54.6118C225.797 54.3812 226.273 53.9907 226.608 53.4896C226.942 52.9886 227.121 52.3995 227.121 51.7969C227.121 50.9888 226.8 50.2138 226.229 49.6424C225.657 49.071 224.882 48.75 224.074 48.75ZM232.199 40.625C231.597 40.625 231.008 40.8037 230.506 41.1385C230.005 41.4733 229.615 41.9492 229.384 42.5059C229.154 43.0626 229.093 43.6753 229.211 44.2663C229.328 44.8573 229.619 45.4002 230.045 45.8264C230.471 46.2525 231.014 46.5427 231.605 46.6602C232.196 46.7778 232.808 46.7174 233.365 46.4868C233.922 46.2562 234.398 45.8657 234.733 45.3646C235.067 44.8636 235.246 44.2745 235.246 43.6719C235.246 42.8638 234.925 42.0888 234.354 41.5174C233.782 40.946 233.007 40.625 232.199 40.625ZM283.996 10.1563C283.996 10.695 283.782 11.2116 283.401 11.5926C283.02 11.9735 282.504 12.1875 281.965 12.1875H274.68L267.609 19.2613L262.109 51.4541C261.986 52.1896 261.662 52.8768 261.173 53.4404C260.685 54.0041 260.051 54.4224 259.34 54.6495C258.63 54.8766 257.871 54.9037 257.146 54.7279C256.421 54.5522 255.759 54.1802 255.231 53.6529L230.348 28.7701C229.82 28.2422 229.448 27.579 229.272 26.8533C229.096 26.1276 229.124 25.3675 229.352 24.6564C229.58 23.9454 229.999 23.3109 230.564 22.8228C231.129 22.3346 231.818 22.0116 232.555 21.8893L264.735 16.3871L271.809 9.31584C272.184 8.93696 272.632 8.63657 273.125 8.43214C273.618 8.22771 274.147 8.12332 274.68 8.12502H281.965C282.504 8.12502 283.02 8.33903 283.401 8.71996C283.782 9.10089 283.996 9.61755 283.996 10.1563ZM263.229 20.767L233.215 25.8985L258.098 50.7813L263.229 20.767Z" fill="#10298E"/>
</svg>
