<svg width="120" height="119" viewBox="0 0 120 119" fill="none" xmlns="http://www.w3.org/2000/svg">
<path opacity="0.2" d="M50.9961 25.5C50.9961 28.8623 49.9991 32.1491 48.1311 34.9447C46.2631 37.7403 43.6081 39.9193 40.5017 41.206C37.3954 42.4926 33.9772 42.8293 30.6796 42.1734C27.3819 41.5174 24.3528 39.8983 21.9753 37.5208C19.5978 35.1433 17.9787 32.1142 17.3228 28.8165C16.6668 25.5189 17.0035 22.1007 18.2901 18.9944C19.5768 15.888 21.7558 13.233 24.5514 11.365C27.347 9.49703 30.6338 8.5 33.9961 8.5C38.5048 8.5 42.8288 10.2911 46.0169 13.4792C49.205 16.6673 50.9961 20.9913 50.9961 25.5Z" fill="#10298E"/>
<path d="M61.3335 56.3129C57.2881 49.319 51.0538 44.304 43.7784 41.9266C47.3772 39.7843 50.1732 36.5198 51.7371 32.6345C53.301 28.7493 53.5462 24.4581 52.4353 20.4199C51.3243 16.3818 48.9184 12.82 45.5872 10.2815C42.256 7.74298 38.1836 6.36816 33.9954 6.36816C29.8072 6.36816 25.7348 7.74298 22.4036 10.2815C19.0724 12.82 16.6666 16.3818 15.5556 20.4199C14.4446 24.4581 14.6899 28.7493 16.2537 32.6345C17.8176 36.5198 20.6137 39.7843 24.2124 41.9266C16.937 44.3013 10.7028 49.3163 6.65728 56.3129C6.50893 56.5548 6.41053 56.824 6.36788 57.1045C6.32524 57.385 6.33922 57.6713 6.40899 57.9463C6.47876 58.2214 6.60292 58.4797 6.77414 58.706C6.94535 58.9323 7.16016 59.122 7.40588 59.2639C7.6516 59.4059 7.92326 59.4971 8.20484 59.5324C8.48641 59.5676 8.77219 59.5461 9.04531 59.4691C9.31843 59.3921 9.57337 59.2612 9.79508 59.0841C10.0168 58.907 10.2008 58.6873 10.3362 58.4379C15.3406 49.7891 24.1859 44.6254 33.9954 44.6254C43.8049 44.6254 52.6503 49.7891 57.6546 58.4379C57.79 58.6873 57.974 58.907 58.1957 59.0841C58.4174 59.2612 58.6724 59.3921 58.9455 59.4691C59.2186 59.5461 59.5044 59.5676 59.786 59.5324C60.0676 59.4971 60.3392 59.4059 60.5849 59.2639C60.8307 59.122 61.0455 58.9323 61.2167 58.706C61.3879 58.4797 61.5121 58.2214 61.5818 57.9463C61.6516 57.6713 61.6656 57.385 61.6229 57.1045C61.5803 56.824 61.4819 56.5548 61.3335 56.3129ZM19.1204 25.5004C19.1204 22.5584 19.9928 19.6825 21.6273 17.2363C23.2618 14.7901 25.5849 12.8835 28.303 11.7577C31.021 10.6318 34.0119 10.3373 36.8974 10.9112C39.7828 11.4852 42.4333 12.9019 44.5136 14.9822C46.5939 17.0625 48.0106 19.713 48.5846 22.5984C49.1585 25.4839 48.864 28.4748 47.7381 31.1928C46.6123 33.9109 44.7057 36.234 42.2595 37.8685C39.8133 39.503 36.9374 40.3754 33.9954 40.3754C30.0516 40.3712 26.2705 38.8026 23.4819 36.0139C20.6932 33.2253 19.1246 29.4442 19.1204 25.5004Z" fill="#10298E"/>
<path opacity="0.2" d="M102.848 25.5C102.848 28.8623 101.851 32.1491 99.9826 34.9447C98.1147 37.7403 95.4596 39.9193 92.3533 41.206C89.2469 42.4926 85.8288 42.8293 82.5311 42.1734C79.2335 41.5174 76.2043 39.8983 73.8268 37.5208C71.4494 35.1433 69.8303 32.1142 69.1743 28.8165C68.5184 25.5189 68.855 22.1007 70.1417 18.9944C71.4284 15.888 73.6073 13.233 76.403 11.365C79.1986 9.49703 82.4854 8.5 85.8477 8.5C90.3563 8.5 94.6804 10.2911 97.8685 13.4792C101.057 16.6673 102.848 20.9913 102.848 25.5Z" fill="#10298E"/>
<path d="M113.185 56.3129C109.14 49.319 102.905 44.304 95.6299 41.9266C99.2287 39.7843 102.025 36.5198 103.589 32.6345C105.153 28.7493 105.398 24.4581 104.287 20.4199C103.176 16.3818 100.77 12.82 97.4388 10.2815C94.1076 7.74298 90.0352 6.36816 85.847 6.36816C81.6588 6.36816 77.5864 7.74298 74.2552 10.2815C70.9239 12.82 68.5181 16.3818 67.4071 20.4199C66.2961 24.4581 66.5414 28.7493 68.1053 32.6345C69.6692 36.5198 72.4652 39.7843 76.064 41.9266C68.7885 44.3013 62.5543 49.3163 58.5088 56.3129C58.3605 56.5548 58.2621 56.824 58.2194 57.1045C58.1768 57.385 58.1908 57.6713 58.2606 57.9463C58.3303 58.2214 58.4545 58.4797 58.6257 58.706C58.7969 58.9323 59.0117 59.122 59.2574 59.2639C59.5032 59.4059 59.7748 59.4971 60.0564 59.5324C60.338 59.5676 60.6237 59.5461 60.8969 59.4691C61.17 59.3921 61.4249 59.2612 61.6466 59.0841C61.8684 58.907 62.0523 58.6873 62.1878 58.4379C67.1921 49.7891 76.0374 44.6254 85.847 44.6254C95.6565 44.6254 104.502 49.7891 109.506 58.4379C109.642 58.6873 109.826 58.907 110.047 59.0841C110.269 59.2612 110.524 59.3921 110.797 59.4691C111.07 59.5461 111.356 59.5676 111.638 59.5324C111.919 59.4971 112.191 59.4059 112.436 59.2639C112.682 59.122 112.897 58.9323 113.068 58.706C113.239 58.4797 113.364 58.2214 113.433 57.9463C113.503 57.6713 113.517 57.385 113.474 57.1045C113.432 56.824 113.333 56.5548 113.185 56.3129ZM70.972 25.5004C70.972 22.5584 71.8444 19.6825 73.4789 17.2363C75.1133 14.7901 77.4365 12.8835 80.1546 11.7577C82.8726 10.6318 85.8635 10.3373 88.7489 10.9112C91.6344 11.4852 94.2849 12.9019 96.3652 14.9822C98.4455 17.0625 99.8622 19.713 100.436 22.5984C101.01 25.4839 100.716 28.4748 99.5897 31.1928C98.4638 33.9109 96.5573 36.234 94.1111 37.8685C91.6649 39.503 88.789 40.3754 85.847 40.3754C81.9032 40.3712 78.1221 38.8026 75.3334 36.0139C72.5447 33.2253 70.9762 29.4442 70.972 25.5004Z" fill="#10298E"/>
<path opacity="0.2" d="M102.145 76.5C102.145 79.8623 101.148 83.1491 99.2795 85.9447C97.4115 88.7403 94.7565 90.9193 91.6502 92.206C88.5438 93.4926 85.1257 93.8293 81.828 93.1734C78.5303 92.5174 75.5012 90.8983 73.1237 88.5208C70.7462 86.1433 69.1271 83.1142 68.4712 79.8165C67.8152 76.5189 68.1519 73.1007 69.4386 69.9944C70.7253 66.888 72.9042 64.233 75.6998 62.365C78.4955 60.497 81.7823 59.5 85.1445 59.5C89.6532 59.5 93.9772 61.2911 97.1654 64.4792C100.353 67.6673 102.145 71.9913 102.145 76.5Z" fill="#10298E"/>
<path d="M112.482 107.313C108.437 100.319 102.202 95.304 94.9268 92.9266C98.5256 90.7843 101.322 87.5198 102.886 83.6345C104.449 79.7493 104.695 75.4581 103.584 71.4199C102.473 67.3818 100.067 63.82 96.7357 61.2815C93.4044 58.743 89.332 57.3682 85.1438 57.3682C80.9557 57.3682 76.8833 58.743 73.552 61.2815C70.2208 63.82 67.815 67.3818 66.704 71.4199C65.593 75.4581 65.8383 79.7493 67.4022 83.6345C68.9661 87.5198 71.7621 90.7843 75.3609 92.9266C68.0854 95.3013 61.8512 100.316 57.8057 107.313C57.6574 107.555 57.559 107.824 57.5163 108.105C57.4737 108.385 57.4877 108.671 57.5574 108.946C57.6272 109.221 57.7514 109.48 57.9226 109.706C58.0938 109.932 58.3086 110.122 58.5543 110.264C58.8 110.406 59.0717 110.497 59.3533 110.532C59.6348 110.568 59.9206 110.546 60.1937 110.469C60.4669 110.392 60.7218 110.261 60.9435 110.084C61.1652 109.907 61.3492 109.687 61.4846 109.438C66.489 100.789 75.3343 95.6254 85.1438 95.6254C94.9534 95.6254 103.799 100.789 108.803 109.438C108.938 109.687 109.122 109.907 109.344 110.084C109.566 110.261 109.821 110.392 110.094 110.469C110.367 110.546 110.653 110.568 110.934 110.532C111.216 110.497 111.488 110.406 111.733 110.264C111.979 110.122 112.194 109.932 112.365 109.706C112.536 109.48 112.66 109.221 112.73 108.946C112.8 108.671 112.814 108.385 112.771 108.105C112.729 107.824 112.63 107.555 112.482 107.313ZM70.2688 76.5004C70.2688 73.5584 71.1412 70.6825 72.7757 68.2363C74.4102 65.7901 76.7334 63.8835 79.4514 62.7577C82.1695 61.6318 85.1603 61.3373 88.0458 61.9112C90.9313 62.4852 93.5818 63.9019 95.6621 65.9822C97.7424 68.0625 99.1591 70.713 99.733 73.5984C100.307 76.4839 100.012 79.4748 98.8866 82.1928C97.7607 84.9109 95.8541 87.234 93.408 88.8685C90.9618 90.503 88.0858 91.3754 85.1438 91.3754C81.2 91.3712 77.419 89.8026 74.6303 87.0139C71.8416 84.2253 70.2731 80.4442 70.2688 76.5004Z" fill="#10298E"/>
<path opacity="0.2" d="M50.9961 76.5C50.9961 79.8623 49.9991 83.1491 48.1311 85.9447C46.2631 88.7403 43.6081 90.9193 40.5017 92.206C37.3954 93.4926 33.9772 93.8293 30.6796 93.1734C27.3819 92.5174 24.3528 90.8983 21.9753 88.5208C19.5978 86.1433 17.9787 83.1142 17.3228 79.8165C16.6668 76.5189 17.0035 73.1007 18.2901 69.9944C19.5768 66.888 21.7558 64.233 24.5514 62.365C27.347 60.497 30.6338 59.5 33.9961 59.5C38.5048 59.5 42.8288 61.2911 46.0169 64.4792C49.205 67.6673 50.9961 71.9913 50.9961 76.5Z" fill="#10298E"/>
<path d="M61.3335 107.313C57.2881 100.319 51.0538 95.304 43.7784 92.9266C47.3772 90.7843 50.1732 87.5198 51.7371 83.6345C53.301 79.7493 53.5462 75.4581 52.4353 71.4199C51.3243 67.3818 48.9184 63.82 45.5872 61.2815C42.256 58.743 38.1836 57.3682 33.9954 57.3682C29.8072 57.3682 25.7348 58.743 22.4036 61.2815C19.0724 63.82 16.6666 67.3818 15.5556 71.4199C14.4446 75.4581 14.6899 79.7493 16.2537 83.6345C17.8176 87.5198 20.6137 90.7843 24.2124 92.9266C16.937 95.3013 10.7028 100.316 6.65728 107.313C6.50893 107.555 6.41053 107.824 6.36788 108.105C6.32524 108.385 6.33922 108.671 6.40899 108.946C6.47876 109.221 6.60292 109.48 6.77414 109.706C6.94535 109.932 7.16016 110.122 7.40588 110.264C7.6516 110.406 7.92326 110.497 8.20484 110.532C8.48641 110.568 8.77219 110.546 9.04531 110.469C9.31843 110.392 9.57337 110.261 9.79508 110.084C10.0168 109.907 10.2008 109.687 10.3362 109.438C15.3406 100.789 24.1859 95.6254 33.9954 95.6254C43.8049 95.6254 52.6503 100.789 57.6546 109.438C57.79 109.687 57.974 109.907 58.1957 110.084C58.4174 110.261 58.6724 110.392 58.9455 110.469C59.2186 110.546 59.5044 110.568 59.786 110.532C60.0676 110.497 60.3392 110.406 60.5849 110.264C60.8307 110.122 61.0455 109.932 61.2167 109.706C61.3879 109.48 61.5121 109.221 61.5818 108.946C61.6516 108.671 61.6656 108.385 61.6229 108.105C61.5803 107.824 61.4819 107.555 61.3335 107.313ZM19.1204 76.5004C19.1204 73.5584 19.9928 70.6825 21.6273 68.2363C23.2618 65.7901 25.5849 63.8835 28.303 62.7577C31.021 61.6318 34.0119 61.3373 36.8974 61.9112C39.7828 62.4852 42.4333 63.9019 44.5136 65.9822C46.5939 68.0625 48.0106 70.713 48.5846 73.5984C49.1585 76.4839 48.864 79.4748 47.7381 82.1928C46.6123 84.9109 44.7057 87.234 42.2595 88.8685C39.8133 90.503 36.9374 91.3754 33.9954 91.3754C30.0516 91.3712 26.2705 89.8026 23.4819 87.0139C20.6932 84.2253 19.1246 80.4442 19.1204 76.5004Z" fill="#10298E"/>
</svg>
