<svg width="256" height="150" viewBox="0 0 256 150" fill="none" xmlns="http://www.w3.org/2000/svg">
<path opacity="0.2" d="M67.5039 27.5V57.5C67.5039 59.4891 66.7137 61.3968 65.3072 62.8033C63.9007 64.2098 61.993 65 60.0039 65H20.0039C18.0148 65 16.1071 64.2098 14.7006 62.8033C13.2941 61.3968 12.5039 59.4891 12.5039 57.5V27.5C12.5039 26.837 12.7673 26.2011 13.2361 25.7322C13.705 25.2634 14.3409 25 15.0039 25H65.0039C65.6669 25 66.3028 25.2634 66.7717 25.7322C67.2405 26.2011 67.5039 26.837 67.5039 27.5Z" fill="#10298E"/>
<path d="M27.5039 15V5C27.5039 4.33696 27.7673 3.70107 28.2361 3.23223C28.705 2.76339 29.3409 2.5 30.0039 2.5C30.667 2.5 31.3028 2.76339 31.7717 3.23223C32.2405 3.70107 32.5039 4.33696 32.5039 5V15C32.5039 15.663 32.2405 16.2989 31.7717 16.7678C31.3028 17.2366 30.667 17.5 30.0039 17.5C29.3409 17.5 28.705 17.2366 28.2361 16.7678C27.7673 16.2989 27.5039 15.663 27.5039 15ZM40.0039 17.5C40.667 17.5 41.3028 17.2366 41.7717 16.7678C42.2405 16.2989 42.5039 15.663 42.5039 15V5C42.5039 4.33696 42.2405 3.70107 41.7717 3.23223C41.3028 2.76339 40.667 2.5 40.0039 2.5C39.3409 2.5 38.705 2.76339 38.2361 3.23223C37.7673 3.70107 37.5039 4.33696 37.5039 5V15C37.5039 15.663 37.7673 16.2989 38.2361 16.7678C38.705 17.2366 39.3409 17.5 40.0039 17.5ZM50.0039 17.5C50.667 17.5 51.3028 17.2366 51.7717 16.7678C52.2405 16.2989 52.5039 15.663 52.5039 15V5C52.5039 4.33696 52.2405 3.70107 51.7717 3.23223C51.3028 2.76339 50.667 2.5 50.0039 2.5C49.3409 2.5 48.705 2.76339 48.2361 3.23223C47.7673 3.70107 47.5039 4.33696 47.5039 5V15C47.5039 15.663 47.7673 16.2989 48.2361 16.7678C48.705 17.2366 49.3409 17.5 50.0039 17.5ZM79.0039 32L70.0039 38.75V57.5C70.0039 60.1522 68.9503 62.6957 67.075 64.5711C65.1996 66.4464 62.6561 67.5 60.0039 67.5H20.0039C17.3518 67.5 14.8082 66.4464 12.9328 64.5711C11.0575 62.6957 10.0039 60.1522 10.0039 57.5V38.75L1.00392 32C0.473483 31.6022 0.122811 31.0099 0.0290427 30.3536C-0.0647255 29.6972 0.106092 29.0304 0.503916 28.5C0.901741 27.9696 1.49399 27.6189 2.15036 27.5251C2.80674 27.4314 3.47348 27.6022 4.00392 28L10.0039 32.5V27.5C10.0039 26.1739 10.5307 24.9021 11.4684 23.9645C12.4061 23.0268 13.6778 22.5 15.0039 22.5H65.0039C66.33 22.5 67.6018 23.0268 68.5394 23.9645C69.4771 24.9021 70.0039 26.1739 70.0039 27.5V32.5L76.0039 28C76.5343 27.6022 77.2011 27.4314 77.8575 27.5251C78.5138 27.6189 79.1061 27.9696 79.5039 28.5C79.9017 29.0304 80.0726 29.6972 79.9788 30.3536C79.885 31.0099 79.5343 31.6022 79.0039 32ZM65.0039 27.5H15.0039V57.5C15.0039 58.8261 15.5307 60.0979 16.4684 61.0355C17.4061 61.9732 18.6778 62.5 20.0039 62.5H60.0039C61.33 62.5 62.6018 61.9732 63.5394 61.0355C64.4771 60.0979 65.0039 58.8261 65.0039 57.5V27.5Z" fill="#10298E"/>
<path opacity="0.2" d="M155.504 27.5V57.5C155.504 59.4891 154.714 61.3968 153.307 62.8033C151.901 64.2098 149.993 65 148.004 65H108.004C106.015 65 104.107 64.2098 102.701 62.8033C101.294 61.3968 100.504 59.4891 100.504 57.5V27.5C100.504 26.837 100.767 26.2011 101.236 25.7322C101.705 25.2634 102.341 25 103.004 25H153.004C153.667 25 154.303 25.2634 154.772 25.7322C155.241 26.2011 155.504 26.837 155.504 27.5Z" fill="#10298E"/>
<path d="M115.504 15V5C115.504 4.33696 115.767 3.70107 116.236 3.23223C116.705 2.76339 117.341 2.5 118.004 2.5C118.667 2.5 119.303 2.76339 119.772 3.23223C120.241 3.70107 120.504 4.33696 120.504 5V15C120.504 15.663 120.241 16.2989 119.772 16.7678C119.303 17.2366 118.667 17.5 118.004 17.5C117.341 17.5 116.705 17.2366 116.236 16.7678C115.767 16.2989 115.504 15.663 115.504 15ZM128.004 17.5C128.667 17.5 129.303 17.2366 129.772 16.7678C130.241 16.2989 130.504 15.663 130.504 15V5C130.504 4.33696 130.241 3.70107 129.772 3.23223C129.303 2.76339 128.667 2.5 128.004 2.5C127.341 2.5 126.705 2.76339 126.236 3.23223C125.767 3.70107 125.504 4.33696 125.504 5V15C125.504 15.663 125.767 16.2989 126.236 16.7678C126.705 17.2366 127.341 17.5 128.004 17.5ZM138.004 17.5C138.667 17.5 139.303 17.2366 139.772 16.7678C140.241 16.2989 140.504 15.663 140.504 15V5C140.504 4.33696 140.241 3.70107 139.772 3.23223C139.303 2.76339 138.667 2.5 138.004 2.5C137.341 2.5 136.705 2.76339 136.236 3.23223C135.767 3.70107 135.504 4.33696 135.504 5V15C135.504 15.663 135.767 16.2989 136.236 16.7678C136.705 17.2366 137.341 17.5 138.004 17.5ZM167.004 32L158.004 38.75V57.5C158.004 60.1522 156.95 62.6957 155.075 64.5711C153.2 66.4464 150.656 67.5 148.004 67.5H108.004C105.352 67.5 102.808 66.4464 100.933 64.5711C99.0575 62.6957 98.0039 60.1522 98.0039 57.5V38.75L89.0039 32C88.4735 31.6022 88.1228 31.0099 88.029 30.3536C87.9353 29.6972 88.1061 29.0304 88.5039 28.5C88.9017 27.9696 89.494 27.6189 90.1504 27.5251C90.8067 27.4314 91.4735 27.6022 92.0039 28L98.0039 32.5V27.5C98.0039 26.1739 98.5307 24.9021 99.4684 23.9645C100.406 23.0268 101.678 22.5 103.004 22.5H153.004C154.33 22.5 155.602 23.0268 156.539 23.9645C157.477 24.9021 158.004 26.1739 158.004 27.5V32.5L164.004 28C164.534 27.6022 165.201 27.4314 165.857 27.5251C166.514 27.6189 167.106 27.9696 167.504 28.5C167.902 29.0304 168.073 29.6972 167.979 30.3536C167.885 31.0099 167.534 31.6022 167.004 32ZM153.004 27.5H103.004V57.5C103.004 58.8261 103.531 60.0979 104.468 61.0355C105.406 61.9732 106.678 62.5 108.004 62.5H148.004C149.33 62.5 150.602 61.9732 151.539 61.0355C152.477 60.0979 153.004 58.8261 153.004 57.5V27.5Z" fill="#10298E"/>
<path opacity="0.2" d="M243.504 27.5V57.5C243.504 59.4891 242.714 61.3968 241.307 62.8033C239.901 64.2098 237.993 65 236.004 65H196.004C194.015 65 192.107 64.2098 190.701 62.8033C189.294 61.3968 188.504 59.4891 188.504 57.5V27.5C188.504 26.837 188.767 26.2011 189.236 25.7322C189.705 25.2634 190.341 25 191.004 25H241.004C241.667 25 242.303 25.2634 242.772 25.7322C243.241 26.2011 243.504 26.837 243.504 27.5Z" fill="#10298E"/>
<path d="M203.504 15V5C203.504 4.33696 203.767 3.70107 204.236 3.23223C204.705 2.76339 205.341 2.5 206.004 2.5C206.667 2.5 207.303 2.76339 207.772 3.23223C208.241 3.70107 208.504 4.33696 208.504 5V15C208.504 15.663 208.241 16.2989 207.772 16.7678C207.303 17.2366 206.667 17.5 206.004 17.5C205.341 17.5 204.705 17.2366 204.236 16.7678C203.767 16.2989 203.504 15.663 203.504 15ZM216.004 17.5C216.667 17.5 217.303 17.2366 217.772 16.7678C218.241 16.2989 218.504 15.663 218.504 15V5C218.504 4.33696 218.241 3.70107 217.772 3.23223C217.303 2.76339 216.667 2.5 216.004 2.5C215.341 2.5 214.705 2.76339 214.236 3.23223C213.767 3.70107 213.504 4.33696 213.504 5V15C213.504 15.663 213.767 16.2989 214.236 16.7678C214.705 17.2366 215.341 17.5 216.004 17.5ZM226.004 17.5C226.667 17.5 227.303 17.2366 227.772 16.7678C228.241 16.2989 228.504 15.663 228.504 15V5C228.504 4.33696 228.241 3.70107 227.772 3.23223C227.303 2.76339 226.667 2.5 226.004 2.5C225.341 2.5 224.705 2.76339 224.236 3.23223C223.767 3.70107 223.504 4.33696 223.504 5V15C223.504 15.663 223.767 16.2989 224.236 16.7678C224.705 17.2366 225.341 17.5 226.004 17.5ZM255.004 32L246.004 38.75V57.5C246.004 60.1522 244.95 62.6957 243.075 64.5711C241.2 66.4464 238.656 67.5 236.004 67.5H196.004C193.352 67.5 190.808 66.4464 188.933 64.5711C187.057 62.6957 186.004 60.1522 186.004 57.5V38.75L177.004 32C176.473 31.6022 176.123 31.0099 176.029 30.3536C175.935 29.6972 176.106 29.0304 176.504 28.5C176.902 27.9696 177.494 27.6189 178.15 27.5251C178.807 27.4314 179.473 27.6022 180.004 28L186.004 32.5V27.5C186.004 26.1739 186.531 24.9021 187.468 23.9645C188.406 23.0268 189.678 22.5 191.004 22.5H241.004C242.33 22.5 243.602 23.0268 244.539 23.9645C245.477 24.9021 246.004 26.1739 246.004 27.5V32.5L252.004 28C252.534 27.6022 253.201 27.4314 253.857 27.5251C254.514 27.6189 255.106 27.9696 255.504 28.5C255.902 29.0304 256.073 29.6972 255.979 30.3536C255.885 31.0099 255.534 31.6022 255.004 32ZM241.004 27.5H191.004V57.5C191.004 58.8261 191.531 60.0979 192.468 61.0355C193.406 61.9732 194.678 62.5 196.004 62.5H236.004C237.33 62.5 238.602 61.9732 239.539 61.0355C240.477 60.0979 241.004 58.8261 241.004 57.5V27.5Z" fill="#10298E"/>
<path opacity="0.2" d="M109.504 97.5V127.5C109.504 129.489 108.714 131.397 107.307 132.803C105.901 134.21 103.993 135 102.004 135H62.0039C60.0148 135 58.1071 134.21 56.7006 132.803C55.2941 131.397 54.5039 129.489 54.5039 127.5V97.5C54.5039 96.837 54.7673 96.2011 55.2361 95.7322C55.705 95.2634 56.3409 95 57.0039 95H107.004C107.667 95 108.303 95.2634 108.772 95.7322C109.241 96.2011 109.504 96.837 109.504 97.5Z" fill="#10298E"/>
<path d="M69.5039 85V75C69.5039 74.337 69.7673 73.7011 70.2361 73.2322C70.705 72.7634 71.3409 72.5 72.0039 72.5C72.667 72.5 73.3028 72.7634 73.7717 73.2322C74.2405 73.7011 74.5039 74.337 74.5039 75V85C74.5039 85.663 74.2405 86.2989 73.7717 86.7678C73.3028 87.2366 72.667 87.5 72.0039 87.5C71.3409 87.5 70.705 87.2366 70.2361 86.7678C69.7673 86.2989 69.5039 85.663 69.5039 85ZM82.0039 87.5C82.667 87.5 83.3028 87.2366 83.7717 86.7678C84.2405 86.2989 84.5039 85.663 84.5039 85V75C84.5039 74.337 84.2405 73.7011 83.7717 73.2322C83.3028 72.7634 82.667 72.5 82.0039 72.5C81.3409 72.5 80.705 72.7634 80.2361 73.2322C79.7673 73.7011 79.5039 74.337 79.5039 75V85C79.5039 85.663 79.7673 86.2989 80.2361 86.7678C80.705 87.2366 81.3409 87.5 82.0039 87.5ZM92.0039 87.5C92.667 87.5 93.3028 87.2366 93.7717 86.7678C94.2405 86.2989 94.5039 85.663 94.5039 85V75C94.5039 74.337 94.2405 73.7011 93.7717 73.2322C93.3028 72.7634 92.667 72.5 92.0039 72.5C91.3409 72.5 90.705 72.7634 90.2361 73.2322C89.7673 73.7011 89.5039 74.337 89.5039 75V85C89.5039 85.663 89.7673 86.2989 90.2361 86.7678C90.705 87.2366 91.3409 87.5 92.0039 87.5ZM121.004 102L112.004 108.75V127.5C112.004 130.152 110.95 132.696 109.075 134.571C107.2 136.446 104.656 137.5 102.004 137.5H62.0039C59.3518 137.5 56.8082 136.446 54.9328 134.571C53.0575 132.696 52.0039 130.152 52.0039 127.5V108.75L43.0039 102C42.4735 101.602 42.1228 101.01 42.029 100.354C41.9353 99.6972 42.1061 99.0304 42.5039 98.5C42.9017 97.9696 43.494 97.6189 44.1504 97.5251C44.8067 97.4314 45.4735 97.6022 46.0039 98L52.0039 102.5V97.5C52.0039 96.1739 52.5307 94.9021 53.4684 93.9645C54.4061 93.0268 55.6778 92.5 57.0039 92.5H107.004C108.33 92.5 109.602 93.0268 110.539 93.9645C111.477 94.9021 112.004 96.1739 112.004 97.5V102.5L118.004 98C118.534 97.6022 119.201 97.4314 119.857 97.5251C120.514 97.6189 121.106 97.9696 121.504 98.5C121.902 99.0304 122.073 99.6972 121.979 100.354C121.885 101.01 121.534 101.602 121.004 102ZM107.004 97.5H57.0039V127.5C57.0039 128.826 57.5307 130.098 58.4684 131.036C59.4061 131.973 60.6778 132.5 62.0039 132.5H102.004C103.33 132.5 104.602 131.973 105.539 131.036C106.477 130.098 107.004 128.826 107.004 127.5V97.5Z" fill="#10298E"/>
<path opacity="0.2" d="M197.504 97.5V127.5C197.504 129.489 196.714 131.397 195.307 132.803C193.901 134.21 191.993 135 190.004 135H150.004C148.015 135 146.107 134.21 144.701 132.803C143.294 131.397 142.504 129.489 142.504 127.5V97.5C142.504 96.837 142.767 96.2011 143.236 95.7322C143.705 95.2634 144.341 95 145.004 95H195.004C195.667 95 196.303 95.2634 196.772 95.7322C197.241 96.2011 197.504 96.837 197.504 97.5Z" fill="#10298E"/>
<path d="M157.504 85V75C157.504 74.337 157.767 73.7011 158.236 73.2322C158.705 72.7634 159.341 72.5 160.004 72.5C160.667 72.5 161.303 72.7634 161.772 73.2322C162.241 73.7011 162.504 74.337 162.504 75V85C162.504 85.663 162.241 86.2989 161.772 86.7678C161.303 87.2366 160.667 87.5 160.004 87.5C159.341 87.5 158.705 87.2366 158.236 86.7678C157.767 86.2989 157.504 85.663 157.504 85ZM170.004 87.5C170.667 87.5 171.303 87.2366 171.772 86.7678C172.241 86.2989 172.504 85.663 172.504 85V75C172.504 74.337 172.241 73.7011 171.772 73.2322C171.303 72.7634 170.667 72.5 170.004 72.5C169.341 72.5 168.705 72.7634 168.236 73.2322C167.767 73.7011 167.504 74.337 167.504 75V85C167.504 85.663 167.767 86.2989 168.236 86.7678C168.705 87.2366 169.341 87.5 170.004 87.5ZM180.004 87.5C180.667 87.5 181.303 87.2366 181.772 86.7678C182.241 86.2989 182.504 85.663 182.504 85V75C182.504 74.337 182.241 73.7011 181.772 73.2322C181.303 72.7634 180.667 72.5 180.004 72.5C179.341 72.5 178.705 72.7634 178.236 73.2322C177.767 73.7011 177.504 74.337 177.504 75V85C177.504 85.663 177.767 86.2989 178.236 86.7678C178.705 87.2366 179.341 87.5 180.004 87.5ZM209.004 102L200.004 108.75V127.5C200.004 130.152 198.95 132.696 197.075 134.571C195.2 136.446 192.656 137.5 190.004 137.5H150.004C147.352 137.5 144.808 136.446 142.933 134.571C141.057 132.696 140.004 130.152 140.004 127.5V108.75L131.004 102C130.473 101.602 130.123 101.01 130.029 100.354C129.935 99.6972 130.106 99.0304 130.504 98.5C130.902 97.9696 131.494 97.6189 132.15 97.5251C132.807 97.4314 133.473 97.6022 134.004 98L140.004 102.5V97.5C140.004 96.1739 140.531 94.9021 141.468 93.9645C142.406 93.0268 143.678 92.5 145.004 92.5H195.004C196.33 92.5 197.602 93.0268 198.539 93.9645C199.477 94.9021 200.004 96.1739 200.004 97.5V102.5L206.004 98C206.534 97.6022 207.201 97.4314 207.857 97.5251C208.514 97.6189 209.106 97.9696 209.504 98.5C209.902 99.0304 210.073 99.6972 209.979 100.354C209.885 101.01 209.534 101.602 209.004 102ZM195.004 97.5H145.004V127.5C145.004 128.826 145.531 130.098 146.468 131.036C147.406 131.973 148.678 132.5 150.004 132.5H190.004C191.33 132.5 192.602 131.973 193.539 131.036C194.477 130.098 195.004 128.826 195.004 127.5V97.5Z" fill="#10298E"/>
</svg>
