<svg width="211" height="130" viewBox="0 0 211 130" fill="none" xmlns="http://www.w3.org/2000/svg">
<path opacity="0.2" d="M46.722 18.2812L41.1132 51.1139C41.0515 51.4816 40.8898 51.8252 40.6458 52.1071C40.4018 52.389 40.085 52.5983 39.7299 52.7121C39.3749 52.8259 38.9954 52.8398 38.633 52.7523C38.2706 52.6647 37.9392 52.4791 37.6753 52.2158L12.7925 27.333C12.5292 27.0691 12.3436 26.7377 12.256 26.3753C12.1685 26.0129 12.1824 25.6334 12.2962 25.2784C12.41 24.9233 12.6193 24.6065 12.9012 24.3625C13.1831 24.1185 13.5267 23.9568 13.8944 23.8951L46.722 18.2812Z" fill="#10298E"/>
<path d="M16.2539 59.9219C16.2539 60.5245 16.0752 61.1136 15.7404 61.6146C15.4056 62.1157 14.9298 62.5062 14.373 62.7368C13.8163 62.9674 13.2037 63.0278 12.6126 62.9102C12.0216 62.7927 11.4787 62.5025 11.0526 62.0764C10.6265 61.6502 10.3363 61.1073 10.2187 60.5163C10.1011 59.9253 10.1615 59.3126 10.3921 58.7559C10.6227 58.1992 11.0132 57.7233 11.5143 57.3885C12.0153 57.0537 12.6044 56.875 13.207 56.875C14.0151 56.875 14.7901 57.196 15.3615 57.7674C15.9329 58.3388 16.2539 59.1138 16.2539 59.9219ZM21.332 48.75C20.7294 48.75 20.1403 48.9287 19.6393 49.2635C19.1382 49.5983 18.7477 50.0742 18.5171 50.6309C18.2865 51.1876 18.2261 51.8003 18.3437 52.3913C18.4613 52.9823 18.7515 53.5252 19.1776 53.9514C19.6037 54.3775 20.1466 54.6677 20.7376 54.7852C21.3287 54.9028 21.9413 54.8424 22.498 54.6118C23.0548 54.3812 23.5306 53.9907 23.8654 53.4896C24.2002 52.9886 24.3789 52.3995 24.3789 51.7969C24.3789 50.9888 24.0579 50.2138 23.4865 49.6424C22.9151 49.071 22.1401 48.75 21.332 48.75ZM5.08203 48.75C4.47942 48.75 3.89034 48.9287 3.38928 49.2635C2.88822 49.5983 2.4977 50.0742 2.26709 50.6309C2.03648 51.1876 1.97614 51.8003 2.0937 52.3913C2.21127 52.9823 2.50145 53.5252 2.92757 53.9514C3.35368 54.3775 3.89658 54.6677 4.48762 54.7852C5.07865 54.9028 5.69128 54.8424 6.24802 54.6118C6.80476 54.3812 7.28062 53.9907 7.61542 53.4896C7.95021 52.9886 8.12891 52.3995 8.12891 51.7969C8.12891 50.9888 7.8079 50.2138 7.2365 49.6424C6.6651 49.071 5.89011 48.75 5.08203 48.75ZM13.207 40.625C12.6044 40.625 12.0153 40.8037 11.5143 41.1385C11.0132 41.4733 10.6227 41.9492 10.3921 42.5059C10.1615 43.0626 10.1011 43.6753 10.2187 44.2663C10.3363 44.8573 10.6265 45.4002 11.0526 45.8264C11.4787 46.2525 12.0216 46.5427 12.6126 46.6602C13.2037 46.7778 13.8163 46.7174 14.373 46.4868C14.9298 46.2562 15.4056 45.8657 15.7404 45.3646C16.0752 44.8636 16.2539 44.2745 16.2539 43.6719C16.2539 42.8638 15.9329 42.0888 15.3615 41.5174C14.7901 40.946 14.0151 40.625 13.207 40.625ZM65.0039 10.1563C65.0039 10.695 64.7899 11.2116 64.409 11.5926C64.028 11.9735 63.5114 12.1875 62.9727 12.1875H55.6881L48.6168 19.2613L43.1172 51.4541C42.9934 52.1896 42.6695 52.8768 42.1811 53.4404C41.6926 54.0041 41.0585 54.4224 40.348 54.6495C39.6376 54.8766 38.8784 54.9037 38.1536 54.7279C37.4288 54.5522 36.7663 54.1802 36.2389 53.6529L11.3561 28.7701C10.8279 28.2422 10.4555 27.579 10.2797 26.8533C10.1039 26.1276 10.1316 25.3675 10.3596 24.6564C10.5876 23.9454 11.0071 23.3109 11.5722 22.8228C12.1372 22.3346 12.8259 22.0116 13.5625 21.8893L45.7426 16.3871L52.8164 9.31584C53.1923 8.93696 53.6397 8.63657 54.1327 8.43214C54.6257 8.22771 55.1544 8.12332 55.6881 8.12502H62.9727C63.5114 8.12502 64.028 8.33903 64.409 8.71996C64.7899 9.10089 65.0039 9.61755 65.0039 10.1563ZM44.2369 20.767L14.2227 25.8985L39.1055 50.7813L44.2369 20.767Z" fill="#10298E"/>
<path opacity="0.2" d="M119.722 18.2812L114.113 51.1139C114.052 51.4816 113.89 51.8252 113.646 52.1071C113.402 52.389 113.085 52.5983 112.73 52.7121C112.375 52.8259 111.995 52.8398 111.633 52.7523C111.271 52.6647 110.939 52.4791 110.675 52.2158L85.7925 27.333C85.5292 27.0691 85.3436 26.7377 85.256 26.3753C85.1685 26.0129 85.1824 25.6334 85.2962 25.2784C85.41 24.9233 85.6193 24.6065 85.9012 24.3625C86.1831 24.1185 86.5267 23.9568 86.8944 23.8951L119.722 18.2812Z" fill="#10298E"/>
<path d="M89.2539 59.9219C89.2539 60.5245 89.0752 61.1136 88.7404 61.6146C88.4056 62.1157 87.9298 62.5062 87.373 62.7368C86.8163 62.9674 86.2037 63.0278 85.6126 62.9102C85.0216 62.7927 84.4787 62.5025 84.0526 62.0764C83.6265 61.6502 83.3363 61.1073 83.2187 60.5163C83.1011 59.9253 83.1615 59.3126 83.3921 58.7559C83.6227 58.1992 84.0132 57.7233 84.5143 57.3885C85.0153 57.0537 85.6044 56.875 86.207 56.875C87.0151 56.875 87.7901 57.196 88.3615 57.7674C88.9329 58.3388 89.2539 59.1138 89.2539 59.9219ZM94.332 48.75C93.7294 48.75 93.1403 48.9287 92.6393 49.2635C92.1382 49.5983 91.7477 50.0742 91.5171 50.6309C91.2865 51.1876 91.2261 51.8003 91.3437 52.3913C91.4613 52.9823 91.7515 53.5252 92.1776 53.9514C92.6037 54.3775 93.1466 54.6677 93.7376 54.7852C94.3287 54.9028 94.9413 54.8424 95.498 54.6118C96.0548 54.3812 96.5306 53.9907 96.8654 53.4896C97.2002 52.9886 97.3789 52.3995 97.3789 51.7969C97.3789 50.9888 97.0579 50.2138 96.4865 49.6424C95.9151 49.071 95.1401 48.75 94.332 48.75ZM78.082 48.75C77.4794 48.75 76.8903 48.9287 76.3893 49.2635C75.8882 49.5983 75.4977 50.0742 75.2671 50.6309C75.0365 51.1876 74.9761 51.8003 75.0937 52.3913C75.2113 52.9823 75.5015 53.5252 75.9276 53.9514C76.3537 54.3775 76.8966 54.6677 77.4876 54.7852C78.0787 54.9028 78.6913 54.8424 79.248 54.6118C79.8048 54.3812 80.2806 53.9907 80.6154 53.4896C80.9502 52.9886 81.1289 52.3995 81.1289 51.7969C81.1289 50.9888 80.8079 50.2138 80.2365 49.6424C79.6651 49.071 78.8901 48.75 78.082 48.75ZM86.207 40.625C85.6044 40.625 85.0153 40.8037 84.5143 41.1385C84.0132 41.4733 83.6227 41.9492 83.3921 42.5059C83.1615 43.0626 83.1011 43.6753 83.2187 44.2663C83.3363 44.8573 83.6265 45.4002 84.0526 45.8264C84.4787 46.2525 85.0216 46.5427 85.6126 46.6602C86.2037 46.7778 86.8163 46.7174 87.373 46.4868C87.9298 46.2562 88.4056 45.8657 88.7404 45.3646C89.0752 44.8636 89.2539 44.2745 89.2539 43.6719C89.2539 42.8638 88.9329 42.0888 88.3615 41.5174C87.7901 40.946 87.0151 40.625 86.207 40.625ZM138.004 10.1563C138.004 10.695 137.79 11.2116 137.409 11.5926C137.028 11.9735 136.511 12.1875 135.973 12.1875H128.688L121.617 19.2613L116.117 51.4541C115.993 52.1896 115.67 52.8768 115.181 53.4404C114.693 54.0041 114.058 54.4224 113.348 54.6495C112.638 54.8766 111.878 54.9037 111.154 54.7279C110.429 54.5522 109.766 54.1802 109.239 53.6529L84.3561 28.7701C83.8279 28.2422 83.4555 27.579 83.2797 26.8533C83.1039 26.1276 83.1316 25.3675 83.3596 24.6564C83.5876 23.9454 84.0071 23.3109 84.5722 22.8228C85.1372 22.3346 85.8259 22.0116 86.5625 21.8893L118.743 16.3871L125.816 9.31584C126.192 8.93696 126.64 8.63657 127.133 8.43214C127.626 8.22771 128.154 8.12332 128.688 8.12502H135.973C136.511 8.12502 137.028 8.33903 137.409 8.71996C137.79 9.10089 138.004 9.61755 138.004 10.1563ZM117.237 20.767L87.2227 25.8985L112.105 50.7813L117.237 20.767Z" fill="#10298E"/>
<path opacity="0.2" d="M192.722 18.2812L187.113 51.1139C187.052 51.4816 186.89 51.8252 186.646 52.1071C186.402 52.389 186.085 52.5983 185.73 52.7121C185.375 52.8259 184.995 52.8398 184.633 52.7523C184.271 52.6647 183.939 52.4791 183.675 52.2158L158.792 27.333C158.529 27.0691 158.344 26.7377 158.256 26.3753C158.168 26.0129 158.182 25.6334 158.296 25.2784C158.41 24.9233 158.619 24.6065 158.901 24.3625C159.183 24.1185 159.527 23.9568 159.894 23.8951L192.722 18.2812Z" fill="#10298E"/>
<path d="M162.254 59.9219C162.254 60.5245 162.075 61.1136 161.74 61.6146C161.406 62.1157 160.93 62.5062 160.373 62.7368C159.816 62.9674 159.204 63.0278 158.613 62.9102C158.022 62.7927 157.479 62.5025 157.053 62.0764C156.626 61.6502 156.336 61.1073 156.219 60.5163C156.101 59.9253 156.161 59.3126 156.392 58.7559C156.623 58.1992 157.013 57.7233 157.514 57.3885C158.015 57.0537 158.604 56.875 159.207 56.875C160.015 56.875 160.79 57.196 161.361 57.7674C161.933 58.3388 162.254 59.1138 162.254 59.9219ZM167.332 48.75C166.729 48.75 166.14 48.9287 165.639 49.2635C165.138 49.5983 164.748 50.0742 164.517 50.6309C164.286 51.1876 164.226 51.8003 164.344 52.3913C164.461 52.9823 164.751 53.5252 165.178 53.9514C165.604 54.3775 166.147 54.6677 166.738 54.7852C167.329 54.9028 167.941 54.8424 168.498 54.6118C169.055 54.3812 169.531 53.9907 169.865 53.4896C170.2 52.9886 170.379 52.3995 170.379 51.7969C170.379 50.9888 170.058 50.2138 169.486 49.6424C168.915 49.071 168.14 48.75 167.332 48.75ZM151.082 48.75C150.479 48.75 149.89 48.9287 149.389 49.2635C148.888 49.5983 148.498 50.0742 148.267 50.6309C148.036 51.1876 147.976 51.8003 148.094 52.3913C148.211 52.9823 148.501 53.5252 148.928 53.9514C149.354 54.3775 149.897 54.6677 150.488 54.7852C151.079 54.9028 151.691 54.8424 152.248 54.6118C152.805 54.3812 153.281 53.9907 153.615 53.4896C153.95 52.9886 154.129 52.3995 154.129 51.7969C154.129 50.9888 153.808 50.2138 153.236 49.6424C152.665 49.071 151.89 48.75 151.082 48.75ZM159.207 40.625C158.604 40.625 158.015 40.8037 157.514 41.1385C157.013 41.4733 156.623 41.9492 156.392 42.5059C156.161 43.0626 156.101 43.6753 156.219 44.2663C156.336 44.8573 156.626 45.4002 157.053 45.8264C157.479 46.2525 158.022 46.5427 158.613 46.6602C159.204 46.7778 159.816 46.7174 160.373 46.4868C160.93 46.2562 161.406 45.8657 161.74 45.3646C162.075 44.8636 162.254 44.2745 162.254 43.6719C162.254 42.8638 161.933 42.0888 161.361 41.5174C160.79 40.946 160.015 40.625 159.207 40.625ZM211.004 10.1563C211.004 10.695 210.79 11.2116 210.409 11.5926C210.028 11.9735 209.511 12.1875 208.973 12.1875H201.688L194.617 19.2613L189.117 51.4541C188.993 52.1896 188.67 52.8768 188.181 53.4404C187.693 54.0041 187.058 54.4224 186.348 54.6495C185.638 54.8766 184.878 54.9037 184.154 54.7279C183.429 54.5522 182.766 54.1802 182.239 53.6529L157.356 28.7701C156.828 28.2422 156.456 27.579 156.28 26.8533C156.104 26.1276 156.132 25.3675 156.36 24.6564C156.588 23.9454 157.007 23.3109 157.572 22.8228C158.137 22.3346 158.826 22.0116 159.563 21.8893L191.743 16.3871L198.816 9.31584C199.192 8.93696 199.64 8.63657 200.133 8.43214C200.626 8.22771 201.154 8.12332 201.688 8.12502H208.973C209.511 8.12502 210.028 8.33903 210.409 8.71996C210.79 9.10089 211.004 9.61755 211.004 10.1563ZM190.237 20.767L160.223 25.8985L185.105 50.7813L190.237 20.767Z" fill="#10298E"/>
<path opacity="0.2" d="M97.4414 93.4375V101.562C97.4414 104.795 96.1574 107.895 93.8718 110.18C91.5862 112.466 88.4862 113.75 85.2539 113.75H52.7539C49.5216 113.75 46.4216 112.466 44.136 110.18C41.8504 107.895 40.5664 104.795 40.5664 101.562V93.4375C40.5664 92.8988 40.7804 92.3821 41.1613 92.0012C41.5423 91.6203 42.0589 91.4062 42.5977 91.4062H71.0352V101.562H87.2852V91.4062H95.4102C95.9489 91.4062 96.4655 91.6203 96.8465 92.0012C97.2274 92.3821 97.4414 92.8988 97.4414 93.4375Z" fill="#10298E"/>
<path d="M95.4102 89.3751H89.3164C89.3164 88.8364 89.1024 88.3197 88.7215 87.9388C88.3405 87.5578 87.8239 87.3438 87.2852 87.3438H71.0352C70.4964 87.3438 69.9798 87.5578 69.5988 87.9388C69.2179 88.3197 69.0039 88.8364 69.0039 89.3751H52.7539V78.2032C52.7539 77.3951 53.0749 76.6202 53.6463 76.0488C54.2177 75.4774 54.9927 75.1563 55.8008 75.1563C56.5149 75.1534 57.2089 75.3926 57.7696 75.8348C58.3304 76.277 58.7247 76.8962 58.8883 77.5913C58.9999 78.1148 59.3135 78.573 59.7611 78.8665C60.2087 79.16 60.7541 79.2649 61.2786 79.1586C61.8032 79.0522 62.2645 78.7431 62.5624 78.2984C62.8603 77.8537 62.9707 77.3095 62.8695 76.7839C62.5247 75.1675 61.6335 73.7193 60.3461 72.683C59.0586 71.6467 57.4535 71.0855 55.8008 71.0938C53.9153 71.0938 52.107 71.8429 50.7737 73.1761C49.4404 74.5094 48.6914 76.3177 48.6914 78.2032V89.3751H42.5977C41.5202 89.3751 40.4869 89.8031 39.725 90.565C38.9632 91.3268 38.5352 92.3602 38.5352 93.4376V101.563C38.5392 105.332 40.0385 108.947 42.7042 111.612C45.3698 114.278 48.9841 115.777 52.7539 115.781V119.844C52.7539 120.383 52.9679 120.899 53.3488 121.28C53.7298 121.661 54.2464 121.875 54.7852 121.875C55.3239 121.875 55.8405 121.661 56.2215 121.28C56.6024 120.899 56.8164 120.383 56.8164 119.844V115.781H81.1914V119.844C81.1914 120.383 81.4054 120.899 81.7863 121.28C82.1673 121.661 82.6839 121.875 83.2227 121.875C83.7614 121.875 84.278 121.661 84.659 121.28C85.0399 120.899 85.2539 120.383 85.2539 119.844V115.781C89.0237 115.777 92.638 114.278 95.3036 111.612C97.9693 108.947 99.4686 105.332 99.4727 101.563V93.4376C99.4727 92.3602 99.0446 91.3268 98.2828 90.565C97.5209 89.8031 96.4876 89.3751 95.4102 89.3751ZM85.2539 91.4063V99.5313H73.0664V91.4063H85.2539ZM95.4102 101.563C95.4102 102.896 95.1475 104.217 94.6371 105.449C94.1267 106.681 93.3786 107.801 92.4355 108.744C91.4924 109.687 90.3727 110.435 89.1405 110.946C87.9083 111.456 86.5876 111.719 85.2539 111.719H52.7539C50.0603 111.719 47.477 110.649 45.5724 108.744C43.6677 106.839 42.5977 104.256 42.5977 101.563V93.4376H69.0039V101.563C69.0039 102.101 69.2179 102.618 69.5988 102.999C69.9798 103.38 70.4964 103.594 71.0352 103.594H87.2852C87.8239 103.594 88.3405 103.38 88.7215 102.999C89.1024 102.618 89.3164 102.101 89.3164 101.563V93.4376H95.4102V101.563Z" fill="#10298E"/>
<path opacity="0.2" d="M170.441 93.4375V101.562C170.441 104.795 169.157 107.895 166.872 110.18C164.586 112.466 161.486 113.75 158.254 113.75H125.754C122.522 113.75 119.422 112.466 117.136 110.18C114.85 107.895 113.566 104.795 113.566 101.562V93.4375C113.566 92.8988 113.78 92.3821 114.161 92.0012C114.542 91.6203 115.059 91.4062 115.598 91.4062H144.035V101.562H160.285V91.4062H168.41C168.949 91.4062 169.466 91.6203 169.846 92.0012C170.227 92.3821 170.441 92.8988 170.441 93.4375Z" fill="#10298E"/>
<path d="M168.41 89.3751H162.316C162.316 88.8364 162.102 88.3197 161.721 87.9388C161.341 87.5578 160.824 87.3438 160.285 87.3438H144.035C143.496 87.3438 142.98 87.5578 142.599 87.9388C142.218 88.3197 142.004 88.8364 142.004 89.3751H125.754V78.2032C125.754 77.3951 126.075 76.6202 126.646 76.0488C127.218 75.4774 127.993 75.1563 128.801 75.1563C129.515 75.1534 130.209 75.3926 130.77 75.8348C131.33 76.277 131.725 76.8962 131.888 77.5913C132 78.1148 132.314 78.573 132.761 78.8665C133.209 79.16 133.754 79.2649 134.279 79.1586C134.803 79.0522 135.265 78.7431 135.562 78.2984C135.86 77.8537 135.971 77.3095 135.87 76.7839C135.525 75.1675 134.634 73.7193 133.346 72.683C132.059 71.6467 130.453 71.0855 128.801 71.0938C126.915 71.0938 125.107 71.8429 123.774 73.1761C122.44 74.5094 121.691 76.3177 121.691 78.2032V89.3751H115.598C114.52 89.3751 113.487 89.8031 112.725 90.565C111.963 91.3268 111.535 92.3602 111.535 93.4376V101.563C111.539 105.332 113.039 108.947 115.704 111.612C118.37 114.278 121.984 115.777 125.754 115.781V119.844C125.754 120.383 125.968 120.899 126.349 121.28C126.73 121.661 127.246 121.875 127.785 121.875C128.324 121.875 128.841 121.661 129.221 121.28C129.602 120.899 129.816 120.383 129.816 119.844V115.781H154.191V119.844C154.191 120.383 154.405 120.899 154.786 121.28C155.167 121.661 155.684 121.875 156.223 121.875C156.761 121.875 157.278 121.661 157.659 121.28C158.04 120.899 158.254 120.383 158.254 119.844V115.781C162.024 115.777 165.638 114.278 168.304 111.612C170.969 108.947 172.469 105.332 172.473 101.563V93.4376C172.473 92.3602 172.045 91.3268 171.283 90.565C170.521 89.8031 169.488 89.3751 168.41 89.3751ZM158.254 91.4063V99.5313H146.066V91.4063H158.254ZM168.41 101.563C168.41 102.896 168.147 104.217 167.637 105.449C167.127 106.681 166.379 107.801 165.435 108.744C164.492 109.687 163.373 110.435 162.141 110.946C160.908 111.456 159.588 111.719 158.254 111.719H125.754C123.06 111.719 120.477 110.649 118.572 108.744C116.668 106.839 115.598 104.256 115.598 101.563V93.4376H142.004V101.563C142.004 102.101 142.218 102.618 142.599 102.999C142.98 103.38 143.496 103.594 144.035 103.594H160.285C160.824 103.594 161.341 103.38 161.721 102.999C162.102 102.618 162.316 102.101 162.316 101.563V93.4376H168.41V101.563Z" fill="#10298E"/>
</svg>
