<svg width="172" height="119" viewBox="0 0 172 119" fill="none" xmlns="http://www.w3.org/2000/svg">
<path opacity="0.2" d="M51.0039 25.5C51.0039 28.8623 50.0069 32.1491 48.1389 34.9447C46.2709 37.7403 43.6159 39.9193 40.5095 41.206C37.4032 42.4926 33.9851 42.8293 30.6874 42.1734C27.3897 41.5174 24.3606 39.8983 21.9831 37.5208C19.6056 35.1433 17.9865 32.1142 17.3306 28.8165C16.6746 25.5189 17.0113 22.1007 18.298 18.9944C19.5847 15.888 21.7636 13.233 24.5592 11.365C27.3549 9.49703 30.6416 8.5 34.0039 8.5C38.5126 8.5 42.8366 10.2911 46.0247 13.4792C49.2128 16.6673 51.0039 20.9913 51.0039 25.5Z" fill="#10298E"/>
<path d="M61.3413 56.3129C57.2959 49.319 51.0617 44.304 43.7862 41.9266C47.385 39.7843 50.181 36.5198 51.7449 32.6345C53.3088 28.7493 53.5541 24.4581 52.4431 20.4199C51.3321 16.3818 48.9262 12.82 45.595 10.2815C42.2638 7.74298 38.1914 6.36816 34.0032 6.36816C29.815 6.36816 25.7426 7.74298 22.4114 10.2815C19.0802 12.82 16.6744 16.3818 15.5634 20.4199C14.4524 24.4581 14.6977 28.7493 16.2616 32.6345C17.8255 36.5198 20.6215 39.7843 24.2203 41.9266C16.9448 44.3013 10.7106 49.3163 6.6651 56.3129C6.51674 56.5548 6.41834 56.824 6.3757 57.1045C6.33305 57.385 6.34703 57.6713 6.4168 57.9463C6.48658 58.2214 6.61073 58.4797 6.78195 58.706C6.95317 58.9323 7.16797 59.122 7.41369 59.2639C7.65942 59.4059 7.93108 59.4971 8.21265 59.5324C8.49422 59.5676 8.78 59.5461 9.05312 59.4691C9.32625 59.3921 9.58118 59.2612 9.80289 59.0841C10.0246 58.907 10.2086 58.6873 10.344 58.4379C15.3484 49.7891 24.1937 44.6254 34.0032 44.6254C43.8128 44.6254 52.6581 49.7891 57.6624 58.4379C57.7979 58.6873 57.9818 58.907 58.2036 59.0841C58.4253 59.2612 58.6802 59.3921 58.9533 59.4691C59.2264 59.5461 59.5122 59.5676 59.7938 59.5324C60.0754 59.4971 60.347 59.4059 60.5927 59.2639C60.8385 59.122 61.0533 58.9323 61.2245 58.706C61.3957 58.4797 61.5199 58.2214 61.5896 57.9463C61.6594 57.6713 61.6734 57.385 61.6307 57.1045C61.5881 56.824 61.4897 56.5548 61.3413 56.3129ZM19.1282 25.5004C19.1282 22.5584 20.0006 19.6825 21.6351 17.2363C23.2696 14.7901 25.5928 12.8835 28.3108 11.7577C31.0289 10.6318 34.0197 10.3373 36.9052 10.9112C39.7907 11.4852 42.4411 12.9019 44.5214 14.9822C46.6017 17.0625 48.0184 19.713 48.5924 22.5984C49.1664 25.4839 48.8718 28.4748 47.7459 31.1928C46.6201 33.9109 44.7135 36.234 42.2673 37.8685C39.8211 39.503 36.9452 40.3754 34.0032 40.3754C30.0594 40.3712 26.2784 38.8026 23.4897 36.0139C20.701 33.2253 19.1324 29.4442 19.1282 25.5004Z" fill="#10298E"/>
<path opacity="0.2" d="M102.855 25.5C102.855 28.8623 101.858 32.1491 99.9905 34.9447C98.1225 37.7403 95.4674 39.9193 92.3611 41.206C89.2548 42.4926 85.8366 42.8293 82.5389 42.1734C79.2413 41.5174 76.2122 39.8983 73.8347 37.5208C71.4572 35.1433 69.8381 32.1142 69.1821 28.8165C68.5262 25.5189 68.8628 22.1007 70.1495 18.9944C71.4362 15.888 73.6151 13.233 76.4108 11.365C79.2064 9.49703 82.4932 8.5 85.8555 8.5C90.3642 8.5 94.6882 10.2911 97.8763 13.4792C101.064 16.6673 102.855 20.9913 102.855 25.5Z" fill="#10298E"/>
<path d="M113.193 56.3129C109.147 49.319 102.913 44.304 95.6378 41.9266C99.2365 39.7843 102.033 36.5198 103.596 32.6345C105.16 28.7493 105.406 24.4581 104.295 20.4199C103.184 16.3818 100.778 12.82 97.4466 10.2815C94.1154 7.74298 90.043 6.36816 85.8548 6.36816C81.6666 6.36816 77.5942 7.74298 74.263 10.2815C70.9318 12.82 68.5259 16.3818 67.4149 20.4199C66.3039 24.4581 66.5492 28.7493 68.1131 32.6345C69.677 36.5198 72.473 39.7843 76.0718 41.9266C68.7963 44.3013 62.5621 49.3163 58.5167 56.3129C58.3683 56.5548 58.2699 56.824 58.2273 57.1045C58.1846 57.385 58.1986 57.6713 58.2684 57.9463C58.3381 58.2214 58.4623 58.4797 58.6335 58.706C58.8047 58.9323 59.0195 59.122 59.2653 59.2639C59.511 59.4059 59.7826 59.4971 60.0642 59.5324C60.3458 59.5676 60.6316 59.5461 60.9047 59.4691C61.1778 59.3921 61.4327 59.2612 61.6545 59.0841C61.8762 58.907 62.0602 58.6873 62.1956 58.4379C67.1999 49.7891 76.0453 44.6254 85.8548 44.6254C95.6643 44.6254 104.51 49.7891 109.514 58.4379C109.649 58.6873 109.833 58.907 110.055 59.0841C110.277 59.2612 110.532 59.3921 110.805 59.4691C111.078 59.5461 111.364 59.5676 111.645 59.5324C111.927 59.4971 112.199 59.4059 112.444 59.2639C112.69 59.122 112.905 58.9323 113.076 58.706C113.247 58.4797 113.371 58.2214 113.441 57.9463C113.511 57.6713 113.525 57.385 113.482 57.1045C113.44 56.824 113.341 56.5548 113.193 56.3129ZM70.9798 25.5004C70.9798 22.5584 71.8522 19.6825 73.4867 17.2363C75.1212 14.7901 77.4443 12.8835 80.1624 11.7577C82.8804 10.6318 85.8713 10.3373 88.7568 10.9112C91.6422 11.4852 94.2927 12.9019 96.373 14.9822C98.4533 17.0625 99.87 19.713 100.444 22.5984C101.018 25.4839 100.723 28.4748 99.5975 31.1928C98.4716 33.9109 96.5651 36.234 94.1189 37.8685C91.6727 39.503 88.7968 40.3754 85.8548 40.3754C81.911 40.3712 78.1299 38.8026 75.3412 36.0139C72.5525 33.2253 70.984 29.4442 70.9798 25.5004Z" fill="#10298E"/>
<path opacity="0.2" d="M154.707 25.5C154.707 28.8623 153.71 32.1491 151.842 34.9447C149.974 37.7403 147.319 39.9193 144.213 41.206C141.106 42.4926 137.688 42.8293 134.391 42.1734C131.093 41.5174 128.064 39.8983 125.686 37.5208C123.309 35.1433 121.69 32.1142 121.034 28.8165C120.378 25.5189 120.714 22.1007 122.001 18.9944C123.288 15.888 125.467 13.233 128.262 11.365C131.058 9.49703 134.345 8.5 137.707 8.5C142.216 8.5 146.54 10.2911 149.728 13.4792C152.916 16.6673 154.707 20.9913 154.707 25.5Z" fill="#10298E"/>
<path d="M165.044 56.3129C160.999 49.319 154.765 44.304 147.489 41.9266C151.088 39.7843 153.884 36.5198 155.448 32.6345C157.012 28.7493 157.257 24.4581 156.146 20.4199C155.035 16.3818 152.629 12.82 149.298 10.2815C145.967 7.74298 141.895 6.36816 137.706 6.36816C133.518 6.36816 129.446 7.74298 126.115 10.2815C122.783 12.82 120.377 16.3818 119.267 20.4199C118.156 24.4581 118.401 28.7493 119.965 32.6345C121.529 36.5198 124.325 39.7843 127.923 41.9266C120.648 44.3013 114.414 49.3163 110.368 56.3129C110.22 56.5548 110.121 56.824 110.079 57.1045C110.036 57.385 110.05 57.6713 110.12 57.9463C110.19 58.2214 110.314 58.4797 110.485 58.706C110.656 58.9323 110.871 59.122 111.117 59.2639C111.363 59.4059 111.634 59.4971 111.916 59.5324C112.197 59.5676 112.483 59.5461 112.756 59.4691C113.029 59.3921 113.284 59.2612 113.506 59.0841C113.728 58.907 113.912 58.6873 114.047 58.4379C119.052 49.7891 127.897 44.6254 137.706 44.6254C147.516 44.6254 156.361 49.7891 161.366 58.4379C161.501 58.6873 161.685 58.907 161.907 59.0841C162.128 59.2612 162.383 59.3921 162.656 59.4691C162.93 59.5461 163.215 59.5676 163.497 59.5324C163.778 59.4971 164.05 59.4059 164.296 59.2639C164.542 59.122 164.756 58.9323 164.928 58.706C165.099 58.4797 165.223 58.2214 165.293 57.9463C165.363 57.6713 165.377 57.385 165.334 57.1045C165.291 56.824 165.193 56.5548 165.044 56.3129ZM122.831 25.5004C122.831 22.5584 123.704 19.6825 125.338 17.2363C126.973 14.7901 129.296 12.8835 132.014 11.7577C134.732 10.6318 137.723 10.3373 140.608 10.9112C143.494 11.4852 146.144 12.9019 148.225 14.9822C150.305 17.0625 151.722 19.713 152.296 22.5984C152.869 25.4839 152.575 28.4748 151.449 31.1928C150.323 33.9109 148.417 36.234 145.97 37.8685C143.524 39.503 140.648 40.3754 137.706 40.3754C133.763 40.3712 129.981 38.8026 127.193 36.0139C124.404 33.2253 122.836 29.4442 122.831 25.5004Z" fill="#10298E"/>
<path opacity="0.2" d="M102.152 76.5C102.152 79.8623 101.155 83.1491 99.2873 85.9447C97.4194 88.7403 94.7643 90.9193 91.658 92.206C88.5516 93.4926 85.1335 93.8293 81.8358 93.1734C78.5381 92.5174 75.509 90.8983 73.1315 88.5208C70.754 86.1433 69.135 83.1142 68.479 79.8165C67.8231 76.5189 68.1597 73.1007 69.4464 69.9944C70.7331 66.888 72.912 64.233 75.7077 62.365C78.5033 60.497 81.7901 59.5 85.1524 59.5C89.661 59.5 93.985 61.2911 97.1732 64.4792C100.361 67.6673 102.152 71.9913 102.152 76.5Z" fill="#10298E"/>
<path d="M112.49 107.313C108.444 100.319 102.21 95.304 94.9346 92.9266C98.5334 90.7843 101.329 87.5198 102.893 83.6345C104.457 79.7493 104.702 75.4581 103.592 71.4199C102.481 67.3818 100.075 63.82 96.7435 61.2815C93.4123 58.743 89.3399 57.3682 85.1517 57.3682C80.9635 57.3682 76.8911 58.743 73.5599 61.2815C70.2286 63.82 67.8228 67.3818 66.7118 71.4199C65.6008 75.4581 65.8461 79.7493 67.41 83.6345C68.9739 87.5198 71.7699 90.7843 75.3687 92.9266C68.0932 95.3013 61.859 100.316 57.8135 107.313C57.6652 107.555 57.5668 107.824 57.5241 108.105C57.4815 108.385 57.4955 108.671 57.5652 108.946C57.635 109.221 57.7592 109.48 57.9304 109.706C58.1016 109.932 58.3164 110.122 58.5621 110.264C58.8079 110.406 59.0795 110.497 59.3611 110.532C59.6427 110.568 59.9284 110.546 60.2016 110.469C60.4747 110.392 60.7296 110.261 60.9513 110.084C61.173 109.907 61.357 109.687 61.4924 109.438C66.4968 100.789 75.3421 95.6254 85.1517 95.6254C94.9612 95.6254 103.807 100.789 108.811 109.438C108.946 109.687 109.13 109.907 109.352 110.084C109.574 110.261 109.829 110.392 110.102 110.469C110.375 110.546 110.661 110.568 110.942 110.532C111.224 110.497 111.495 110.406 111.741 110.264C111.987 110.122 112.202 109.932 112.373 109.706C112.544 109.48 112.668 109.221 112.738 108.946C112.808 108.671 112.822 108.385 112.779 108.105C112.737 107.824 112.638 107.555 112.49 107.313ZM70.2767 76.5004C70.2767 73.5584 71.1491 70.6825 72.7835 68.2363C74.418 65.7901 76.7412 63.8835 79.4592 62.7577C82.1773 61.6318 85.1682 61.3373 88.0536 61.9112C90.9391 62.4852 93.5896 63.9019 95.6699 65.9822C97.7502 68.0625 99.1669 70.713 99.7408 73.5984C100.315 76.4839 100.02 79.4748 98.8944 82.1928C97.7685 84.9109 95.8619 87.234 93.4158 88.8685C90.9696 90.503 88.0937 91.3754 85.1517 91.3754C81.2079 91.3712 77.4268 89.8026 74.6381 87.0139C71.8494 84.2253 70.2809 80.4442 70.2767 76.5004Z" fill="#10298E"/>
<path opacity="0.2" d="M154.004 76.5C154.004 79.8623 153.007 83.1491 151.139 85.9447C149.271 88.7403 146.616 90.9193 143.51 92.206C140.403 93.4926 136.985 93.8293 133.687 93.1734C130.39 92.5174 127.361 90.8983 124.983 88.5208C122.606 86.1433 120.987 83.1142 120.331 79.8165C119.675 76.5189 120.011 73.1007 121.298 69.9944C122.585 66.888 124.764 64.233 127.559 62.365C130.355 60.497 133.642 59.5 137.004 59.5C141.513 59.5 145.837 61.2911 149.025 64.4792C152.213 67.6673 154.004 71.9913 154.004 76.5Z" fill="#10298E"/>
<path d="M164.341 107.313C160.296 100.319 154.062 95.304 146.786 92.9266C150.385 90.7843 153.181 87.5198 154.745 83.6345C156.309 79.7493 156.554 75.4581 155.443 71.4199C154.332 67.3818 151.926 63.82 148.595 61.2815C145.264 58.743 141.191 57.3682 137.003 57.3682C132.815 57.3682 128.743 58.743 125.411 61.2815C122.08 63.82 119.674 67.3818 118.563 71.4199C117.452 75.4581 117.698 79.7493 119.262 83.6345C120.825 87.5198 123.621 90.7843 127.22 92.9266C119.945 95.3013 113.711 100.316 109.665 107.313C109.517 107.555 109.418 107.824 109.376 108.105C109.333 108.385 109.347 108.671 109.417 108.946C109.487 109.221 109.611 109.48 109.782 109.706C109.953 109.932 110.168 110.122 110.414 110.264C110.659 110.406 110.931 110.497 111.213 110.532C111.494 110.568 111.78 110.546 112.053 110.469C112.326 110.392 112.581 110.261 112.803 110.084C113.025 109.907 113.209 109.687 113.344 109.438C118.348 100.789 127.194 95.6254 137.003 95.6254C146.813 95.6254 155.658 100.789 160.662 109.438C160.798 109.687 160.982 109.907 161.204 110.084C161.425 110.261 161.68 110.392 161.953 110.469C162.226 110.546 162.512 110.568 162.794 110.532C163.075 110.497 163.347 110.406 163.593 110.264C163.838 110.122 164.053 109.932 164.224 109.706C164.396 109.48 164.52 109.221 164.59 108.946C164.659 108.671 164.673 108.385 164.631 108.105C164.588 107.824 164.49 107.555 164.341 107.313ZM122.128 76.5004C122.128 73.5584 123.001 70.6825 124.635 68.2363C126.27 65.7901 128.593 63.8835 131.311 62.7577C134.029 61.6318 137.02 61.3373 139.905 61.9112C142.791 62.4852 145.441 63.9019 147.521 65.9822C149.602 68.0625 151.018 70.713 151.592 73.5984C152.166 76.4839 151.872 79.4748 150.746 82.1928C149.62 84.9109 147.714 87.234 145.267 88.8685C142.821 90.503 139.945 91.3754 137.003 91.3754C133.059 91.3712 129.278 89.8026 126.49 87.0139C123.701 84.2253 122.132 80.4442 122.128 76.5004Z" fill="#10298E"/>
<path opacity="0.2" d="M51.0039 76.5C51.0039 79.8623 50.0069 83.1491 48.1389 85.9447C46.2709 88.7403 43.6159 90.9193 40.5095 92.206C37.4032 93.4926 33.9851 93.8293 30.6874 93.1734C27.3897 92.5174 24.3606 90.8983 21.9831 88.5208C19.6056 86.1433 17.9865 83.1142 17.3306 79.8165C16.6746 76.5189 17.0113 73.1007 18.298 69.9944C19.5847 66.888 21.7636 64.233 24.5592 62.365C27.3549 60.497 30.6416 59.5 34.0039 59.5C38.5126 59.5 42.8366 61.2911 46.0247 64.4792C49.2128 67.6673 51.0039 71.9913 51.0039 76.5Z" fill="#10298E"/>
<path d="M61.3413 107.313C57.2959 100.319 51.0617 95.304 43.7862 92.9266C47.385 90.7843 50.181 87.5198 51.7449 83.6345C53.3088 79.7493 53.5541 75.4581 52.4431 71.4199C51.3321 67.3818 48.9262 63.82 45.595 61.2815C42.2638 58.743 38.1914 57.3682 34.0032 57.3682C29.815 57.3682 25.7426 58.743 22.4114 61.2815C19.0802 63.82 16.6744 67.3818 15.5634 71.4199C14.4524 75.4581 14.6977 79.7493 16.2616 83.6345C17.8255 87.5198 20.6215 90.7843 24.2203 92.9266C16.9448 95.3013 10.7106 100.316 6.6651 107.313C6.51674 107.555 6.41834 107.824 6.3757 108.105C6.33305 108.385 6.34703 108.671 6.4168 108.946C6.48658 109.221 6.61073 109.48 6.78195 109.706C6.95317 109.932 7.16797 110.122 7.41369 110.264C7.65942 110.406 7.93108 110.497 8.21265 110.532C8.49422 110.568 8.78 110.546 9.05312 110.469C9.32625 110.392 9.58118 110.261 9.80289 110.084C10.0246 109.907 10.2086 109.687 10.344 109.438C15.3484 100.789 24.1937 95.6254 34.0032 95.6254C43.8128 95.6254 52.6581 100.789 57.6624 109.438C57.7979 109.687 57.9818 109.907 58.2036 110.084C58.4253 110.261 58.6802 110.392 58.9533 110.469C59.2264 110.546 59.5122 110.568 59.7938 110.532C60.0754 110.497 60.347 110.406 60.5927 110.264C60.8385 110.122 61.0533 109.932 61.2245 109.706C61.3957 109.48 61.5199 109.221 61.5896 108.946C61.6594 108.671 61.6734 108.385 61.6307 108.105C61.5881 107.824 61.4897 107.555 61.3413 107.313ZM19.1282 76.5004C19.1282 73.5584 20.0006 70.6825 21.6351 68.2363C23.2696 65.7901 25.5928 63.8835 28.3108 62.7577C31.0289 61.6318 34.0197 61.3373 36.9052 61.9112C39.7907 62.4852 42.4411 63.9019 44.5214 65.9822C46.6017 68.0625 48.0184 70.713 48.5924 73.5984C49.1664 76.4839 48.8718 79.4748 47.7459 82.1928C46.6201 84.9109 44.7135 87.234 42.2673 88.8685C39.8211 90.503 36.9452 91.3754 34.0032 91.3754C30.0594 91.3712 26.2784 89.8026 23.4897 87.0139C20.701 84.2253 19.1324 80.4442 19.1282 76.5004Z" fill="#10298E"/>
</svg>
