<svg width="101" height="43" viewBox="0 0 101 43" fill="none" xmlns="http://www.w3.org/2000/svg">
<g clip-path="url(#clip0_7306_20680)">
<mask id="mask0_7306_20680" style="mask-type:luminance" maskUnits="userSpaceOnUse" x="0" y="-1" width="101" height="43">
<path d="M0 41.8141H101V-0.220459H0V41.8141Z" fill="white"/>
</mask>
<g mask="url(#mask0_7306_20680)">
<path d="M28.8143 19.3163C34.6752 19.3163 38.8122 15.1793 38.8122 9.54774C38.8122 3.91617 34.6752 -0.220459 28.8143 -0.220459C22.9534 -0.220459 18.8164 3.91653 18.8164 9.5481C18.8164 15.1797 22.9534 19.3163 28.8143 19.3163ZM28.8143 16.6155C24.6482 16.6155 21.7749 13.6278 21.7749 9.5481C21.7749 5.46836 24.6482 2.48065 28.8143 2.48065C32.9805 2.48065 35.8537 5.46836 35.8537 9.5481C35.8537 13.6278 32.9805 16.6155 28.8143 16.6155Z" fill="#000030"/>
<path d="M50.7655 19.3163C56.6264 19.3163 60.7634 15.1793 60.7634 9.54774C60.7634 3.91617 56.6264 -0.220459 50.7655 -0.220459C44.9046 -0.220459 40.7676 3.91653 40.7676 9.5481C40.7676 15.1797 44.9046 19.3163 50.7655 19.3163ZM50.7655 16.6155C46.5993 16.6155 43.7261 13.6278 43.7261 9.5481C43.7261 5.46836 46.5993 2.48065 50.7655 2.48065C54.9316 2.48065 57.8049 5.46836 57.8049 9.5481C57.8049 13.6278 54.9316 16.6155 50.7655 16.6155Z" fill="#000030"/>
<path d="M40.4114 35.0649C45.2459 35.0649 47.3855 32.3693 47.3855 28.7355C47.3855 25.1017 45.2463 22.4359 40.4114 22.4359H32.3828V41.5997H35.3727V36.8483L35.3556 35.9367C35.3556 35.9367 35.372 35.1663 38.9062 35.0799C39.0856 35.0751 40.4129 35.0671 40.4129 35.0671M39.3245 32.3208C35.3322 32.3208 35.3588 33.1846 35.3588 33.1846L35.3709 25.1903H40.4705C43.3422 25.1903 44.3672 26.7136 44.3672 28.7358C44.3672 30.7872 43.3422 32.3091 40.4705 32.3091C40.4705 32.3091 39.6464 32.3193 39.3245 32.3193" fill="#000030"/>
</g>
<path d="M27.8691 13.9768L32.1994 20.4722H35.5324L31.0804 13.9797L27.8691 13.9768Z" fill="#000030"/>
<mask id="mask1_7306_20680" style="mask-type:luminance" maskUnits="userSpaceOnUse" x="0" y="-1" width="101" height="43">
<path d="M0 41.8141H101V-0.220459H0V41.8141Z" fill="white"/>
</mask>
<g mask="url(#mask1_7306_20680)">
<path d="M65.7743 7.71959C65.7743 4.55905 67.8797 2.63422 71.1838 2.63422C74.488 2.63422 76.546 4.55905 76.546 7.71959V19.0958H79.4768V7.71959C79.4768 2.95035 76.2681 -0.0661621 71.1838 -0.0661621C66.1273 -0.0661621 63.0247 2.97879 63.0247 7.71959V34.027C63.0247 37.1875 60.9198 39.1124 57.6159 39.1124C54.3121 39.1124 52.2527 37.1875 52.2527 34.027V22.4448H49.3223V34.027C49.3223 38.7966 52.5309 41.8131 57.6152 41.8131C62.6718 41.8131 65.7743 38.7678 65.7743 34.027V7.71959Z" fill="#000030"/>
<path d="M16.4732 19.0679V8.00642C16.4732 3.03591 13.5088 -0.095459 8.1934 -0.095459C2.93556 -0.095459 0 3.03627 0 8.00642V19.0679H2.84404L2.83894 14.0507C2.83894 14.0507 2.89144 13.1239 6.88477 13.1239H13.5384L13.5435 19.0672L16.4732 19.0679ZM13.5384 10.3735H6.89024C2.89764 10.3735 2.84295 11.3 2.84295 11.3V8.00642C2.84295 4.61544 4.68684 2.60529 8.19194 2.60529C11.697 2.60529 13.5384 4.61654 13.5384 8.00642V10.3735Z" fill="#000030"/>
<path d="M75.684 31.8551C71.6918 31.8551 71.7191 32.6573 71.7191 32.6573L71.7096 29.3276V25.0163H76.9861C79.74 25.0163 80.6563 26.4526 80.7074 28.4153C80.7628 30.5502 79.3302 31.8807 75.684 31.8551ZM76.2834 34.569L78.1485 37.3667L80.8543 41.4261H84.4276L79.3594 34.305C82.3773 33.5437 83.7257 31.2871 83.7257 28.4153C83.7257 24.8697 81.6744 22.262 76.9569 22.262H68.7227V41.4257H71.7125V37.6406L71.7147 35.4689C71.7147 35.4689 71.7311 34.6357 75.2647 34.549C75.4441 34.5449 76.2856 34.5686 76.2856 34.5686" fill="#000030"/>
<path d="M94.9962 38.6627C94.9962 38.6627 94.1729 38.6729 93.8509 38.6729C89.8583 38.6729 89.886 39.4751 89.886 39.4751L89.8911 33.0461H99.2984V30.291H89.8911V25.0161H100.997V22.2617H86.9023V41.4255H100.997V38.6711C100.997 38.6711 97.8676 38.6627 94.9962 38.6627Z" fill="#000030"/>
</g>
</g>
<defs>
<clipPath id="clip0_7306_20680">
<rect width="101" height="42.0346" fill="white" transform="translate(0 0.036377)"/>
</clipPath>
</defs>
</svg>
