<svg width="100" height="23" viewBox="0 0 100 23" fill="none" xmlns="http://www.w3.org/2000/svg">
<path d="M98.4252 4.20456C99.1318 4.37424 99.5671 5.08461 99.3974 5.79121L96.6324 17.306C96.4627 18.0126 95.7523 18.4478 95.0457 18.2782C94.3391 18.1085 93.9038 17.3981 94.0735 16.6915L96.5314 6.45617L86.296 3.99833C85.5894 3.82865 85.1542 3.11828 85.3238 2.41168C85.4935 1.70507 86.2039 1.26981 86.9105 1.43949L98.4252 4.20456ZM1.11712 0.786285C6.4991 3.02732 12.0801 6.43745 18.0105 9.65003C23.9973 12.8931 30.4722 16.0169 37.885 17.8775C52.6249 21.5772 71.3415 20.3476 97.4306 4.36205L98.8055 6.60591C72.2293 22.8899 52.7918 24.3323 37.2443 20.4299C29.5134 18.4894 22.8112 15.2435 16.7571 11.9639C10.6466 8.65378 5.32276 5.3881 0.105535 3.21567L1.11712 0.786285Z" fill="#0DBD74"/>
</svg>
