<svg width="35" height="22" viewBox="0 0 35 22" fill="none" xmlns="http://www.w3.org/2000/svg">
<g clip-path="url(#clip0_878_96042)">
<path d="M17.3801 0C7.91012 0 0.430125 10.09 0.110125 10.52C0.0416621 10.6164 0.00488281 10.7317 0.00488281 10.85C0.00488281 10.9683 0.0416621 11.0836 0.110125 11.18C0.430125 11.61 7.90013 21.7 17.3801 21.7C26.8601 21.7 34.3801 11.61 34.6501 11.18C34.7186 11.0836 34.7554 10.9683 34.7554 10.85C34.7554 10.7317 34.7186 10.6164 34.6501 10.52C34.3801 10.08 26.8301 0 17.3801 0ZM33.4901 10.85L33.1601 11.25C31.3801 13.44 24.9101 20.58 17.3801 20.58C9.85012 20.58 3.38012 13.44 1.60012 11.25L1.27012 10.85L1.60012 10.45C3.38012 8.27 9.86012 1.13 17.3801 1.13C24.9001 1.13 31.3801 8.27 33.1601 10.46L33.4901 10.85Z" fill="black"/>
<path d="M17.3799 4.38C16.0939 4.38001 14.8368 4.76148 13.7676 5.47615C12.6985 6.19082 11.8654 7.20657 11.3737 8.39488C10.882 9.58318 10.7539 10.8906 11.0055 12.1518C11.2571 13.4129 11.8772 14.5711 12.7872 15.4797C13.6973 16.3884 14.8564 17.0067 16.1179 17.2563C17.3795 17.506 18.6867 17.3759 19.8743 16.8823C21.0618 16.3888 22.0763 15.5542 22.7893 14.4839C23.5023 13.4137 23.8819 12.156 23.8799 10.87C23.8772 9.14783 23.1912 7.4971 21.9725 6.28027C20.7538 5.06345 19.1021 4.38 17.3799 4.38ZM17.3799 16.24C16.3178 16.24 15.2796 15.9251 14.3965 15.335C13.5134 14.7449 12.8251 13.9063 12.4186 12.925C12.0122 11.9438 11.9059 10.864 12.1131 9.82237C12.3203 8.78069 12.8317 7.82385 13.5827 7.07284C14.3337 6.32183 15.2906 5.81039 16.3322 5.60319C17.3739 5.39599 18.4536 5.50233 19.4349 5.90877C20.4161 6.31521 21.2548 7.0035 21.8449 7.88659C22.4349 8.76968 22.7499 9.80792 22.7499 10.87C22.742 12.2899 22.173 13.6492 21.1671 14.6513C20.1612 15.6535 18.7998 16.2174 17.3799 16.22V16.24Z" fill="black"/>
</g>
<defs>
<clipPath id="clip0_878_96042">
<rect width="34.75" height="21.69" fill="white"/>
</clipPath>
</defs>
</svg>
