<svg width="18" height="20" viewBox="0 0 18 20" fill="none" xmlns="http://www.w3.org/2000/svg">
<mask id="path-1-inside-1_970_100919" fill="white">
<path d="M14.4722 0.561914C14.2718 0.215313 13.8986 0 13.4984 0H9.31641V4.94676H17.0083L14.4722 0.561914Z"/>
</mask>
<path d="M14.4722 0.561914C14.2718 0.215313 13.8986 0 13.4984 0H9.31641V4.94676H17.0083L14.4722 0.561914Z" fill="#A38756" stroke="#A38756" stroke-width="2" mask="url(#path-1-inside-1_970_100919)"/>
<mask id="path-2-inside-2_970_100919" fill="white">
<path d="M8.14078 0H3.9193C3.51836 0 3.1452 0.215703 2.94473 0.563086L0.417969 4.94676H8.14075V0H8.14078Z"/>
</mask>
<path d="M8.14078 0H3.9193C3.51836 0 3.1452 0.215703 2.94473 0.563086L0.417969 4.94676H8.14075V0H8.14078Z" fill="#A38756" stroke="#A38756" stroke-width="2" mask="url(#path-2-inside-2_970_100919)"/>
<mask id="path-3-inside-3_970_100919" fill="white">
<path d="M0 6V18.5027C0 19.2627 0.618593 19.8809 1.37863 19.8809H16.0388C16.7988 19.8809 17.4174 19.2627 17.4174 18.5027V6H0ZM11.3694 11.2578L8.33785 14.2894C8.22336 14.4039 8.07328 14.4614 7.92324 14.4614C7.7732 14.4614 7.62312 14.4039 7.50902 14.2894L6.08781 12.8685C5.85922 12.64 5.85922 12.2687 6.08781 12.0397C6.31679 11.8107 6.68804 11.8107 6.91703 12.0397L7.92328 13.0464L10.5407 10.429C10.7696 10.2 11.1409 10.2 11.3695 10.429C11.5985 10.658 11.5985 11.0288 11.3694 11.2578Z"/>
</mask>
<path d="M0 6V18.5027C0 19.2627 0.618593 19.8809 1.37863 19.8809H16.0388C16.7988 19.8809 17.4174 19.2627 17.4174 18.5027V6H0ZM11.3694 11.2578L8.33785 14.2894C8.22336 14.4039 8.07328 14.4614 7.92324 14.4614C7.7732 14.4614 7.62312 14.4039 7.50902 14.2894L6.08781 12.8685C5.85922 12.64 5.85922 12.2687 6.08781 12.0397C6.31679 11.8107 6.68804 11.8107 6.91703 12.0397L7.92328 13.0464L10.5407 10.429C10.7696 10.2 11.1409 10.2 11.3695 10.429C11.5985 10.658 11.5985 11.0288 11.3694 11.2578Z" fill="#A38756" stroke="#A38756" stroke-width="2" mask="url(#path-3-inside-3_970_100919)"/>
</svg>
