<svg width="50" height="50" viewBox="0 0 50 50" fill="none" xmlns="http://www.w3.org/2000/svg">
<g filter="url(#filter0_d_2624_12465)">
<rect x="1.51074" y="1" width="46.5106" height="46" rx="23" fill="white"/>
<g clip-path="url(#clip0_2624_12465)">
<path d="M36.0204 24C36.0204 17.9249 30.9812 13 24.7651 13C18.5489 13 13.5098 17.9249 13.5098 24C13.5098 29.4903 17.6257 34.0411 23.0064 34.8664V27.1797H20.1486V24H23.0064V21.5766C23.0064 18.8197 24.6868 17.2969 27.2577 17.2969C28.4888 17.2969 29.7772 17.5117 29.7772 17.5117V20.2187H28.358C26.9599 20.2187 26.5237 21.0667 26.5237 21.9375V24H29.6453L29.1463 27.1797H26.5237V34.8664C31.9045 34.0411 36.0204 29.4903 36.0204 24Z" fill="#050400"/>
<path d="M29.1471 27.1799L29.6461 24.0002H26.5245V21.9377C26.5245 21.0678 26.9606 20.219 28.3588 20.219H29.778V17.512C29.778 17.512 28.49 17.2971 27.2585 17.2971C24.6876 17.2971 23.0072 18.8199 23.0072 21.5768V24.0002H20.1494V27.1799H23.0072V34.8666C24.1726 35.0448 25.3592 35.0448 26.5245 34.8666V27.1799H29.1471Z" fill="white"/>
</g>
</g>
<defs>
<filter id="filter0_d_2624_12465" x="0.119438" y="0.304348" width="49.2934" height="48.7826" filterUnits="userSpaceOnUse" color-interpolation-filters="sRGB">
<feFlood flood-opacity="0" result="BackgroundImageFix"/>
<feColorMatrix in="SourceAlpha" type="matrix" values="0 0 0 0 0 0 0 0 0 0 0 0 0 0 0 0 0 0 127 0" result="hardAlpha"/>
<feOffset dy="0.695652"/>
<feGaussianBlur stdDeviation="0.695652"/>
<feColorMatrix type="matrix" values="0 0 0 0 0.0627451 0 0 0 0 0.0941176 0 0 0 0 0.156863 0 0 0 0.05 0"/>
<feBlend mode="normal" in2="BackgroundImageFix" result="effect1_dropShadow_2624_12465"/>
<feBlend mode="normal" in="SourceGraphic" in2="effect1_dropShadow_2624_12465" result="shape"/>
</filter>
<clipPath id="clip0_2624_12465">
<rect width="22.5106" height="22" fill="white" transform="translate(13.5107 13)"/>
</clipPath>
</defs>
</svg>
