<svg width="50" height="50" viewBox="0 0 50 50" fill="none" xmlns="http://www.w3.org/2000/svg">
<g filter="url(#filter0_d_2624_12459)">
<rect x="2" y="1" width="46.5106" height="46" rx="23" fill="white"/>
<path fill-rule="evenodd" clip-rule="evenodd" d="M33.6973 20.0217V20.3334C33.6981 21.3106 33.2997 22.2478 32.5906 22.9367L29.9456 25.5308C29.4521 26.0085 28.657 26.0085 28.1636 25.5308L28.0698 25.43C27.891 25.2518 27.891 24.9665 28.0698 24.7883L31.2962 21.6351C31.6405 21.2861 31.8293 20.8181 31.8215 20.3334V20.0217C31.8218 19.5331 31.6227 19.0646 31.2681 18.7201L30.6584 18.1243C30.3059 17.7777 29.8265 17.583 29.3265 17.5834H29.0076C28.5077 17.583 28.0283 17.7777 27.6758 18.1243L24.4493 21.2501C24.267 21.4248 23.9751 21.4248 23.7928 21.2501L23.6896 21.1492C23.2008 20.6669 23.2008 19.8899 23.6896 19.4076L26.344 16.8043C27.0535 16.1213 28.0118 15.7421 29.0076 15.7501H29.3265C30.3219 15.7494 31.2767 16.1352 31.9809 16.8226L32.5999 17.4276C33.3033 18.1158 33.6981 19.049 33.6973 20.0217ZM22.1138 25.7783L27.0755 20.9292C27.1635 20.8425 27.2834 20.7937 27.4084 20.7937C27.5335 20.7937 27.6533 20.8425 27.7414 20.9292L28.398 21.5709C28.4867 21.657 28.5367 21.7741 28.5367 21.8963C28.5367 22.0185 28.4867 22.1357 28.398 22.2218L23.4362 27.0708C23.3482 27.1576 23.2283 27.2064 23.1033 27.2064C22.9783 27.2064 22.8584 27.1576 22.7703 27.0708L22.1138 26.4292C22.025 26.3431 21.9751 26.2259 21.9751 26.1037C21.9751 25.9816 22.025 25.8644 22.1138 25.7783ZM26.719 26.75C26.5367 26.5753 26.2448 26.5753 26.0625 26.75L22.8454 29.8758C22.4906 30.2246 22.0073 30.4194 21.5041 30.4166H21.1852C20.6853 30.417 20.2058 30.2223 19.8534 29.8758L19.2437 29.28C18.8891 28.9355 18.6899 28.4669 18.6903 27.9783V27.6667C18.6899 27.178 18.8891 26.7095 19.2437 26.365L22.4514 23.2117C22.6302 23.0335 22.6302 22.7483 22.4514 22.57L22.3483 22.4692C21.8548 21.9915 21.0597 21.9915 20.5662 22.4692L17.9212 25.0633C17.2121 25.7523 16.8137 26.6894 16.8145 27.6667V27.9875C16.8162 28.9571 17.2107 29.8865 17.9118 30.5724L18.5309 31.1774C19.2351 31.8649 20.1899 32.2507 21.1852 32.2499H21.5041C22.4922 32.2556 23.4426 31.88 24.1491 31.2049L26.8222 28.5925C27.311 28.1101 27.311 27.3331 26.8222 26.8508L26.719 26.75Z" fill="#050400"/>
</g>
<defs>
<filter id="filter0_d_2624_12459" x="0.608696" y="0.304348" width="49.2934" height="48.7826" filterUnits="userSpaceOnUse" color-interpolation-filters="sRGB">
<feFlood flood-opacity="0" result="BackgroundImageFix"/>
<feColorMatrix in="SourceAlpha" type="matrix" values="0 0 0 0 0 0 0 0 0 0 0 0 0 0 0 0 0 0 127 0" result="hardAlpha"/>
<feOffset dy="0.695652"/>
<feGaussianBlur stdDeviation="0.695652"/>
<feColorMatrix type="matrix" values="0 0 0 0 0.0627451 0 0 0 0 0.0941176 0 0 0 0 0.156863 0 0 0 0.05 0"/>
<feBlend mode="normal" in2="BackgroundImageFix" result="effect1_dropShadow_2624_12459"/>
<feBlend mode="normal" in="SourceGraphic" in2="effect1_dropShadow_2624_12459" result="shape"/>
</filter>
</defs>
</svg>
