<svg width="50" height="50" viewBox="0 0 50 50" fill="none" xmlns="http://www.w3.org/2000/svg">
<g filter="url(#filter0_d_2624_12469)">
<rect x="2.02148" y="1" width="46.5106" height="46" rx="23" fill="white"/>
<g clip-path="url(#clip0_2624_12469)">
<path d="M34.8724 13.0002H15.6852C15.2444 13.0002 14.8218 13.1713 14.5101 13.4759C14.1985 13.7805 14.0234 14.1936 14.0234 14.6243V33.3762C14.0234 33.8069 14.1985 34.22 14.5101 34.5246C14.8218 34.8291 15.2444 35.0002 15.6852 35.0002H34.8724C35.3131 35.0002 35.7357 34.8291 36.0474 34.5246C36.359 34.22 36.5341 33.8069 36.5341 33.3762V14.6243C36.5341 14.1936 36.359 13.7805 36.0474 13.4759C35.7357 13.1713 35.3131 13.0002 34.8724 13.0002ZM20.7329 31.7415H17.3484V21.235H20.7329V31.7415ZM19.0383 19.779C18.6544 19.7769 18.2797 19.6637 17.9616 19.4537C17.6435 19.2436 17.3961 18.9462 17.2508 18.599C17.1054 18.2517 17.0686 17.8701 17.1449 17.5024C17.2213 17.1347 17.4074 16.7973 17.6797 16.5329C17.952 16.2684 18.2984 16.0887 18.6751 16.0165C19.0519 15.9443 19.442 15.9827 19.7964 16.127C20.1508 16.2713 20.4535 16.5149 20.6664 16.8272C20.8792 17.1394 20.9927 17.5063 20.9924 17.8815C20.996 18.1327 20.9478 18.382 20.8507 18.6146C20.7537 18.8473 20.6097 19.0584 20.4273 19.2355C20.245 19.4125 20.028 19.5519 19.7894 19.6453C19.5507 19.7387 19.2953 19.7841 19.0383 19.779ZM33.2075 31.7507H29.8247V26.0108C29.8247 24.318 29.0884 23.7955 28.1379 23.7955C27.1343 23.7955 26.1495 24.535 26.1495 26.0536V31.7507H22.7651V21.2426H26.0197V22.6986H26.0635C26.3902 22.0523 27.5345 20.9477 29.2807 20.9477C31.169 20.9477 33.2091 22.0432 33.2091 25.2515L33.2075 31.7507Z" fill="#050400"/>
</g>
</g>
<defs>
<filter id="filter0_d_2624_12469" x="0.63018" y="0.304348" width="49.2934" height="48.7826" filterUnits="userSpaceOnUse" color-interpolation-filters="sRGB">
<feFlood flood-opacity="0" result="BackgroundImageFix"/>
<feColorMatrix in="SourceAlpha" type="matrix" values="0 0 0 0 0 0 0 0 0 0 0 0 0 0 0 0 0 0 127 0" result="hardAlpha"/>
<feOffset dy="0.695652"/>
<feGaussianBlur stdDeviation="0.695652"/>
<feColorMatrix type="matrix" values="0 0 0 0 0.0627451 0 0 0 0 0.0941176 0 0 0 0 0.156863 0 0 0 0.05 0"/>
<feBlend mode="normal" in2="BackgroundImageFix" result="effect1_dropShadow_2624_12469"/>
<feBlend mode="normal" in="SourceGraphic" in2="effect1_dropShadow_2624_12469" result="shape"/>
</filter>
<clipPath id="clip0_2624_12469">
<rect width="22.5106" height="22" fill="white" transform="translate(14.0215 13)"/>
</clipPath>
</defs>
</svg>
