<?xml version="1.0" encoding="UTF-8"?>
<svg id="Ebene_1" data-name="Ebene 1" xmlns="http://www.w3.org/2000/svg" xmlns:rdf="http://www.w3.org/1999/02/22-rdf-syntax-ns#" xmlns:dc="http://purl.org/dc/elements/1.1/" xmlns:cc="http://creativecommons.org/ns#" version="1.1" viewBox="0 0 606 72">
  <defs>
    <style>
      .cls-1 {
        fill: #fff;
        stroke-width: 0px;
      }
    </style>
  </defs>
  <path class="cls-1" d="M6.6,8v55.9h51.6c7.1,0,12.9-5.8,12.9-12.9v-4.2c0-7.2-5.8-12.9-12.9-12.9,7.1,0,12.9-5.8,12.9-12.9s-5.8-12.9-12.9-12.9H6.6ZM81.8,8v38.8c0,0,17.2,0,17.2,0V8h-17.2ZM153.9,8c-7.1,0-12.9,5.8-12.9,12.9l-.2,30.1c0,7.2,5.8,12.9,12.9,12.9h38.8c7.1,0,12.9-5.8,12.9-12.9v-30.1c0-7.2-5.7-12.9-12.8-12.9h-38.8ZM229.5,8c-7.1,0-12.9,5.8-12.9,12.9l-.2,30.1c0,7.2,5.8,12.9,12.9,12.9h38.8c7.1,0,12.9-5.8,12.9-12.9v-8.6h-17.2v8.6h-30.1v-25.8l-8.6-4.2h38.8v8.6h17.2v-8.6c0-7.2-5.8-12.9-12.9-12.9h-38.8ZM292.2,8v55.9h17.2v-21.5l3.2-2.9,18.3,24.4h17.3l-25.2-33.6,25.2-22.4h-17.2l-21.5,19.1V8h-17.3ZM356.1,8v55.9h17.2v-27.3l8.6,14.3h17.3l8.6-14.3v27.3h17.2V8c0,0-17.1,0-17.1,0l-17.3,28.7-17.2-28.7h-17.3ZM437.4,8v55.9h17.2V8c0,0-17.2,0-17.2,0ZM467.1,8v55.9h17.2V28.4l30.1,35.6h17.2V8c0,0-17.1,0-17.1,0v35.6l-30.1-35.6h-17.3ZM556.3,8c-7.1,0-12.9,5.8-12.9,12.9v30.1c0,7.2,5.7,12.9,12.8,12.9h43.1v-12.9h-38.8v-30.1h38.8v-12.9h-43.1ZM15.2,21h38.8v8.6h-30.1v-4.3c0,0-8.6-4.2-8.6-4.2ZM149.6,21h38.8v30.1h-30.2v-25.8l-8.6-4.2ZM568.1,29.5c0,7.1,5.7,12.9,12.8,12.9h9.8v-12.9c0,0-22.6,0-22.6,0ZM15.1,42.5h38.8v8.6h-30.1v-4.2l-8.6-4.3ZM94.5,51c-7.1,0-12.8,5.8-12.9,12.9h51.6v-12.9h-38.8Z"/>
</svg>