<svg width="23" height="22" viewBox="0 0 23 22" fill="none" xmlns="http://www.w3.org/2000/svg">
<g id="local_mall">
<mask id="mask0_2624_19927" style="mask-type:alpha" maskUnits="userSpaceOnUse" x="0" y="0" width="23" height="22">
<rect id="Bounding box" x="0.429688" width="22" height="22" fill="#D9D9D9"/>
</mask>
<g mask="url(#mask0_2624_19927)">
<path id="local_mall_2" d="M5.01302 20.1672C4.50885 20.1672 4.07726 19.9877 3.71823 19.6287C3.3592 19.2697 3.17969 18.8381 3.17969 18.3339V7.3339C3.17969 6.82974 3.3592 6.39814 3.71823 6.03911C4.07726 5.68008 4.50885 5.50057 5.01302 5.50057H6.84635C6.84635 4.23251 7.29323 3.15161 8.18698 2.25786C9.08073 1.36411 10.1616 0.917236 11.4297 0.917236C12.6977 0.917236 13.7786 1.36411 14.6724 2.25786C15.5661 3.15161 16.013 4.23251 16.013 5.50057H17.8464C18.3505 5.50057 18.7821 5.68008 19.1411 6.03911C19.5002 6.39814 19.6797 6.82974 19.6797 7.3339V18.3339C19.6797 18.8381 19.5002 19.2697 19.1411 19.6287C18.7821 19.9877 18.3505 20.1672 17.8464 20.1672H5.01302ZM5.01302 18.3339H17.8464V7.3339H5.01302V18.3339ZM11.4297 12.8339C12.6977 12.8339 13.7786 12.387 14.6724 11.4933C15.5661 10.5995 16.013 9.51863 16.013 8.25057H14.1797C14.1797 9.01446 13.9123 9.66376 13.3776 10.1985C12.8429 10.7332 12.1936 11.0006 11.4297 11.0006C10.6658 11.0006 10.0165 10.7332 9.48177 10.1985C8.94705 9.66376 8.67969 9.01446 8.67969 8.25057H6.84635C6.84635 9.51863 7.29323 10.5995 8.18698 11.4933C9.08073 12.387 10.1616 12.8339 11.4297 12.8339ZM8.67969 5.50057H14.1797C14.1797 4.73668 13.9123 4.08738 13.3776 3.55265C12.8429 3.01793 12.1936 2.75057 11.4297 2.75057C10.6658 2.75057 10.0165 3.01793 9.48177 3.55265C8.94705 4.08738 8.67969 4.73668 8.67969 5.50057Z" fill="#050400"/>
</g>
</g>
</svg>
