<svg width="18" height="19" viewBox="0 0 18 19" fill="none" xmlns="http://www.w3.org/2000/svg">
<path d="M16.3491 6.16021L7.34912 15.1602C7.27073 15.2389 7.17759 15.3013 7.07503 15.3439C6.97247 15.3865 6.86251 15.4084 6.75146 15.4084C6.64041 15.4084 6.53046 15.3865 6.4279 15.3439C6.32534 15.3013 6.23219 15.2389 6.15381 15.1602L2.21631 11.2227C2.13782 11.1442 2.07556 11.0511 2.03309 10.9485C1.99061 10.846 1.96875 10.7361 1.96875 10.6251C1.96875 10.5141 1.99061 10.4042 2.03309 10.3016C2.07556 10.1991 2.13782 10.1059 2.21631 10.0274C2.29479 9.94892 2.38797 9.88666 2.49051 9.84418C2.59306 9.80171 2.70297 9.77984 2.81396 9.77984C2.92496 9.77984 3.03487 9.80171 3.13741 9.84418C3.23996 9.88666 3.33313 9.94892 3.41162 10.0274L6.75217 13.3679L15.1552 4.96631C15.3137 4.8078 15.5287 4.71875 15.7529 4.71875C15.977 4.71875 16.192 4.8078 16.3505 4.96631C16.509 5.12482 16.5981 5.3398 16.5981 5.56396C16.5981 5.78813 16.509 6.00311 16.3505 6.16162L16.3491 6.16021Z" fill="white"/>
</svg>
