<svg width="19" height="19" viewBox="0 0 19 19" fill="none" xmlns="http://www.w3.org/2000/svg">
<path d="M15.832 3.16667H3.16536C2.29453 3.16667 1.58203 3.87917 1.58203 4.75V14.25C1.58203 15.1208 2.29453 15.8333 3.16536 15.8333H15.832C16.7029 15.8333 17.4154 15.1208 17.4154 14.25V4.75C17.4154 3.87917 16.7029 3.16667 15.832 3.16667ZM15.832 14.25H3.16536V4.75H15.832V14.25ZM3.16536 0H15.832V1.58333H3.16536V0ZM3.16536 17.4167H15.832V19H3.16536V17.4167ZM9.4987 9.5C10.5912 9.5 11.4779 8.61333 11.4779 7.52083C11.4779 6.42833 10.5912 5.54167 9.4987 5.54167C8.4062 5.54167 7.51953 6.42833 7.51953 7.52083C7.51953 8.61333 8.4062 9.5 9.4987 9.5ZM9.4987 6.72917C9.93412 6.72917 10.2904 7.08542 10.2904 7.52083C10.2904 7.95625 9.93412 8.3125 9.4987 8.3125C9.06328 8.3125 8.70703 7.95625 8.70703 7.52083C8.70703 7.08542 9.06328 6.72917 9.4987 6.72917ZM13.457 12.6588C13.457 11.0042 10.8366 10.2917 9.4987 10.2917C8.16078 10.2917 5.54036 11.0042 5.54036 12.6588V13.4583H13.457V12.6588ZM6.97328 12.2708C7.4562 11.8592 8.58037 11.4792 9.4987 11.4792C10.4249 11.4792 11.5491 11.8592 12.032 12.2708H6.97328Z" fill="#A38756"/>
</svg>
