<svg width="32" height="33" viewBox="0 0 32 33" fill="none" xmlns="http://www.w3.org/2000/svg">
<mask id="mask0_7306_20404" style="mask-type:alpha" maskUnits="userSpaceOnUse" x="0" y="0" width="32" height="33">
<rect y="0.568848" width="32" height="32" fill="#D9D9D9"/>
</mask>
<g mask="url(#mask0_7306_20404)">
<path d="M5.33203 28.569V16.069L2.93203 17.9023L1.33203 15.769L5.33203 12.7023V8.56901H7.9987V10.669L15.9987 4.56901L30.6654 15.769L29.0654 17.869L26.6654 16.069V28.569H5.33203ZM7.9987 25.9023H14.6654V20.569H17.332V25.9023H23.9987V14.0357L15.9987 7.93568L7.9987 14.0357V25.9023ZM5.33203 7.23568C5.33203 6.12457 5.72092 5.18012 6.4987 4.40234C7.27648 3.62457 8.22092 3.23568 9.33203 3.23568C9.70981 3.23568 10.0265 3.1079 10.282 2.85234C10.5376 2.59679 10.6654 2.28012 10.6654 1.90234H13.332C13.332 3.01345 12.9431 3.9579 12.1654 4.73568C11.3876 5.51345 10.4431 5.90234 9.33203 5.90234C8.95425 5.90234 8.63759 6.03012 8.38203 6.28568C8.12648 6.54123 7.9987 6.8579 7.9987 7.23568H5.33203Z" fill="#000030"/>
</g>
</svg>
