<svg width="40" height="40" viewBox="0 0 40 40" fill="none" xmlns="http://www.w3.org/2000/svg">
<mask id="mask0_7306_24555" style="mask-type:alpha" maskUnits="userSpaceOnUse" x="0" y="0" width="40" height="40">
<rect width="40" height="40" fill="#D9D9D9"/>
</mask>
<g mask="url(#mask0_7306_24555)">
<path d="M13.75 29.5821H26.2499V27.0822H13.75V29.5821ZM13.75 22.9154H26.2499V20.4155H13.75V22.9154ZM10.5128 35.8321C9.67094 35.8321 8.95833 35.5404 8.375 34.9571C7.79167 34.3738 7.5 33.6612 7.5 32.8193V7.17836C7.5 6.33647 7.79167 5.62386 8.375 5.04053C8.95833 4.45719 9.67094 4.16553 10.5128 4.16553H23.75L32.4999 12.9154V32.8193C32.4999 33.6612 32.2083 34.3738 31.6249 34.9571C31.0416 35.5404 30.329 35.8321 29.4871 35.8321H10.5128ZM22.5 14.1654V6.66549H10.5128C10.3846 6.66549 10.2671 6.7189 10.1602 6.82574C10.0534 6.9326 9.99996 7.05014 9.99996 7.17836V32.8193C9.99996 32.9475 10.0534 33.065 10.1602 33.1719C10.2671 33.2787 10.3846 33.3322 10.5128 33.3322H29.4871C29.6153 33.3322 29.7328 33.2787 29.8397 33.1719C29.9465 33.065 30 32.9475 30 32.8193V14.1654H22.5Z" fill="#1C1B1F"/>
</g>
</svg>
