<svg width="80" height="80" viewBox="0 0 80 80" fill="none" xmlns="http://www.w3.org/2000/svg">
<path opacity="0.2" d="M65 45C65 51.6304 62.3661 57.9893 57.6777 62.6777C52.9893 67.3661 46.6304 70 40 70C33.3696 70 27.0107 67.3661 22.3223 62.6777C17.6339 57.9893 15 51.6304 15 45C15 35.4469 19.5063 26.7937 24.6875 20L35 30L43.2094 7.5C49.9563 13.1 65 27.5469 65 45Z" fill="#10298E"/>
<path d="M57.4656 47.9182C56.8174 51.5392 55.0753 54.8746 52.4739 57.4754C49.8725 60.0763 46.5367 61.8176 42.9156 62.4651C42.7782 62.4871 42.6392 62.4986 42.5 62.4995C41.8729 62.4993 41.2688 62.2635 40.8074 61.8388C40.346 61.414 40.0611 60.8314 40.0092 60.2065C39.9573 59.5815 40.1422 58.9599 40.5271 58.4648C40.9121 57.9698 41.469 57.6375 42.0875 57.5339C47.2656 56.662 51.6594 52.2682 52.5375 47.0807C52.6486 46.4268 53.0148 45.8438 53.5558 45.4599C54.0967 45.0761 54.768 44.9228 55.4219 45.0339C56.0758 45.1449 56.6588 45.5112 57.0427 46.0521C57.4265 46.5931 57.5798 47.2643 57.4687 47.9182H57.4656ZM67.5 44.9995C67.5 52.2929 64.6027 59.2877 59.4454 64.4449C54.2882 69.6022 47.2935 72.4995 40 72.4995C32.7065 72.4995 25.7118 69.6022 20.5546 64.4449C15.3973 59.2877 12.5 52.2929 12.5 44.9995C12.5 36.2745 15.9375 27.3526 22.7063 18.4839C22.9205 18.203 23.1918 17.9708 23.5024 17.8025C23.8129 17.6341 24.1556 17.5335 24.5078 17.5072C24.8601 17.481 25.2139 17.5296 25.546 17.65C25.878 17.7704 26.1808 17.9598 26.4344 18.2057L33.9719 25.5214L40.8469 6.64324C40.9842 6.26672 41.2101 5.92875 41.5054 5.6578C41.8008 5.38686 42.1569 5.19089 42.5438 5.08642C42.9308 4.98195 43.3372 4.97204 43.7287 5.05753C44.1203 5.14302 44.4856 5.32139 44.7937 5.57762C51.6281 11.2495 67.5 26.4214 67.5 44.9995ZM62.5 44.9995C62.5 30.5964 51.3156 18.1495 44.3094 11.7714L37.35 30.8557C37.2072 31.2477 36.9685 31.5977 36.6558 31.8738C36.3431 32.15 35.9662 32.3434 35.5596 32.4366C35.1529 32.5298 34.7294 32.5198 34.3277 32.4074C33.9259 32.295 33.5587 32.0839 33.2594 31.7932L25.0187 23.7995C20.0281 31.0026 17.5 38.1245 17.5 44.9995C17.5 50.9669 19.8705 56.6898 24.0901 60.9094C28.3097 65.129 34.0326 67.4995 40 67.4995C45.9674 67.4995 51.6903 65.129 55.9099 60.9094C60.1295 56.6898 62.5 50.9669 62.5 44.9995Z" fill="#10298E"/>
</svg>
