<svg width="24" height="17" viewBox="0 0 24 17" fill="none" xmlns="http://www.w3.org/2000/svg">
<rect x="0.736328" y="0.707031" width="22.8022" height="15.5055" rx="1.82418" fill="#FFCC02"/>
<g clip-path="url(#clip0_7306_36859)">
<path d="M2.56055 9.49756H5.15081L5.00931 9.74578H2.56055V9.49756Z" fill="#D40511"/>
<path d="M2.56055 9.03711H5.41398L5.27218 9.28483H2.56055V9.03711Z" fill="#D40511"/>
<path d="M2.56055 9.95801H4.88784L4.74692 10.2045H2.56055V9.95801Z" fill="#D40511"/>
<path d="M21.7139 9.74553H19.1338L19.2752 9.49756H21.7139V9.74553Z" fill="#D40511"/>
<path d="M21.7146 10.2045L18.8721 10.2047L19.0129 9.95801H21.7146V10.2045Z" fill="#D40511"/>
<path d="M19.538 9.03711H21.7138V9.28508L19.3965 9.28521L19.538 9.03711Z" fill="#D40511"/>
<path d="M5.06885 10.2044L6.29801 8.05225H7.8233C7.99189 8.05225 7.98968 8.13473 7.90734 8.27862C7.82367 8.4247 7.68128 8.67591 7.59605 8.82421C7.5528 8.89955 7.47457 9.03681 7.73373 9.03681H9.77714C9.6072 9.33681 9.05594 10.2044 8.06617 10.2044H5.06885Z" fill="#D40511"/>
<path d="M12.1084 9.03711L11.4419 10.2048H9.68359C9.68359 10.2048 10.3498 9.03729 10.3504 9.03729L12.1084 9.03711Z" fill="#D40511"/>
<path d="M14.651 9.03711L13.9842 10.2047H12.2266C12.2266 10.2047 12.8928 9.03711 12.8934 9.03711H14.651Z" fill="#D40511"/>
<path d="M15.2236 9.03722C15.2236 9.03722 15.0952 9.26358 15.0327 9.37221C14.8119 9.75675 15.0071 10.2047 15.7276 10.2047H18.5504L19.2172 9.03711L15.2236 9.03722Z" fill="#D40511"/>
<path d="M5.92934 6.71436L5.31738 7.78581H8.65259C8.82115 7.78581 8.81894 7.8683 8.73655 8.01218C8.65288 8.15811 8.51282 8.4122 8.42761 8.5605C8.38434 8.63567 8.30612 8.77292 8.56529 8.77292H9.92916C9.92916 8.77292 10.149 8.38736 10.3333 8.06508C10.584 7.62663 10.355 6.71436 9.45878 6.71436L5.92934 6.71436Z" fill="#D40511"/>
<path d="M14.8025 8.77292H10.502L11.678 6.71436H13.4356L12.7617 7.89464H13.5462L14.2206 6.71436H15.9781L14.8025 8.77292Z" fill="#D40511"/>
<path d="M18.4123 6.71436L17.2366 8.77292H15.374C15.374 8.77292 16.5502 6.71436 16.5508 6.71436H18.4123Z" fill="#D40511"/>
</g>
<defs>
<clipPath id="clip0_7306_36859">
<rect width="19.1538" height="3.49075" fill="white" transform="translate(2.56055 6.71436)"/>
</clipPath>
</defs>
</svg>
