<svg width="20" height="21" viewBox="0 0 20 21" fill="none" xmlns="http://www.w3.org/2000/svg">
<mask id="mask0_7192_4659" style="mask-type:alpha" maskUnits="userSpaceOnUse" x="0" y="0" width="20" height="21">
<rect y="0.0532227" width="20" height="20" fill="#D9D9D9"/>
</mask>
<g mask="url(#mask0_7192_4659)">
<path d="M9.99967 13.3867L5.83301 9.22005L6.99967 8.01172L9.16634 10.1784V3.38672H10.833V10.1784L12.9997 8.01172L14.1663 9.22005L9.99967 13.3867ZM4.99967 16.7201C4.54134 16.7201 4.14898 16.5569 3.82259 16.2305C3.4962 15.9041 3.33301 15.5117 3.33301 15.0534V12.5534H4.99967V15.0534H14.9997V12.5534H16.6663V15.0534C16.6663 15.5117 16.5031 15.9041 16.1768 16.2305C15.8504 16.5569 15.458 16.7201 14.9997 16.7201H4.99967Z" fill="#000030"/>
</g>
</svg>
