<svg width="80" height="80" viewBox="0 0 80 80" fill="none" xmlns="http://www.w3.org/2000/svg">
<path opacity="0.2" d="M67.5 36.1062V67.5H47.5V50C47.5 49.3369 47.2366 48.701 46.7678 48.2322C46.2989 47.7633 45.663 47.5 45 47.5H35C34.337 47.5 33.7011 47.7633 33.2322 48.2322C32.7634 48.701 32.5 49.3369 32.5 50V67.5H12.5V36.1062C12.5 35.7578 12.5729 35.4133 12.7139 35.0947C12.8549 34.7761 13.0609 34.4905 13.3187 34.2562L38.3188 10.65C38.7791 10.231 39.3791 9.99878 40.0016 9.99878C40.624 9.99878 41.2241 10.231 41.6844 10.65L66.6844 34.2562C66.9417 34.4908 67.1471 34.7765 67.2876 35.0951C67.428 35.4136 67.5004 35.758 67.5 36.1062Z" fill="#10298E"/>
<path d="M75 65.0001H70V36.1094C70.0001 35.4174 69.8566 34.7329 69.5785 34.0993C69.3004 33.4656 68.8938 32.8966 68.3844 32.4282L43.3844 8.84068C43.3721 8.83002 43.3607 8.81853 43.35 8.80631C42.4296 7.96922 41.2301 7.50537 39.9859 7.50537C38.7418 7.50537 37.5423 7.96922 36.6219 8.80631L36.5875 8.84068L11.6156 32.4282C11.1062 32.8966 10.6996 33.4656 10.4215 34.0993C10.1434 34.7329 9.99989 35.4174 10 36.1094V65.0001H5C4.33696 65.0001 3.70107 65.2634 3.23223 65.7323C2.76339 66.2011 2.5 66.837 2.5 67.5001C2.5 68.1631 2.76339 68.799 3.23223 69.2678C3.70107 69.7367 4.33696 70.0001 5 70.0001H75C75.663 70.0001 76.2989 69.7367 76.7678 69.2678C77.2366 68.799 77.5 68.1631 77.5 67.5001C77.5 66.837 77.2366 66.2011 76.7678 65.7323C76.2989 65.2634 75.663 65.0001 75 65.0001ZM15 36.1094L15.0344 36.0782L40 12.5001L64.9688 36.0719L65.0031 36.1032V65.0001H50V50.0001C50 48.674 49.4732 47.4022 48.5355 46.4645C47.5979 45.5268 46.3261 45.0001 45 45.0001H35C33.6739 45.0001 32.4021 45.5268 31.4645 46.4645C30.5268 47.4022 30 48.674 30 50.0001V65.0001H15V36.1094ZM45 65.0001H35V50.0001H45V65.0001Z" fill="#10298E"/>
</svg>
