<svg width="80" height="80" viewBox="0 0 80 80" fill="none" xmlns="http://www.w3.org/2000/svg">
<path opacity="0.2" d="M42.5 9.99977V67.4998H12.5V26.6716C12.4997 26.26 12.6011 25.8546 12.7952 25.4915C12.9893 25.1284 13.27 24.8189 13.6125 24.5904L38.6125 7.92477C38.9886 7.67381 39.4258 7.52957 39.8775 7.5074C40.3291 7.48524 40.7783 7.58598 41.1772 7.79891C41.5761 8.01183 41.9098 8.32896 42.1428 8.71653C42.3757 9.1041 42.4992 9.54759 42.5 9.99977Z" fill="#10298E"/>
<path d="M75 64.9998H70V29.9998C70 28.6737 69.4732 27.402 68.5355 26.4643C67.5979 25.5266 66.3261 24.9998 65 24.9998H45V9.99983C45.0006 9.09441 44.7553 8.20581 44.2903 7.42889C43.8254 6.65198 43.1582 6.0159 42.3599 5.58855C41.5617 5.1612 40.6624 4.95863 39.758 5.00244C38.8537 5.04626 37.9782 5.33482 37.225 5.83733L12.225 22.4998C11.5392 22.9574 10.9772 23.5774 10.589 24.3048C10.2008 25.0321 9.99844 25.8441 10 26.6686V64.9998H5C4.33696 64.9998 3.70107 65.2632 3.23223 65.7321C2.76339 66.2009 2.5 66.8368 2.5 67.4998C2.5 68.1629 2.76339 68.7988 3.23223 69.2676C3.70107 69.7364 4.33696 69.9998 5 69.9998H75C75.663 69.9998 76.2989 69.7364 76.7678 69.2676C77.2366 68.7988 77.5 68.1629 77.5 67.4998C77.5 66.8368 77.2366 66.2009 76.7678 65.7321C76.2989 65.2632 75.663 64.9998 75 64.9998ZM65 29.9998V64.9998H45V29.9998H65ZM15 26.6686L40 9.99983V64.9998H15V26.6686ZM35 34.9998V39.9998C35 40.6629 34.7366 41.2988 34.2678 41.7676C33.7989 42.2364 33.163 42.4998 32.5 42.4998C31.837 42.4998 31.2011 42.2364 30.7322 41.7676C30.2634 41.2988 30 40.6629 30 39.9998V34.9998C30 34.3368 30.2634 33.7009 30.7322 33.2321C31.2011 32.7632 31.837 32.4998 32.5 32.4998C33.163 32.4998 33.7989 32.7632 34.2678 33.2321C34.7366 33.7009 35 34.3368 35 34.9998ZM25 34.9998V39.9998C25 40.6629 24.7366 41.2988 24.2678 41.7676C23.7989 42.2364 23.163 42.4998 22.5 42.4998C21.837 42.4998 21.2011 42.2364 20.7322 41.7676C20.2634 41.2988 20 40.6629 20 39.9998V34.9998C20 34.3368 20.2634 33.7009 20.7322 33.2321C21.2011 32.7632 21.837 32.4998 22.5 32.4998C23.163 32.4998 23.7989 32.7632 24.2678 33.2321C24.7366 33.7009 25 34.3368 25 34.9998ZM25 52.4998V57.4998C25 58.1629 24.7366 58.7988 24.2678 59.2676C23.7989 59.7364 23.163 59.9998 22.5 59.9998C21.837 59.9998 21.2011 59.7364 20.7322 59.2676C20.2634 58.7988 20 58.1629 20 57.4998V52.4998C20 51.8368 20.2634 51.2009 20.7322 50.7321C21.2011 50.2632 21.837 49.9998 22.5 49.9998C23.163 49.9998 23.7989 50.2632 24.2678 50.7321C24.7366 51.2009 25 51.8368 25 52.4998ZM35 52.4998V57.4998C35 58.1629 34.7366 58.7988 34.2678 59.2676C33.7989 59.7364 33.163 59.9998 32.5 59.9998C31.837 59.9998 31.2011 59.7364 30.7322 59.2676C30.2634 58.7988 30 58.1629 30 57.4998V52.4998C30 51.8368 30.2634 51.2009 30.7322 50.7321C31.2011 50.2632 31.837 49.9998 32.5 49.9998C33.163 49.9998 33.7989 50.2632 34.2678 50.7321C34.7366 51.2009 35 51.8368 35 52.4998Z" fill="#10298E"/>
</svg>
