<svg width="24" height="25" viewBox="0 0 24 25" fill="none" xmlns="http://www.w3.org/2000/svg">
<mask id="mask0_9351_2931" style="mask-type:alpha" maskUnits="userSpaceOnUse" x="0" y="0" width="24" height="25">
<rect y="0.823242" width="24" height="24" fill="#D9D9D9"/>
</mask>
<g mask="url(#mask0_9351_2931)">
<path d="M11.9996 22.8483C11.7329 22.8483 11.4788 22.7983 11.2371 22.6983C10.9954 22.5983 10.7746 22.4567 10.5746 22.2733L2.54961 14.2483C2.36628 14.0483 2.22461 13.8275 2.12461 13.5858C2.02461 13.3442 1.97461 13.09 1.97461 12.8233C1.97461 12.5567 2.02461 12.2983 2.12461 12.0483C2.22461 11.7983 2.36628 11.5817 2.54961 11.3983L10.5746 3.37334C10.7746 3.17334 10.9954 3.02751 11.2371 2.93584C11.4788 2.84417 11.7329 2.79834 11.9996 2.79834C12.2663 2.79834 12.5246 2.84417 12.7746 2.93584C13.0246 3.02751 13.2413 3.17334 13.4246 3.37334L21.4496 11.3983C21.6496 11.5817 21.7954 11.7983 21.8871 12.0483C21.9788 12.2983 22.0246 12.5567 22.0246 12.8233C22.0246 13.09 21.9788 13.3442 21.8871 13.5858C21.7954 13.8275 21.6496 14.0483 21.4496 14.2483L13.4246 22.2733C13.2413 22.4567 13.0246 22.5983 12.7746 22.6983C12.5246 22.7983 12.2663 22.8483 11.9996 22.8483ZM11.9996 20.8483L20.0246 12.8233L11.9996 4.79834L3.97461 12.8233L11.9996 20.8483ZM10.9996 13.8233H12.9996V7.82334H10.9996V13.8233ZM11.9996 16.8233C12.2829 16.8233 12.5204 16.7275 12.7121 16.5358C12.9038 16.3442 12.9996 16.1067 12.9996 15.8233C12.9996 15.54 12.9038 15.3025 12.7121 15.1108C12.5204 14.9192 12.2829 14.8233 11.9996 14.8233C11.7163 14.8233 11.4788 14.9192 11.2871 15.1108C11.0954 15.3025 10.9996 15.54 10.9996 15.8233C10.9996 16.1067 11.0954 16.3442 11.2871 16.5358C11.4788 16.7275 11.7163 16.8233 11.9996 16.8233Z" fill="#C50101"/>
</g>
</svg>
