<svg width="190" height="80" viewBox="0 0 190 80" fill="none" xmlns="http://www.w3.org/2000/svg">
<path opacity="0.2" d="M67.5 36.1062V67.5H47.5V50C47.5 49.3369 47.2366 48.701 46.7678 48.2322C46.2989 47.7633 45.663 47.5 45 47.5H35C34.337 47.5 33.7011 47.7633 33.2322 48.2322C32.7634 48.701 32.5 49.3369 32.5 50V67.5H12.5V36.1062C12.5 35.7578 12.5729 35.4133 12.7139 35.0947C12.8549 34.7761 13.0609 34.4905 13.3187 34.2562L38.3188 10.65C38.7791 10.231 39.3791 9.99878 40.0016 9.99878C40.624 9.99878 41.2241 10.231 41.6844 10.65L66.6844 34.2562C66.9417 34.4908 67.1471 34.7765 67.2875 35.0951C67.428 35.4136 67.5004 35.758 67.5 36.1062Z" fill="#10298E"/>
<path d="M75 65.0001H70V36.1094C70.0001 35.4174 69.8566 34.7329 69.5785 34.0993C69.3004 33.4656 68.8938 32.8966 68.3844 32.4282L43.3844 8.84068C43.3721 8.83002 43.3607 8.81853 43.35 8.80631C42.4296 7.96922 41.2301 7.50537 39.9859 7.50537C38.7418 7.50537 37.5423 7.96922 36.6219 8.80631L36.5875 8.84068L11.6156 32.4282C11.1062 32.8966 10.6996 33.4656 10.4215 34.0993C10.1434 34.7329 9.99989 35.4174 10 36.1094V65.0001H5C4.33696 65.0001 3.70107 65.2634 3.23223 65.7323C2.76339 66.2011 2.5 66.837 2.5 67.5001C2.5 68.1631 2.76339 68.799 3.23223 69.2678C3.70107 69.7367 4.33696 70.0001 5 70.0001H75C75.663 70.0001 76.2989 69.7367 76.7678 69.2678C77.2366 68.799 77.5 68.1631 77.5 67.5001C77.5 66.837 77.2366 66.2011 76.7678 65.7323C76.2989 65.2634 75.663 65.0001 75 65.0001ZM15 36.1094L15.0344 36.0782L40 12.5001L64.9687 36.0719L65.0031 36.1032V65.0001H50V50.0001C50 48.674 49.4732 47.4022 48.5355 46.4645C47.5979 45.5268 46.3261 45.0001 45 45.0001H35C33.6739 45.0001 32.4021 45.5268 31.4645 46.4645C30.5268 47.4022 30 48.674 30 50.0001V65.0001H15V36.1094ZM45 65.0001H35V50.0001H45V65.0001Z" fill="#10298E"/>
<path opacity="0.2" d="M122.5 36.1062V67.5H102.5V50C102.5 49.3369 102.237 48.701 101.768 48.2322C101.299 47.7633 100.663 47.5 100 47.5H90C89.337 47.5 88.7011 47.7633 88.2322 48.2322C87.7634 48.701 87.5 49.3369 87.5 50V67.5H67.5V36.1062C67.5 35.7578 67.5729 35.4133 67.7139 35.0947C67.8549 34.7761 68.0609 34.4905 68.3187 34.2562L93.3188 10.65C93.7791 10.231 94.3791 9.99878 95.0016 9.99878C95.624 9.99878 96.2241 10.231 96.6844 10.65L121.684 34.2562C121.942 34.4908 122.147 34.7765 122.288 35.0951C122.428 35.4136 122.5 35.758 122.5 36.1062Z" fill="#10298E"/>
<path d="M130 65.0001H125V36.1094C125 35.4174 124.857 34.7329 124.578 34.0993C124.3 33.4656 123.894 32.8966 123.384 32.4282L98.3844 8.84068C98.3721 8.83002 98.3607 8.81853 98.35 8.80631C97.4296 7.96922 96.2301 7.50537 94.9859 7.50537C93.7418 7.50537 92.5423 7.96922 91.6219 8.80631L91.5875 8.84068L66.6156 32.4282C66.1062 32.8966 65.6996 33.4656 65.4215 34.0993C65.1434 34.7329 64.9999 35.4174 65 36.1094V65.0001H60C59.337 65.0001 58.7011 65.2634 58.2322 65.7323C57.7634 66.2011 57.5 66.837 57.5 67.5001C57.5 68.1631 57.7634 68.799 58.2322 69.2678C58.7011 69.7367 59.337 70.0001 60 70.0001H130C130.663 70.0001 131.299 69.7367 131.768 69.2678C132.237 68.799 132.5 68.1631 132.5 67.5001C132.5 66.837 132.237 66.2011 131.768 65.7323C131.299 65.2634 130.663 65.0001 130 65.0001ZM70 36.1094L70.0344 36.0782L95 12.5001L119.969 36.0719L120.003 36.1032V65.0001H105V50.0001C105 48.674 104.473 47.4022 103.536 46.4645C102.598 45.5268 101.326 45.0001 100 45.0001H90C88.6739 45.0001 87.4021 45.5268 86.4645 46.4645C85.5268 47.4022 85 48.674 85 50.0001V65.0001H70V36.1094ZM100 65.0001H90V50.0001H100V65.0001Z" fill="#10298E"/>
<path opacity="0.2" d="M177.5 36.1062V67.5H157.5V50C157.5 49.3369 157.237 48.701 156.768 48.2322C156.299 47.7633 155.663 47.5 155 47.5H145C144.337 47.5 143.701 47.7633 143.232 48.2322C142.763 48.701 142.5 49.3369 142.5 50V67.5H122.5V36.1062C122.5 35.7578 122.573 35.4133 122.714 35.0947C122.855 34.7761 123.061 34.4905 123.319 34.2562L148.319 10.65C148.779 10.231 149.379 9.99878 150.002 9.99878C150.624 9.99878 151.224 10.231 151.684 10.65L176.684 34.2562C176.942 34.4908 177.147 34.7765 177.288 35.0951C177.428 35.4136 177.5 35.758 177.5 36.1062Z" fill="#10298E"/>
<path d="M185 65.0001H180V36.1094C180 35.4174 179.857 34.7329 179.578 34.0993C179.3 33.4656 178.894 32.8966 178.384 32.4282L153.384 8.84068C153.372 8.83002 153.361 8.81853 153.35 8.80631C152.43 7.96922 151.23 7.50537 149.986 7.50537C148.742 7.50537 147.542 7.96922 146.622 8.80631L146.588 8.84068L121.616 32.4282C121.106 32.8966 120.7 33.4656 120.422 34.0993C120.143 34.7329 120 35.4174 120 36.1094V65.0001H115C114.337 65.0001 113.701 65.2634 113.232 65.7323C112.763 66.2011 112.5 66.837 112.5 67.5001C112.5 68.1631 112.763 68.799 113.232 69.2678C113.701 69.7367 114.337 70.0001 115 70.0001H185C185.663 70.0001 186.299 69.7367 186.768 69.2678C187.237 68.799 187.5 68.1631 187.5 67.5001C187.5 66.837 187.237 66.2011 186.768 65.7323C186.299 65.2634 185.663 65.0001 185 65.0001ZM125 36.1094L125.034 36.0782L150 12.5001L174.969 36.0719L175.003 36.1032V65.0001H160V50.0001C160 48.674 159.473 47.4022 158.536 46.4645C157.598 45.5268 156.326 45.0001 155 45.0001H145C143.674 45.0001 142.402 45.5268 141.464 46.4645C140.527 47.4022 140 48.674 140 50.0001V65.0001H125V36.1094ZM155 65.0001H145V50.0001H155V65.0001Z" fill="#10298E"/>
</svg>
