<svg width="25" height="34" viewBox="0 0 25 34" fill="none" xmlns="http://www.w3.org/2000/svg">
<path fill-rule="evenodd" clip-rule="evenodd" d="M4.9541 15.2978H6.85372H18.2514H20.151V17.1974V30.4947V33.4221L17.4775 32.2295L12.5526 30.0326L7.62759 32.2295L4.9541 33.4221V30.4947V17.1974V15.2978ZM12.5526 27.9526L16.3518 29.6473L18.2514 30.4947V28.4147V19.097V17.1974H16.3518H8.75333H6.85372V19.097V28.4147V30.4947L8.75333 29.6473L12.5526 27.9526Z" fill="black"/>
<path d="M12.8772 2.05694L12.5524 1.9387L12.2275 2.05694L5.51175 4.50128L5.1869 4.61951L5.01405 4.9189L1.44066 11.1082L1.26781 11.4076L1.32784 11.748L2.56886 18.7862L2.6289 19.1267L2.89372 19.3489L8.36846 23.9427L8.63328 24.1649H8.97898H16.1258H16.4715L16.7363 23.9427L22.211 19.3489L22.4758 19.1267L22.5359 18.7862L23.7769 11.748L23.8369 11.4076L23.6641 11.1082L20.0907 4.9189L19.9178 4.61951L19.593 4.50128L12.8772 2.05694Z" fill="white" stroke="black" stroke-width="1.89961"/>
<path d="M9.70312 13.2617L11.6977 15.297L16.3518 10.5479" stroke="black" stroke-width="2.07174"/>
</svg>
