<svg width="80" height="80" viewBox="0 0 80 80" fill="none" xmlns="http://www.w3.org/2000/svg">
<path opacity="0.2" d="M67.5 42.5V67.5H12.5V27.5L32.5 42.5V27.5L52.5 42.5H67.5Z" fill="#10298E"/>
<path d="M36.25 55C36.25 55.663 35.9866 56.2989 35.5178 56.7678C35.0489 57.2366 34.413 57.5 33.75 57.5H25C24.337 57.5 23.7011 57.2366 23.2322 56.7678C22.7634 56.2989 22.5 55.663 22.5 55C22.5 54.337 22.7634 53.7011 23.2322 53.2322C23.7011 52.7634 24.337 52.5 25 52.5H33.75C34.413 52.5 35.0489 52.7634 35.5178 53.2322C35.9866 53.7011 36.25 54.337 36.25 55ZM55 52.5H46.25C45.587 52.5 44.9511 52.7634 44.4822 53.2322C44.0134 53.7011 43.75 54.337 43.75 55C43.75 55.663 44.0134 56.2989 44.4822 56.7678C44.9511 57.2366 45.587 57.5 46.25 57.5H55C55.663 57.5 56.2989 57.2366 56.7678 56.7678C57.2366 56.2989 57.5 55.663 57.5 55C57.5 54.337 57.2366 53.7011 56.7678 53.2322C56.2989 52.7634 55.663 52.5 55 52.5ZM77.5 67.5C77.5 68.163 77.2366 68.7989 76.7678 69.2678C76.2989 69.7366 75.663 70 75 70H5C4.33696 70 3.70107 69.7366 3.23223 69.2678C2.76339 68.7989 2.5 68.163 2.5 67.5C2.5 66.837 2.76339 66.2011 3.23223 65.7322C3.70107 65.2634 4.33696 65 5 65H10V27.5C10 27.0357 10.1293 26.5806 10.3734 26.1857C10.6175 25.7907 10.9667 25.4716 11.382 25.2639C11.7972 25.0563 12.2621 24.9684 12.7245 25.0101C13.1869 25.0518 13.6286 25.2214 14 25.5L30 37.5V27.5C30 27.0357 30.1293 26.5806 30.3734 26.1857C30.6175 25.7907 30.9667 25.4716 31.382 25.2639C31.7972 25.0563 32.2621 24.9684 32.7245 25.0101C33.1869 25.0518 33.6286 25.2214 34 25.5L46.1062 34.5781L49.7188 9.29375C49.8937 8.10423 50.4894 7.01687 51.3976 6.22904C52.3058 5.44121 53.4664 5.00515 54.6688 5H60.3312C61.5336 5.00515 62.6942 5.44121 63.6024 6.22904C64.5106 7.01687 65.1063 8.10423 65.2812 9.29375L69.9688 42.1469C69.9688 42.1469 69.9938 42.3906 69.9938 42.5V65H74.9938C75.3226 64.9992 75.6483 65.0632 75.9524 65.1885C76.2564 65.3138 76.5327 65.4978 76.7656 65.73C76.9984 65.9622 77.1831 66.2381 77.3091 66.5418C77.4351 66.8456 77.5 67.1712 77.5 67.5ZM50.6688 38L53.3344 40H64.6188L60.3312 10H54.6688L50.6688 38ZM15 65H65V45H52.5C51.9591 45 51.4327 44.8246 51 44.5L46.5 41.125L35 32.5V42.5C35 42.9643 34.8707 43.4194 34.6266 43.8143C34.3825 44.2093 34.0333 44.5284 33.618 44.7361C33.2028 44.9437 32.7379 45.0316 32.2755 44.9899C31.8131 44.9482 31.3714 44.7786 31 44.5L15 32.5V65Z" fill="#10298E"/>
</svg>
