<svg width="19" height="36" viewBox="0 0 19 36" fill="none" xmlns="http://www.w3.org/2000/svg">
<path d="M11.21 31.91V23.01L11.5 22.9401C13.6315 22.4706 15.5358 21.28 16.8913 19.5692C18.2467 17.8585 18.9704 15.7325 18.94 13.5501C18.8416 11.9588 18.5563 10.3846 18.09 8.86005C17.67 7.07005 17.09 4.41005 16.09 0.26005C16.0759 0.185945 16.036 0.119216 15.9775 0.0716435C15.9189 0.0240711 15.8454 -0.00128552 15.77 5.02011e-05H12.33C12.2478 0.00755532 12.1714 0.0456094 12.1158 0.106702C12.0603 0.167794 12.0297 0.247487 12.03 0.33005C12.03 0.417572 12.0648 0.501508 12.1267 0.563395C12.1885 0.625282 12.2725 0.66005 12.36 0.66005H15.54L15.61 0.95005C16.03 2.81005 18.14 12.0901 18.17 12.2701L18.29 12.9901L17.63 12.6301C16.1963 11.8471 14.6169 11.3671 12.99 11.2201C11.4249 11.3331 9.91895 11.865 8.63 12.7601C7.21 13.5401 5.87 14.2801 4.63 14.0701C3.26249 13.7106 2.02257 12.9764 1.05 11.9501L0.889999 11.8001L3.41 0.63005H6.73C6.81256 0.630392 6.89225 0.599772 6.95335 0.544233C7.01444 0.488695 7.05249 0.412272 7.06 0.33005C7.06 0.286714 7.05146 0.243802 7.03487 0.203765C7.01829 0.163727 6.99398 0.127348 6.96334 0.0967049C6.9327 0.0660616 6.89632 0.041754 6.85629 0.02517C6.81625 0.0085859 6.77333 5.02011e-05 6.73 5.02011e-05H3.14999C3.07456 -0.00128552 3.00109 0.0240711 2.94254 0.0716435C2.88399 0.119216 2.84413 0.185945 2.82999 0.26005C2.16999 3.12005 1.67 5.26005 1.28 6.97005C-1.19209e-06 12.5101 0 12.5101 0 13.6901C0.00906434 15.8466 0.750079 17.9362 2.10172 19.6167C3.45335 21.2971 5.33551 22.4689 7.43999 22.9401L7.74 23.01V31.91L2.3 34.6301C2.23368 34.6636 2.18018 34.7179 2.14767 34.7847C2.11517 34.8516 2.10544 34.9272 2.12 35C2.13749 35.0725 2.17828 35.1371 2.23609 35.1841C2.2939 35.2311 2.36554 35.2578 2.43999 35.2601H16.5C16.5754 35.2614 16.6489 35.236 16.7075 35.1885C16.766 35.1409 16.8059 35.0742 16.82 35C16.8376 34.9259 16.8281 34.8478 16.7933 34.78C16.7585 34.7121 16.7006 34.659 16.63 34.6301L11.21 31.91ZM3.11 19.7701C2.28608 18.9156 1.64204 17.9044 1.21604 16.7965C0.790048 15.6886 0.590766 14.5064 0.629997 13.3201V12.5701L1.21 13.0501C2.12271 13.8731 3.23143 14.4481 4.43 14.7201C5.94 14.9601 7.43 14.1501 8.86 13.3601L9.07 13.6701L8.89 13.3401C10.0834 12.5376 11.4583 12.046 12.89 11.9101C14.7238 12.1026 16.4942 12.6893 18.08 13.6301L18.29 13.7401V13.9801C18.2 16.261 17.234 18.4194 15.5931 20.0063C13.9522 21.5932 11.7627 22.4864 9.48 22.5001H9.41C8.2298 22.495 7.0629 22.2505 5.98 21.7812C4.89709 21.312 3.92071 20.6278 3.11 19.7701ZM3.82999 34.6301L8.21 32.4401C8.26555 32.4115 8.31246 32.3687 8.34587 32.3159C8.37928 32.2632 8.39796 32.2025 8.39999 32.14V23.1401H8.8C9.2495 23.17 9.70049 23.17 10.15 23.1401H10.55V32.14C10.55 32.2017 10.5667 32.2621 10.5984 32.315C10.6302 32.3678 10.6756 32.4111 10.73 32.4401L15.12 34.6301H3.82999Z" fill="black"/>
</svg>
