<svg width="183" height="40" viewBox="0 0 183 40" fill="none" xmlns="http://www.w3.org/2000/svg">
<g id="golvet-logo 1" clip-path="url(#clip0_3489_124869)">
<path id="Vector" d="M19.9916 24.5913V38.5673C9.33537 38.5673 0.5 30.8028 0.5 19.8257C0.5 8.84817 9.33537 1.08364 19.9916 1.08364V3.33259C10.6208 3.33259 2.85622 10.0263 2.85622 19.8257C2.85622 28.8215 9.33537 35.1938 17.6353 36.2111V24.5913H19.9916ZM50.2461 2.69036C40.8753 2.69036 33.1108 10.0263 33.1108 19.8257C33.1108 29.6246 40.8753 36.961 50.2461 36.961C59.6169 36.961 67.3814 29.6246 67.3814 19.8257C67.3814 10.0263 59.6169 2.69036 50.2461 2.69036ZM50.2461 39.21C39.5899 39.21 30.7545 30.8028 30.7545 19.8257C30.7545 8.84817 39.5899 0.441406 50.2461 0.441406C60.9023 0.441406 69.7376 8.84817 69.7376 19.8257C69.7376 30.8028 60.9023 39.21 50.2461 39.21ZM84.2146 1.08364V36.3183H95.1917V38.5673H81.8584V1.08364H84.2146ZM116.718 39.424L100.814 1.08364H103.331L116.718 33.6408L130.105 1.08364H132.621L116.718 39.424ZM140.707 24.5913H143.384V1.08364H157.039V3.33259H145.74V24.5913H154.254V26.8403H145.74V36.3183H158.11V38.5673H143.384V26.8403H140.707V24.5913ZM165.606 1.08364H182.42V3.33259H175.191V38.5673H172.835V3.33259H165.606V1.08364Z" fill="white"/>
</g>
<defs>
<clipPath id="clip0_3489_124869">
<rect width="181.988" height="39.4232" fill="white" transform="translate(0.5)"/>
</clipPath>
</defs>
</svg>
