<svg width="141" height="36" viewBox="0 0 141 36" fill="none" xmlns="http://www.w3.org/2000/svg">
<g clip-path="url(#clip0_7192_2526)">
<path d="M133.49 0.225586H7.2549C3.24813 0.225586 0 3.47372 0 7.48049V28.5197C0 32.5265 3.24813 35.7746 7.2549 35.7746H133.49C137.497 35.7746 140.745 32.5265 140.745 28.5197V7.48049C140.745 3.47372 137.497 0.225586 133.49 0.225586Z" fill="#F5F5F7"/>
<mask id="mask0_7192_2526" style="mask-type:luminance" maskUnits="userSpaceOnUse" x="7" y="4" width="127" height="28">
<path d="M133.489 4.57812H7.25391V31.4213H133.489V4.57812Z" fill="white"/>
</mask>
<g mask="url(#mask0_7192_2526)">
<path d="M34.4415 18.7695L35.5559 22.1994H39.1622L36.2446 24.3191L37.359 27.7489L34.4415 25.6292L31.5239 27.7489L32.6383 24.3191L29.7207 22.1994H33.327L34.4415 18.7695Z" fill="#F3C623"/>
<path d="M46.8497 18.7695L47.9641 22.1994H51.5704L48.6528 24.3191L49.7672 27.7489L46.8497 25.6292L43.9321 27.7489L45.0465 24.3191L42.1289 22.1994H45.7352L46.8497 18.7695Z" fill="#F3C623"/>
<path d="M59.2598 18.7695L60.3743 22.1994H63.9805L61.063 24.3191L62.1774 27.7489L59.2598 25.6292L56.3423 27.7489L57.4566 24.3191L54.5391 22.1994H58.1454L59.2598 18.7695Z" fill="#F3C623"/>
<path d="M71.668 18.7695L72.7822 22.1994H76.3886L73.4714 24.3191L74.5857 27.7489L71.668 25.6292L68.7505 27.7489L69.8648 24.3191L66.9473 22.1994H70.5536L71.668 18.7695Z" fill="#F3C623"/>
<path fill-rule="evenodd" clip-rule="evenodd" d="M84.0762 18.7695L82.9619 22.1994H79.3555L82.2727 24.3191L81.1583 27.7489L84.0762 25.6292V18.7695Z" fill="#DCDCE5"/>
<path d="M85.1925 22.1994L84.0781 18.7695V25.6292L86.9953 27.7489L85.881 24.3191L88.7989 22.1994H85.1925Z" fill="#DCDCE5"/>
<path fill-rule="evenodd" clip-rule="evenodd" d="M84.0762 18.7695L82.9619 22.1994H79.3555L82.2727 24.3191L81.1583 27.7489L84.0762 25.6292V18.7695Z" fill="#F3C623"/>
<path d="M93.1973 25.2404V24.6164L95.6349 21.1196H96.6361V24.5221H97.3108V25.2404H96.6361V26.3431H95.8235V25.2404H93.1973ZM95.8598 21.9611L94.1477 24.5221H95.8598V21.9611ZM99.1572 25.3492L98.2793 27.3515H97.7425L98.2576 25.3492H99.1572ZM100.808 23.579C100.305 23.3275 100.054 22.9309 100.054 22.3892C100.054 22.128 100.119 21.8886 100.25 21.6709C100.38 21.4533 100.576 21.2816 100.837 21.1558C101.099 21.0253 101.418 20.96 101.795 20.96C102.167 20.96 102.484 21.0253 102.745 21.1558C103.011 21.2816 103.21 21.4533 103.34 21.6709C103.471 21.8886 103.536 22.128 103.536 22.3892C103.536 22.66 103.466 22.8994 103.326 23.1074C103.19 23.3105 103.009 23.4678 102.782 23.579C103.057 23.6805 103.275 23.8474 103.435 24.0796C103.594 24.3069 103.674 24.5753 103.674 24.8849C103.674 25.1992 103.594 25.4774 103.435 25.7192C103.275 25.961 103.052 26.1472 102.767 26.2778C102.481 26.4084 102.158 26.4737 101.795 26.4737C101.432 26.4737 101.108 26.4084 100.823 26.2778C100.542 26.1472 100.322 25.961 100.163 25.7192C100.003 25.4774 99.9233 25.1992 99.9233 24.8849C99.9233 24.5705 100.003 24.2996 100.163 24.0723C100.322 23.845 100.537 23.6805 100.808 23.579ZM102.745 22.4907C102.745 22.2199 102.661 22.0119 102.492 21.8668C102.322 21.7217 102.09 21.6492 101.795 21.6492C101.505 21.6492 101.275 21.7217 101.106 21.8668C100.936 22.0119 100.852 22.2223 100.852 22.498C100.852 22.7398 100.939 22.9382 101.113 23.0929C101.292 23.2429 101.519 23.3178 101.795 23.3178C102.071 23.3178 102.298 23.2404 102.477 23.0856C102.655 22.9309 102.745 22.7326 102.745 22.4907ZM101.795 23.9417C101.476 23.9417 101.215 24.0215 101.012 24.1811C100.813 24.3359 100.714 24.5608 100.714 24.8558C100.714 25.1315 100.811 25.3564 101.004 25.5306C101.197 25.6998 101.461 25.7845 101.795 25.7845C102.124 25.7845 102.383 25.6974 102.571 25.5233C102.764 25.3492 102.862 25.1267 102.862 24.8558C102.862 24.5656 102.762 24.3407 102.564 24.1811C102.37 24.0215 102.114 23.9417 101.795 23.9417ZM108.487 26.3939C108.149 26.3939 107.844 26.3358 107.573 26.2198C107.302 26.0988 107.09 25.9296 106.934 25.7119C106.78 25.4943 106.702 25.2404 106.702 24.9502H107.587C107.607 25.1678 107.692 25.3468 107.841 25.487C107.997 25.6273 108.211 25.6974 108.487 25.6974C108.773 25.6974 108.995 25.6297 109.154 25.4943C109.314 25.354 109.394 25.1751 109.394 24.9574C109.394 24.7882 109.343 24.6503 109.241 24.5439C109.145 24.4375 109.022 24.3553 108.871 24.2972C108.726 24.2392 108.523 24.1763 108.262 24.1086C107.933 24.0215 107.665 23.9345 107.457 23.8474C107.254 23.7555 107.08 23.6153 106.934 23.4266C106.789 23.238 106.717 22.9865 106.717 22.6721C106.717 22.3819 106.789 22.128 106.934 21.9104C107.08 21.6927 107.283 21.5258 107.544 21.4098C107.805 21.2937 108.108 21.2356 108.451 21.2356C108.94 21.2356 109.339 21.359 109.648 21.6056C109.963 21.8475 110.137 22.1812 110.17 22.6068H109.256C109.241 22.4231 109.154 22.2658 108.995 22.1353C108.835 22.0047 108.625 21.9394 108.364 21.9394C108.127 21.9394 107.933 21.9998 107.783 22.1207C107.634 22.2417 107.558 22.4158 107.558 22.6431C107.558 22.7978 107.605 22.926 107.696 23.0276C107.793 23.1243 107.914 23.2017 108.059 23.2598C108.204 23.3178 108.403 23.3807 108.654 23.4484C108.988 23.5403 109.259 23.6322 109.466 23.7241C109.68 23.816 109.858 23.9586 110.003 24.1521C110.153 24.3407 110.228 24.5947 110.228 24.9139C110.228 25.1702 110.158 25.4121 110.018 25.6394C109.883 25.8667 109.682 26.0505 109.416 26.1907C109.154 26.3262 108.845 26.3939 108.487 26.3939ZM112.314 23.0204V25.2331C112.314 25.3831 112.348 25.4919 112.415 25.5596C112.488 25.6225 112.609 25.6539 112.778 25.6539H113.286V26.3431H112.633C112.261 26.3431 111.976 26.256 111.777 26.0819C111.579 25.9078 111.48 25.6249 111.48 25.2331V23.0204H111.008V22.3456H111.48V21.3517H112.314V22.3456H113.286V23.0204H112.314ZM117.857 24.2464C117.857 24.3964 117.848 24.5318 117.828 24.6527H114.774C114.799 24.9719 114.917 25.2282 115.13 25.4217C115.343 25.6152 115.604 25.7119 115.913 25.7119C116.359 25.7119 116.673 25.5257 116.856 25.1533H117.749C117.628 25.5209 117.408 25.8231 117.088 26.0602C116.774 26.2923 116.382 26.4084 115.913 26.4084C115.531 26.4084 115.188 26.3237 114.883 26.1545C114.583 25.9804 114.346 25.7385 114.172 25.429C114.003 25.1146 113.918 24.7519 113.918 24.3407C113.918 23.9296 114.001 23.5693 114.165 23.2598C114.334 22.9454 114.569 22.7035 114.868 22.5343C115.173 22.365 115.521 22.2804 115.913 22.2804C116.29 22.2804 116.627 22.3626 116.922 22.527C117.217 22.6915 117.447 22.9236 117.611 23.2235C117.775 23.5185 117.857 23.8595 117.857 24.2464ZM116.994 23.9853C116.99 23.6805 116.881 23.4363 116.668 23.2525C116.455 23.0687 116.192 22.9768 115.877 22.9768C115.592 22.9768 115.347 23.0687 115.144 23.2525C114.941 23.4315 114.82 23.6757 114.781 23.9853H116.994ZM119.644 22.926C119.765 22.7229 119.924 22.5657 120.122 22.4545C120.326 22.3384 120.565 22.2804 120.841 22.2804V23.1364H120.63C120.306 23.1364 120.059 23.2186 119.89 23.3831C119.726 23.5476 119.644 23.8329 119.644 24.2392V26.3431H118.816V22.3456H119.644V22.926ZM123.763 22.2804C124.077 22.2804 124.358 22.3456 124.604 22.4762C124.856 22.6068 125.052 22.8003 125.192 23.0566C125.332 23.3129 125.402 23.6225 125.402 23.9853V26.3431H124.583V24.1086C124.583 23.7507 124.493 23.4774 124.314 23.2888C124.135 23.0953 123.891 22.9986 123.582 22.9986C123.272 22.9986 123.025 23.0953 122.842 23.2888C122.662 23.4774 122.573 23.7507 122.573 24.1086V26.3431H121.746V22.3456H122.573V22.8027C122.709 22.6382 122.88 22.5101 123.088 22.4182C123.301 22.3263 123.526 22.2804 123.763 22.2804ZM130.266 24.2464C130.266 24.3964 130.257 24.5318 130.237 24.6527H127.183C127.207 24.9719 127.326 25.2282 127.538 25.4217C127.751 25.6152 128.012 25.7119 128.322 25.7119C128.767 25.7119 129.081 25.5257 129.265 25.1533H130.157C130.036 25.5209 129.816 25.8231 129.497 26.0602C129.183 26.2923 128.791 26.4084 128.322 26.4084C127.94 26.4084 127.596 26.3237 127.292 26.1545C126.992 25.9804 126.755 25.7385 126.581 25.429C126.412 25.1146 126.327 24.7519 126.327 24.3407C126.327 23.9296 126.409 23.5693 126.573 23.2598C126.742 22.9454 126.978 22.7035 127.277 22.5343C127.582 22.365 127.93 22.2804 128.322 22.2804C128.699 22.2804 129.035 22.3626 129.33 22.527C129.626 22.6915 129.855 22.9236 130.02 23.2235C130.184 23.5185 130.266 23.8595 130.266 24.2464ZM129.403 23.9853C129.398 23.6805 129.289 23.4363 129.076 23.2525C128.864 23.0687 128.6 22.9768 128.286 22.9768C128 22.9768 127.756 23.0687 127.553 23.2525C127.35 23.4315 127.229 23.6757 127.19 23.9853H129.403Z" fill="#1C1B1B"/>
<path d="M34.7763 8.97474C34.6196 8.67293 34.4019 8.44658 34.1233 8.29568C33.8448 8.13897 33.5226 8.06062 33.157 8.06062C32.7565 8.06062 32.3996 8.15058 32.0862 8.3305C31.7728 8.51042 31.5261 8.7658 31.3462 9.09662C31.1721 9.42744 31.085 9.8105 31.085 10.2458C31.085 10.6811 31.1721 11.0671 31.3462 11.4037C31.5261 11.7345 31.7728 11.9899 32.0862 12.1698C32.3996 12.3497 32.7565 12.4397 33.157 12.4397C33.6968 12.4397 34.135 12.2888 34.4716 11.987C34.8082 11.6852 35.0142 11.276 35.0897 10.7594H32.8175V9.96721H36.1518V10.742C36.088 11.2122 35.9197 11.6445 35.6469 12.0392C35.3799 12.4339 35.0288 12.7502 34.5935 12.9881C34.164 13.2203 33.6852 13.3364 33.157 13.3364C32.5882 13.3364 32.0688 13.2058 31.5986 12.9446C31.1285 12.6776 30.7542 12.3091 30.4756 11.839C30.2028 11.3689 30.0664 10.8378 30.0664 10.2458C30.0664 9.6538 30.2028 9.12274 30.4756 8.65262C30.7542 8.1825 31.1285 7.81686 31.5986 7.55568C32.0746 7.2887 32.594 7.15521 33.157 7.15521C33.8012 7.15521 34.3729 7.31482 34.8721 7.63403C35.377 7.94744 35.7426 8.39435 35.969 8.97474H34.7763ZM39.3855 13.3625C38.9328 13.3625 38.5236 13.2609 38.1579 13.0578C37.7923 12.8489 37.505 12.5587 37.2961 12.1872C37.0871 11.81 36.9826 11.3747 36.9826 10.8813C36.9826 10.3938 37.09 9.9614 37.3048 9.58415C37.5195 9.20689 37.8126 8.9167 38.1841 8.71356C38.5555 8.51042 38.9705 8.40886 39.429 8.40886C39.8876 8.40886 40.3026 8.51042 40.6739 8.71356C41.0455 8.9167 41.3386 9.20689 41.5533 9.58415C41.7681 9.9614 41.8754 10.3938 41.8754 10.8813C41.8754 11.3689 41.7652 11.8012 41.5446 12.1785C41.3241 12.5558 41.0223 12.8489 40.6392 13.0578C40.2619 13.2609 39.844 13.3625 39.3855 13.3625ZM39.3855 12.5006C39.6408 12.5006 39.8788 12.4397 40.0994 12.3178C40.3258 12.1959 40.5086 12.0131 40.6479 11.7693C40.7871 11.5256 40.8568 11.2296 40.8568 10.8813C40.8568 10.5331 40.79 10.24 40.6565 10.002C40.523 9.75827 40.346 9.57544 40.1255 9.45356C39.905 9.33168 39.667 9.27074 39.4116 9.27074C39.1562 9.27074 38.9183 9.33168 38.6977 9.45356C38.483 9.57544 38.3117 9.75827 38.1841 10.002C38.0564 10.24 37.9925 10.5331 37.9925 10.8813C37.9925 11.3979 38.1231 11.7983 38.3843 12.0827C38.6513 12.3613 38.985 12.5006 39.3855 12.5006ZM45.1113 13.3625C44.6586 13.3625 44.2495 13.2609 43.8838 13.0578C43.5182 12.8489 43.2309 12.5587 43.0219 12.1872C42.813 11.81 42.7085 11.3747 42.7085 10.8813C42.7085 10.3938 42.8159 9.9614 43.0306 9.58415C43.2454 9.20689 43.5385 8.9167 43.9099 8.71356C44.2814 8.51042 44.6964 8.40886 45.1549 8.40886C45.6134 8.40886 46.0284 8.51042 46.3998 8.71356C46.7713 8.9167 47.0644 9.20689 47.2791 9.58415C47.4938 9.9614 47.6012 10.3938 47.6012 10.8813C47.6012 11.3689 47.4909 11.8012 47.2704 12.1785C47.0498 12.5558 46.748 12.8489 46.365 13.0578C45.9877 13.2609 45.5698 13.3625 45.1113 13.3625ZM45.1113 12.5006C45.3667 12.5006 45.6047 12.4397 45.8252 12.3178C46.0516 12.1959 46.2344 12.0131 46.3737 11.7693C46.513 11.5256 46.5826 11.2296 46.5826 10.8813C46.5826 10.5331 46.5159 10.24 46.3824 10.002C46.2489 9.75827 46.0719 9.57544 45.8513 9.45356C45.6308 9.33168 45.3928 9.27074 45.1375 9.27074C44.8821 9.27074 44.6441 9.33168 44.4236 9.45356C44.2088 9.57544 44.0376 9.75827 43.9099 10.002C43.7822 10.24 43.7184 10.5331 43.7184 10.8813C43.7184 11.3979 43.849 11.7983 44.1102 12.0827C44.3771 12.3613 44.7109 12.5006 45.1113 12.5006ZM50.6891 8.40886C51.0606 8.40886 51.3885 8.48431 51.6729 8.63521C51.9631 8.78031 52.1894 8.96313 52.3519 9.18368V8.48721H53.3531V13.3625C53.3531 13.8036 53.2603 14.1954 53.0745 14.5378C52.8888 14.886 52.6189 15.1588 52.2649 15.3562C51.9166 15.5535 51.4988 15.6522 51.0112 15.6522C50.3612 15.6522 49.8214 15.4983 49.3919 15.1907C48.9625 14.8889 48.7187 14.4769 48.6606 13.9545H49.6444C49.7199 14.2041 49.8795 14.4043 50.1232 14.5552C50.3728 14.7119 50.6688 14.7903 51.0112 14.7903C51.4117 14.7903 51.7338 14.6684 51.9776 14.4246C52.2272 14.1809 52.3519 13.8268 52.3519 13.3625V12.5616C52.1836 12.7879 51.9544 12.9794 51.6642 13.1361C51.3798 13.2871 51.0548 13.3625 50.6891 13.3625C50.2712 13.3625 49.8882 13.258 49.5399 13.0491C49.1975 12.8343 48.9247 12.5383 48.7216 12.1611C48.5243 11.778 48.4256 11.3456 48.4256 10.8639C48.4256 10.3822 48.5243 9.9556 48.7216 9.58415C48.9247 9.2127 49.1975 8.9254 49.5399 8.72227C49.8882 8.51333 50.2712 8.40886 50.6891 8.40886ZM52.3519 10.8813C52.3519 10.5505 52.2823 10.2632 52.143 10.0194C52.0095 9.77568 51.8325 9.58995 51.6119 9.46227C51.3914 9.33458 51.1534 9.27074 50.8981 9.27074C50.6427 9.27074 50.4047 9.33458 50.1842 9.46227C49.9636 9.58415 49.7837 9.76697 49.6444 10.0107C49.5109 10.2487 49.4442 10.5331 49.4442 10.8639C49.4442 11.1947 49.5109 11.4849 49.6444 11.7345C49.7837 11.9841 49.9636 12.1756 50.1842 12.3091C50.4105 12.4368 50.6485 12.5006 50.8981 12.5006C51.1534 12.5006 51.3914 12.4368 51.6119 12.3091C51.8325 12.1814 52.0095 11.9957 52.143 11.7519C52.2823 11.5023 52.3519 11.2121 52.3519 10.8813ZM55.8233 6.8418V13.2842H54.8308V6.8418H55.8233ZM61.6969 10.7681C61.6969 10.9481 61.6853 11.1106 61.6621 11.2557H57.9969C58.0259 11.6387 58.1681 11.9463 58.4235 12.1785C58.6789 12.4107 58.9923 12.5267 59.3637 12.5267C59.8977 12.5267 60.275 12.3033 60.4955 11.8564H61.5663C61.4212 12.2975 61.1571 12.6602 60.7741 12.9446C60.3968 13.2232 59.9267 13.3625 59.3637 13.3625C58.9052 13.3625 58.4931 13.2609 58.1275 13.0578C57.7677 12.8489 57.4833 12.5587 57.2743 12.1872C57.0712 11.81 56.9696 11.3747 56.9696 10.8813C56.9696 10.388 57.0683 9.9556 57.2656 9.58415C57.4688 9.20689 57.7502 8.9167 58.1101 8.71356C58.4757 8.51042 58.8936 8.40886 59.3637 8.40886C59.8164 8.40886 60.2198 8.50752 60.5738 8.70486C60.9279 8.90219 61.2036 9.18078 61.4009 9.54062C61.5982 9.89466 61.6969 10.3038 61.6969 10.7681ZM60.6609 10.4547C60.6551 10.0891 60.5245 9.79599 60.2691 9.57544C60.0138 9.35489 59.6975 9.24462 59.3202 9.24462C58.9778 9.24462 58.6847 9.35489 58.4409 9.57544C58.1971 9.79019 58.052 10.0833 58.0056 10.4547H60.6609ZM68.522 10.1761C68.847 10.2342 69.1227 10.4054 69.349 10.6898C69.5754 10.9742 69.6885 11.2963 69.6885 11.6561C69.6885 11.9638 69.6073 12.2423 69.4448 12.4919C69.2881 12.7357 69.0588 12.9301 68.757 13.0752C68.4552 13.2145 68.1041 13.2842 67.7036 13.2842H65.2834V7.23356H67.5904C68.0025 7.23356 68.3565 7.30321 68.6525 7.4425C68.9485 7.5818 69.172 7.77042 69.3229 8.00838C69.4738 8.24054 69.5493 8.50172 69.5493 8.79191C69.5493 9.14015 69.4564 9.43035 69.2707 9.6625C69.0849 9.89466 68.8354 10.0659 68.522 10.1761ZM66.2758 9.77568H67.5034C67.8284 9.77568 68.0809 9.70313 68.2608 9.55803C68.4465 9.40713 68.5394 9.19239 68.5394 8.9138C68.5394 8.64101 68.4465 8.42917 68.2608 8.27827C68.0809 8.12156 67.8284 8.04321 67.5034 8.04321H66.2758V9.77568ZM67.6165 12.4745C67.9532 12.4745 68.2173 12.3932 68.4088 12.2307C68.6003 12.0682 68.6961 11.8419 68.6961 11.5517C68.6961 11.2557 68.5945 11.0206 68.3914 10.8465C68.1882 10.6724 67.9183 10.5853 67.5817 10.5853H66.2758V12.4745H67.6165ZM75.3377 10.7681C75.3377 10.9481 75.3261 11.1106 75.3029 11.2557H71.6376C71.6666 11.6387 71.8088 11.9463 72.0642 12.1785C72.3195 12.4107 72.6331 12.5267 73.0045 12.5267C73.5385 12.5267 73.9158 12.3033 74.1363 11.8564H75.2071C75.062 12.2975 74.798 12.6602 74.4149 12.9446C74.0376 13.2232 73.5675 13.3625 73.0045 13.3625C72.5459 13.3625 72.1338 13.2609 71.7682 13.0578C71.4083 12.8489 71.1239 12.5587 70.915 12.1872C70.7119 11.81 70.6103 11.3747 70.6103 10.8813C70.6103 10.388 70.709 9.9556 70.9063 9.58415C71.1094 9.20689 71.3909 8.9167 71.7508 8.71356C72.1164 8.51042 72.5343 8.40886 73.0045 8.40886C73.4572 8.40886 73.8606 8.50752 74.2147 8.70486C74.5687 8.90219 74.8444 9.18078 75.0417 9.54062C75.2391 9.89466 75.3377 10.3038 75.3377 10.7681ZM74.3017 10.4547C74.2959 10.0891 74.1653 9.79599 73.91 9.57544C73.6546 9.35489 73.3383 9.24462 72.961 9.24462C72.6186 9.24462 72.3253 9.35489 72.0816 9.57544C71.8378 9.79019 71.6927 10.0833 71.6463 10.4547H74.3017ZM82.9307 8.48721L81.442 13.2842H80.3973L79.4309 9.74086L78.4646 13.2842H77.4199L75.9225 8.48721H76.9323L77.9335 12.3439L78.9521 8.48721H79.9881L80.9632 12.3265L81.9556 8.48721H82.9307ZM88.2427 10.7681C88.2427 10.9481 88.2311 11.1106 88.2079 11.2557H84.5427C84.5718 11.6387 84.714 11.9463 84.9693 12.1785C85.2247 12.4107 85.5381 12.5267 85.9096 12.5267C86.4435 12.5267 86.8208 12.3033 87.0413 11.8564H88.1122C87.9671 12.2975 87.703 12.6602 87.3199 12.9446C86.9427 13.2232 86.4725 13.3625 85.9096 13.3625C85.4511 13.3625 85.039 13.2609 84.6733 13.0578C84.3135 12.8489 84.0291 12.5587 83.8202 12.1872C83.617 11.81 83.5154 11.3747 83.5154 10.8813C83.5154 10.388 83.6141 9.9556 83.8114 9.58415C84.0146 9.20689 84.2961 8.9167 84.6559 8.71356C85.0216 8.51042 85.4394 8.40886 85.9096 8.40886C86.3623 8.40886 86.7656 8.50752 87.1197 8.70486C87.4737 8.90219 87.7494 9.18078 87.9467 9.54062C88.1441 9.89466 88.2427 10.3038 88.2427 10.7681ZM87.2067 10.4547C87.2009 10.0891 87.0704 9.79599 86.815 9.57544C86.5596 9.35489 86.2433 9.24462 85.866 9.24462C85.5236 9.24462 85.2305 9.35489 84.9867 9.57544C84.743 9.79019 84.5979 10.0833 84.5514 10.4547H87.2067ZM90.3866 9.18368C90.5317 8.93991 90.7232 8.75129 90.9612 8.6178C91.2049 8.4785 91.4922 8.40886 91.823 8.40886V9.43615H91.5706C91.1817 9.43615 90.8857 9.53482 90.6826 9.73215C90.4852 9.92948 90.3866 10.2719 90.3866 10.7594V13.2842H89.3941V8.48721H90.3866V9.18368ZM94.067 9.29686V11.9521C94.067 12.1321 94.1076 12.2627 94.1889 12.3439C94.2759 12.4194 94.421 12.4571 94.6242 12.4571H95.2336V13.2842H94.45C94.0031 13.2842 93.6607 13.1797 93.4227 12.9707C93.1848 12.7618 93.0658 12.4223 93.0658 11.9521V9.29686H92.4999V8.48721H93.0658V7.2945H94.067V8.48721H95.2336V9.29686H94.067ZM100.667 8.48721V13.2842H99.6743V12.7183C99.5176 12.9156 99.3115 13.0723 99.0562 13.1884C98.8066 13.2987 98.5396 13.3538 98.2552 13.3538C97.878 13.3538 97.5384 13.2754 97.2366 13.1187C96.9406 12.962 96.7056 12.7299 96.5315 12.4223C96.3632 12.1147 96.279 11.7432 96.279 11.3079V8.48721H97.2628V11.1599C97.2628 11.5894 97.3701 11.9202 97.5849 12.1524C97.7996 12.3787 98.0927 12.4919 98.4642 12.4919C98.8356 12.4919 99.1287 12.3787 99.3435 12.1524C99.564 11.9202 99.6743 11.5894 99.6743 11.1599V8.48721H100.667ZM104.571 8.40886C104.948 8.40886 105.285 8.48721 105.581 8.64391C105.882 8.80062 106.117 9.03278 106.286 9.34039C106.454 9.64799 106.538 10.0194 106.538 10.4547V13.2842H105.554V10.6027C105.554 10.1732 105.447 9.84533 105.232 9.61897C105.018 9.38682 104.724 9.27074 104.353 9.27074C103.982 9.27074 103.686 9.38682 103.465 9.61897C103.25 9.84533 103.143 10.1732 103.143 10.6027V13.2842H102.15V8.48721H103.143V9.03568C103.305 8.83835 103.511 8.68454 103.761 8.57427C104.016 8.46399 104.286 8.40886 104.571 8.40886ZM109.911 8.40886C110.282 8.40886 110.61 8.48431 110.895 8.63521C111.185 8.78031 111.411 8.96313 111.574 9.18368V8.48721H112.575V13.3625C112.575 13.8036 112.482 14.1954 112.296 14.5378C112.111 14.886 111.841 15.1588 111.487 15.3562C111.138 15.5535 110.721 15.6522 110.233 15.6522C109.583 15.6522 109.043 15.4983 108.614 15.1907C108.184 14.8889 107.941 14.4769 107.882 13.9545H108.866C108.942 14.2041 109.101 14.4043 109.345 14.5552C109.595 14.7119 109.891 14.7903 110.233 14.7903C110.634 14.7903 110.956 14.6684 111.199 14.4246C111.449 14.1809 111.574 13.8268 111.574 13.3625V12.5616C111.405 12.7879 111.176 12.9794 110.886 13.1361C110.602 13.2871 110.277 13.3625 109.911 13.3625C109.493 13.3625 109.11 13.258 108.762 13.0491C108.419 12.8343 108.147 12.5383 107.943 12.1611C107.746 11.778 107.647 11.3456 107.647 10.8639C107.647 10.3822 107.746 9.9556 107.943 9.58415C108.147 9.2127 108.419 8.9254 108.762 8.72227C109.11 8.51333 109.493 8.40886 109.911 8.40886ZM111.574 10.8813C111.574 10.5505 111.504 10.2632 111.365 10.0194C111.231 9.77568 111.054 9.58995 110.834 9.46227C110.613 9.33458 110.375 9.27074 110.12 9.27074C109.865 9.27074 109.627 9.33458 109.406 9.46227C109.185 9.58415 109.006 9.76697 108.866 10.0107C108.733 10.2487 108.666 10.5331 108.666 10.8639C108.666 11.1947 108.733 11.4849 108.866 11.7345C109.006 11.9841 109.185 12.1756 109.406 12.3091C109.632 12.4368 109.87 12.5006 110.12 12.5006C110.375 12.5006 110.613 12.4368 110.834 12.3091C111.054 12.1814 111.231 11.9957 111.365 11.7519C111.504 11.5023 111.574 11.2121 111.574 10.8813ZM118.449 10.7681C118.449 10.9481 118.438 11.1106 118.414 11.2557H114.749C114.778 11.6387 114.92 11.9463 115.176 12.1785C115.431 12.4107 115.745 12.5267 116.116 12.5267C116.65 12.5267 117.027 12.3033 117.248 11.8564H118.319C118.174 12.2975 117.909 12.6602 117.526 12.9446C117.149 13.2232 116.679 13.3625 116.116 13.3625C115.658 13.3625 115.245 13.2609 114.88 13.0578C114.52 12.8489 114.236 12.5587 114.027 12.1872C113.824 11.81 113.722 11.3747 113.722 10.8813C113.722 10.388 113.821 9.9556 114.018 9.58415C114.221 9.20689 114.503 8.9167 114.862 8.71356C115.228 8.51042 115.646 8.40886 116.116 8.40886C116.569 8.40886 116.972 8.50752 117.326 8.70486C117.68 8.90219 117.956 9.18078 118.153 9.54062C118.351 9.89466 118.449 10.3038 118.449 10.7681ZM117.413 10.4547C117.407 10.0891 117.277 9.79599 117.021 9.57544C116.766 9.35489 116.45 9.24462 116.073 9.24462C115.73 9.24462 115.437 9.35489 115.193 9.57544C114.949 9.79019 114.804 10.0833 114.758 10.4547H117.413ZM122.02 8.40886C122.397 8.40886 122.734 8.48721 123.03 8.64391C123.332 8.80062 123.567 9.03278 123.735 9.34039C123.903 9.64799 123.988 10.0194 123.988 10.4547V13.2842H123.004V10.6027C123.004 10.1732 122.897 9.84533 122.682 9.61897C122.467 9.38682 122.174 9.27074 121.802 9.27074C121.431 9.27074 121.135 9.38682 120.914 9.61897C120.7 9.84533 120.592 10.1732 120.592 10.6027V13.2842H119.6V8.48721H120.592V9.03568C120.755 8.83835 120.961 8.68454 121.21 8.57427C121.466 8.46399 121.736 8.40886 122.02 8.40886Z" fill="#1C1B1B"/>
<path d="M25.0733 18.1812C25.0733 17.6153 25.0225 17.0712 24.9282 16.5488H17.4121V19.6394H21.707C21.5184 20.6333 20.9525 21.4749 20.1037 22.0408V24.0504H22.6937C24.2027 22.6575 25.0733 20.6116 25.0733 18.1812Z" fill="#4285F4"/>
<path d="M17.4114 25.9803C19.5661 25.9803 21.3726 25.2693 22.693 24.0505L20.103 22.0409C19.392 22.5197 18.4851 22.8099 17.4114 22.8099C15.3365 22.8099 13.5736 21.4097 12.9424 19.5234H10.2871V21.5838C11.6002 24.1883 14.2918 25.9803 17.4114 25.9803Z" fill="#34A853"/>
<path d="M12.943 19.5168C12.7834 19.0379 12.6891 18.5301 12.6891 18.0005C12.6891 17.4709 12.7834 16.963 12.943 16.4842V14.4238H10.2877C9.7436 15.4976 9.43164 16.7091 9.43164 18.0005C9.43164 19.2919 9.7436 20.5034 10.2877 21.5772L12.3554 19.9666L12.943 19.5168Z" fill="#FBBC05"/>
<path d="M17.4114 13.1972C18.5867 13.1972 19.6314 13.6035 20.4657 14.387L22.751 12.1017C21.3653 10.8103 19.5661 10.0195 17.4114 10.0195C14.2918 10.0195 11.6002 11.8115 10.2871 14.4233L12.9424 16.4836C13.5736 14.5974 15.3365 13.1972 17.4114 13.1972Z" fill="#EA4335"/>
</g>
</g>
<defs>
<clipPath id="clip0_7192_2526">
<rect width="140.745" height="35.549" fill="white" transform="translate(0 0.225586)"/>
</clipPath>
</defs>
</svg>
