<svg width="224" height="61" viewBox="0 0 224 61" fill="none" xmlns="http://www.w3.org/2000/svg">
<path opacity="0.2" d="M91.6053 27.5246V50.9405H76.6878V37.8876C76.6878 37.3931 76.4913 36.9188 76.1416 36.5691C75.7919 36.2194 75.3176 36.023 74.8231 36.023H67.3643C66.8697 36.023 66.3955 36.2194 66.0458 36.5691C65.6961 36.9188 65.4996 37.3931 65.4996 37.8876V50.9405H50.582V27.5246C50.5821 27.2647 50.6364 27.0078 50.7416 26.7701C50.8467 26.5325 51.0004 26.3195 51.1927 26.1447L69.8397 8.53734C70.183 8.22483 70.6306 8.05164 71.0949 8.05164C71.5591 8.05164 72.0067 8.22483 72.35 8.53734L90.997 26.1447C91.1889 26.3197 91.3421 26.5328 91.4469 26.7704C91.5516 27.008 91.6056 27.2649 91.6053 27.5246Z" fill="#10298E"/>
<path d="M97.1973 49.0759H93.4679V27.527C93.468 27.0109 93.3609 26.5003 93.1535 26.0277C92.946 25.5551 92.6428 25.1306 92.2628 24.7813L73.6159 7.18787C73.6067 7.17992 73.5982 7.17135 73.5902 7.16223C72.9037 6.53787 72.009 6.19189 71.081 6.19189C70.1531 6.19189 69.2584 6.53787 68.5719 7.16223L68.5462 7.18787L49.9202 24.7813C49.5403 25.1306 49.237 25.5551 49.0296 26.0277C48.8222 26.5003 48.7151 27.0109 48.7152 27.527V49.0759H44.9858C44.4912 49.0759 44.0169 49.2724 43.6673 49.6221C43.3176 49.9718 43.1211 50.4461 43.1211 50.9406C43.1211 51.4352 43.3176 51.9095 43.6673 52.2592C44.0169 52.6089 44.4912 52.8053 44.9858 52.8053H97.1973C97.6918 52.8053 98.1661 52.6089 98.5158 52.2592C98.8655 51.9095 99.062 51.4352 99.062 50.9406C99.062 50.4461 98.8655 49.9718 98.5158 49.6221C98.1661 49.2724 97.6918 49.0759 97.1973 49.0759ZM52.4446 27.527L52.4702 27.5037L71.0915 9.91732L89.7152 27.4991L89.7408 27.5224V49.0759H78.5503V37.8878C78.5503 36.8987 78.1574 35.9501 77.458 35.2507C76.7586 34.5513 75.81 34.1584 74.8209 34.1584H67.3621C66.373 34.1584 65.4245 34.5513 64.7251 35.2507C64.0257 35.9501 63.6327 36.8987 63.6327 37.8878V49.0759H52.4446V27.527ZM74.8209 49.0759H67.3621V37.8878H74.8209V49.0759Z" fill="#10298E"/>
<path opacity="0.2" d="M50.3475 27.5246V50.9405H35.43V37.8876C35.43 37.3931 35.2335 36.9188 34.8838 36.5691C34.5341 36.2194 34.0598 36.023 33.5653 36.023H26.1065C25.6119 36.023 25.1376 36.2194 24.7879 36.5691C24.4382 36.9188 24.2418 37.3931 24.2418 37.8876V50.9405H9.32422V27.5246C9.32424 27.2647 9.37858 27.0078 9.48375 26.7701C9.58891 26.5325 9.74259 26.3195 9.93491 26.1447L28.5819 8.53734C28.9252 8.22483 29.3728 8.05164 29.837 8.05164C30.3013 8.05164 30.7489 8.22483 31.0922 8.53734L49.7392 26.1447C49.9311 26.3197 50.0843 26.5328 50.1891 26.7704C50.2938 27.008 50.3478 27.2649 50.3475 27.5246Z" fill="#10298E"/>
<path d="M55.9395 49.0759H52.2101V27.527C52.2101 27.0109 52.1031 26.5003 51.8957 26.0277C51.6882 25.5551 51.3849 25.1306 51.005 24.7813L32.3581 7.18787C32.3489 7.17992 32.3404 7.17135 32.3324 7.16223C31.6459 6.53787 30.7512 6.19189 29.8232 6.19189C28.8952 6.19189 28.0006 6.53787 27.3141 7.16223L27.2884 7.18787L8.66243 24.7813C8.28249 25.1306 7.97921 25.5551 7.77178 26.0277C7.56435 26.5003 7.45729 27.0109 7.45737 27.527V49.0759H3.72798C3.23343 49.0759 2.75914 49.2724 2.40944 49.6221C2.05974 49.9718 1.86328 50.4461 1.86328 50.9406C1.86328 51.4352 2.05974 51.9095 2.40944 52.2592C2.75914 52.6089 3.23343 52.8053 3.72798 52.8053H55.9395C56.434 52.8053 56.9083 52.6089 57.258 52.2592C57.6077 51.9095 57.8042 51.4352 57.8042 50.9406C57.8042 50.4461 57.6077 49.9718 57.258 49.6221C56.9083 49.2724 56.434 49.0759 55.9395 49.0759ZM11.1868 27.527L11.2124 27.5037L29.8337 9.91732L48.4574 27.4991L48.483 27.5224V49.0759H37.2925V37.8878C37.2925 36.8987 36.8996 35.9501 36.2002 35.2507C35.5008 34.5513 34.5522 34.1584 33.5631 34.1584H26.1043C25.1152 34.1584 24.1666 34.5513 23.4673 35.2507C22.7679 35.9501 22.3749 36.8987 22.3749 37.8878V49.0759H11.1868V27.527ZM33.5631 49.0759H26.1043V37.8878H33.5631V49.0759Z" fill="#10298E"/>
<path opacity="0.2" d="M132.629 27.5246V50.9405H117.711V37.8876C117.711 37.3931 117.515 36.9188 117.165 36.5691C116.815 36.2194 116.341 36.023 115.847 36.023H108.388C107.893 36.023 107.419 36.2194 107.069 36.5691C106.719 36.9188 106.523 37.3931 106.523 37.8876V50.9405H91.6055V27.5246C91.6055 27.2647 91.6598 27.0078 91.765 26.7701C91.8702 26.5325 92.0238 26.3195 92.2162 26.1447L110.863 8.53734C111.206 8.22483 111.654 8.05164 112.118 8.05164C112.583 8.05164 113.03 8.22483 113.373 8.53734L132.02 26.1447C132.212 26.3197 132.366 26.5328 132.47 26.7704C132.575 27.008 132.629 27.2649 132.629 27.5246Z" fill="#10298E"/>
<path d="M138.221 49.0759H134.491V27.527C134.491 27.0109 134.384 26.5003 134.177 26.0277C133.969 25.5551 133.666 25.1306 133.286 24.7813L114.639 7.18787C114.63 7.17992 114.622 7.17135 114.614 7.16223C113.927 6.53787 113.032 6.19189 112.104 6.19189C111.176 6.19189 110.282 6.53787 109.595 7.16223L109.57 7.18787L90.9437 24.7813C90.5637 25.1306 90.2605 25.5551 90.053 26.0277C89.8456 26.5003 89.7385 27.0109 89.7386 27.527V49.0759H86.0092C85.5147 49.0759 85.0404 49.2724 84.6907 49.6221C84.341 49.9718 84.1445 50.4461 84.1445 50.9406C84.1445 51.4352 84.341 51.9095 84.6907 52.2592C85.0404 52.6089 85.5147 52.8053 86.0092 52.8053H138.221C138.715 52.8053 139.19 52.6089 139.539 52.2592C139.889 51.9095 140.085 51.4352 140.085 50.9406C140.085 50.4461 139.889 49.9718 139.539 49.6221C139.19 49.2724 138.715 49.0759 138.221 49.0759ZM93.468 27.527L93.4937 27.5037L112.115 9.91732L130.739 27.4991L130.764 27.5224V49.0759H119.574V37.8878C119.574 36.8987 119.181 35.9501 118.481 35.2507C117.782 34.5513 116.833 34.1584 115.844 34.1584H108.386C107.396 34.1584 106.448 34.5513 105.749 35.2507C105.049 35.9501 104.656 36.8987 104.656 37.8878V49.0759H93.468V27.527ZM115.844 49.0759H108.386V37.8878H115.844V49.0759Z" fill="#10298E"/>
<path opacity="0.2" d="M214.676 27.5246V50.9405H199.758V37.8876C199.758 37.3931 199.562 36.9188 199.212 36.5691C198.862 36.2194 198.388 36.023 197.893 36.023H190.435C189.94 36.023 189.466 36.2194 189.116 36.5691C188.766 36.9188 188.57 37.3931 188.57 37.8876V50.9405H173.652V27.5246C173.652 27.2647 173.707 27.0078 173.812 26.7701C173.917 26.5325 174.071 26.3195 174.263 26.1447L192.91 8.53734C193.253 8.22483 193.701 8.05164 194.165 8.05164C194.629 8.05164 195.077 8.22483 195.42 8.53734L214.067 26.1447C214.259 26.3197 214.412 26.5328 214.517 26.7704C214.622 27.008 214.676 27.2649 214.676 27.5246Z" fill="#10298E"/>
<path d="M220.268 49.0759H216.538V27.527C216.538 27.0109 216.431 26.5003 216.224 26.0277C216.016 25.5551 215.713 25.1306 215.333 24.7813L196.686 7.18787C196.677 7.17992 196.668 7.17135 196.661 7.16223C195.974 6.53787 195.079 6.19189 194.151 6.19189C193.223 6.19189 192.329 6.53787 191.642 7.16223L191.617 7.18787L172.991 24.7813C172.611 25.1306 172.307 25.5551 172.1 26.0277C171.892 26.5003 171.785 27.0109 171.785 27.527V49.0759H168.056C167.562 49.0759 167.087 49.2724 166.738 49.6221C166.388 49.9718 166.191 50.4461 166.191 50.9406C166.191 51.4352 166.388 51.9095 166.738 52.2592C167.087 52.6089 167.562 52.8053 168.056 52.8053H220.268C220.762 52.8053 221.236 52.6089 221.586 52.2592C221.936 51.9095 222.132 51.4352 222.132 50.9406C222.132 50.4461 221.936 49.9718 221.586 49.6221C221.236 49.2724 220.762 49.0759 220.268 49.0759ZM175.515 27.527L175.541 27.5037L194.162 9.91732L212.785 27.4991L212.811 27.5224V49.0759H201.621V37.8878C201.621 36.8987 201.228 35.9501 200.528 35.2507C199.829 34.5513 198.88 34.1584 197.891 34.1584H190.432C189.443 34.1584 188.495 34.5513 187.795 35.2507C187.096 35.9501 186.703 36.8987 186.703 37.8878V49.0759H175.515V27.527ZM197.891 49.0759H190.432V37.8878H197.891V49.0759Z" fill="#10298E"/>
<path opacity="0.2" d="M173.66 27.5246V50.9405H158.742V37.8876C158.742 37.3931 158.546 36.9188 158.196 36.5691C157.847 36.2194 157.372 36.023 156.878 36.023H149.419C148.924 36.023 148.45 36.2194 148.1 36.5691C147.751 36.9188 147.554 37.3931 147.554 37.8876V50.9405H132.637V27.5246C132.637 27.2647 132.691 27.0078 132.796 26.7701C132.901 26.5325 133.055 26.3195 133.247 26.1447L151.894 8.53734C152.238 8.22483 152.685 8.05164 153.15 8.05164C153.614 8.05164 154.061 8.22483 154.405 8.53734L173.052 26.1447C173.244 26.3197 173.397 26.5328 173.502 26.7704C173.606 27.008 173.66 27.2649 173.66 27.5246Z" fill="#10298E"/>
<path d="M179.252 49.0759H175.523V27.527C175.523 27.0109 175.416 26.5003 175.208 26.0277C175.001 25.5551 174.697 25.1306 174.318 24.7813L155.671 7.18787C155.661 7.17992 155.653 7.17135 155.645 7.16223C154.958 6.53787 154.064 6.19189 153.136 6.19189C152.208 6.19189 151.313 6.53787 150.627 7.16223L150.601 7.18787L131.975 24.7813C131.595 25.1306 131.292 25.5551 131.084 26.0277C130.877 26.5003 130.77 27.0109 130.77 27.527V49.0759H127.04C126.546 49.0759 126.072 49.2724 125.722 49.6221C125.372 49.9718 125.176 50.4461 125.176 50.9406C125.176 51.4352 125.372 51.9095 125.722 52.2592C126.072 52.6089 126.546 52.8053 127.04 52.8053H179.252C179.747 52.8053 180.221 52.6089 180.571 52.2592C180.92 51.9095 181.117 51.4352 181.117 50.9406C181.117 50.4461 180.92 49.9718 180.571 49.6221C180.221 49.2724 179.747 49.0759 179.252 49.0759ZM134.499 27.527L134.525 27.5037L153.146 9.91732L171.77 27.4991L171.796 27.5224V49.0759H160.605V37.8878C160.605 36.8987 160.212 35.9501 159.513 35.2507C158.813 34.5513 157.865 34.1584 156.876 34.1584H149.417C148.428 34.1584 147.479 34.5513 146.78 35.2507C146.08 35.9501 145.687 36.8987 145.687 37.8878V49.0759H134.499V27.527ZM156.876 49.0759H149.417V37.8878H156.876V49.0759Z" fill="#10298E"/>
</svg>
