<svg width="48" height="30" viewBox="0 0 48 30" fill="none" xmlns="http://www.w3.org/2000/svg">
<g clip-path="url(#clip0)">
<path d="M16.057 13.914C15.8783 14.1876 15.5789 14.691 15.3979 14.9809C15.3051 15.1286 15.1403 15.394 15.6903 15.394H18.596L19.457 14.0262C19.9908 13.1727 19.5011 11.3945 17.6003 11.3945H10.0786L8.77433 13.4818H15.8783C16.2357 13.4709 16.2311 13.6323 16.057 13.914ZM13.9219 15.9083C13.3695 15.9083 13.5366 15.6347 13.6294 15.4952C13.8105 15.2052 14.1145 14.7183 14.2909 14.4311C14.4673 14.1438 14.4719 13.9906 14.1122 13.9906H10.8631L8.24287 18.1843H14.6251C16.7324 18.1843 17.9067 16.4937 18.2687 15.911C18.2734 15.9083 14.509 15.9083 13.9219 15.9083ZM18.0738 18.1843H21.8172L23.2376 15.9083H19.4941L18.0738 18.1843ZM27.7376 11.3945L26.301 13.6924H24.6277L26.062 11.3945H22.3185L19.8144 15.394H28.9723L31.4764 11.3945H27.7376ZM23.4882 18.1843H27.2317L28.652 15.911H24.9085L23.4882 18.1843ZM2.90503 16.8056V17.2898H8.11987L8.42157 16.8056H2.90503ZM8.98089 15.9083H2.90503V16.3925H8.67918L8.98089 15.9083ZM2.90503 18.1843H7.56055L7.85994 17.7029H2.90503V18.1843ZM38.1974 17.2898H43.6931V16.8056H38.4991L38.1974 17.2898ZM37.6404 18.1843H43.6931V17.7029H37.9491L37.6404 18.1843ZM39.0585 15.9083L38.7591 16.3925H43.6931V15.9083H39.0585ZM34.1569 15.394L36.6611 11.3945H32.6971L30.1907 15.4022L34.1569 15.394ZM29.8704 15.9083L29.462 16.5621C28.9978 17.3117 29.4086 18.1843 30.9426 18.1843H36.9535L38.3738 15.9083H29.8704Z" fill="white"/>
</g>
<g opacity="0.4">
<path d="M2.09116 1.03515H45.9035C46.8616 1.03515 47.6384 1.81192 47.6384 2.77012V27.5336C47.6384 28.4918 46.8616 29.2685 45.9035 29.2685H2.09116C1.13297 29.2685 0.356199 28.4918 0.356199 27.5336V2.77012C0.356199 1.81192 1.13297 1.03515 2.09116 1.03515Z" stroke="white" stroke-width="0.33984"/>
</g>
<defs>
<clipPath id="clip0">
<rect width="40.7881" height="6.79801" fill="white" transform="translate(2.90503 11.3848)"/>
</clipPath>
</defs>
</svg>
