<svg width="30" height="30" viewBox="0 0 30 30" fill="none" xmlns="http://www.w3.org/2000/svg">
<path d="M13.608 7.95205V7.10274C12.3794 7.32248 11.2185 7.82472 10.2167 8.56992C9.21485 9.31512 8.39941 10.283 7.83454 11.3973C7.37036 12.3188 7.08706 13.3209 7 14.3493C9.15477 12.5479 12.8076 9.4863 13.1086 9.21918C13.2789 9.05708 13.4118 8.85972 13.4981 8.64086C13.5843 8.422 13.6218 8.18693 13.608 7.95205ZM16.9461 11.9589C17.2221 11.7293 17.4742 11.4722 17.6986 11.1918C18.0257 10.7268 18.2003 10.1715 18.1979 9.60274C18.1979 9.60274 18.1979 9.56164 18.1979 9.5411V7.84247C18.2 7.78398 18.1857 7.72609 18.1567 7.67528C18.1277 7.62447 18.0851 7.58275 18.0338 7.55479C17.3268 7.26743 16.583 7.08068 15.8243 7V8.73288C15.8333 9.05394 15.7697 9.37289 15.6382 9.66586C15.5067 9.95883 15.3107 10.2182 15.065 10.4247L8.90851 15.589C8.34986 16.0583 7.98323 16.717 7.87852 17.4395C7.77381 18.1621 7.93834 18.898 8.34074 19.5069C8.49808 19.7397 8.66909 19.9658 8.84694 20.1918C9.07811 20.4681 9.32719 20.729 9.59256 20.9726V19.5069C9.5947 19.0666 9.69248 18.6322 9.87912 18.2336C10.0658 17.835 10.3368 17.4818 10.6734 17.1986L16.6999 12.137L16.9461 11.9589ZM22.9863 15.6644C20.8384 17.4658 17.1855 20.5274 16.8846 20.7945C16.712 20.957 16.5767 21.155 16.4881 21.375C16.3995 21.595 16.3598 21.8316 16.3715 22.0685V22.9178C17.7572 22.6687 19.054 22.062 20.1338 21.1575C20.9761 20.4681 21.6677 19.6124 22.1655 18.6438C22.6366 17.725 22.9202 16.7215 23 15.6918C23 15.6918 23 15.6712 22.9863 15.6644ZM21.6593 10.5137C21.5023 10.2752 21.3309 10.0465 21.1462 9.82877C20.9144 9.55291 20.6629 9.29424 20.3938 9.05479V10.4931C20.3917 10.9341 20.2933 11.3692 20.1054 11.7679C19.9175 12.1667 19.6447 12.5194 19.3061 12.8014C19.3061 12.8014 13.3412 17.8151 13.2864 17.8699L13.0744 18.0479C12.7984 18.2776 12.5463 18.5346 12.3219 18.8151C11.9924 19.2792 11.8154 19.8346 11.8157 20.4041V22.1507C11.8129 22.2093 11.8268 22.2675 11.8559 22.3185C11.885 22.3694 11.928 22.411 11.9799 22.4384C12.6867 22.7276 13.4304 22.9166 14.1894 23V21.2603C14.1863 20.9434 14.2534 20.6298 14.3859 20.342C14.5184 20.0542 14.7129 19.7994 14.9555 19.5959L21.112 14.4384C21.6692 13.966 22.0331 13.3046 22.134 12.5807C22.235 11.8567 22.066 11.1208 21.6593 10.5137Z" fill="#111111"/>
</svg>
