<svg width="38" height="39" viewBox="0 0 38 39" fill="none" xmlns="http://www.w3.org/2000/svg">
<rect y="0.568359" width="38" height="38" rx="19" fill="#10109C" fill-opacity="0.1"/>
<mask id="mask0_7306_20220" style="mask-type:alpha" maskUnits="userSpaceOnUse" x="0" y="0" width="38" height="39">
<rect y="0.568359" width="38" height="38" fill="#D9D9D9"/>
</mask>
<g mask="url(#mask0_7306_20220)">
<path d="M18.0003 24.5642H19.9987V18.5692H18.0003V24.5642ZM18.9995 16.5708C19.2826 16.5708 19.5199 16.4751 19.7114 16.2836C19.9029 16.0921 19.9987 15.8548 19.9987 15.5717C19.9987 15.2886 19.9029 15.0513 19.7114 14.8598C19.5199 14.6683 19.2826 14.5725 18.9995 14.5725C18.7164 14.5725 18.4791 14.6683 18.2876 14.8598C18.0961 15.0513 18.0003 15.2886 18.0003 15.5717C18.0003 15.8548 18.0961 16.0921 18.2876 16.2836C18.4791 16.4751 18.7164 16.5708 18.9995 16.5708ZM18.9995 29.5601C17.6173 29.5601 16.3184 29.2978 15.1027 28.7732C13.8871 28.2486 12.8296 27.5367 11.9304 26.6375C11.0311 25.7382 10.3192 24.6808 9.79466 23.4651C9.27009 22.2495 9.00781 20.9505 9.00781 19.5684C9.00781 18.1862 9.27009 16.8873 9.79466 15.6716C10.3192 14.4559 11.0311 13.3985 11.9304 12.4992C12.8296 11.6 13.8871 10.8881 15.1027 10.3635C16.3184 9.83894 17.6173 9.57666 18.9995 9.57666C20.3817 9.57666 21.6806 9.83894 22.8963 10.3635C24.1119 10.8881 25.1694 11.6 26.0686 12.4992C26.9679 13.3985 27.6798 14.4559 28.2044 15.6716C28.7289 16.8873 28.9912 18.1862 28.9912 19.5684C28.9912 20.9505 28.7289 22.2495 28.2044 23.4651C27.6798 24.6808 26.9679 25.7382 26.0686 26.6375C25.1694 27.5367 24.1119 28.2486 22.8963 28.7732C21.6806 29.2978 20.3817 29.5601 18.9995 29.5601ZM18.9995 27.5617C21.231 27.5617 23.1211 26.7874 24.6698 25.2386C26.2185 23.6899 26.9929 21.7998 26.9929 19.5684C26.9929 17.3369 26.2185 15.4468 24.6698 13.8981C23.1211 12.3494 21.231 11.575 18.9995 11.575C16.768 11.575 14.8779 12.3494 13.3292 13.8981C11.7805 15.4468 11.0062 17.3369 11.0062 19.5684C11.0062 21.7998 11.7805 23.6899 13.3292 25.2386C14.8779 26.7874 16.768 27.5617 18.9995 27.5617Z" fill="#000030"/>
</g>
</svg>
