<svg width="22" height="22" viewBox="0 0 22 22" fill="none" xmlns="http://www.w3.org/2000/svg">
<mask id="mask0_7306_26256" style="mask-type:alpha" maskUnits="userSpaceOnUse" x="0" y="0" width="22" height="22">
<rect width="22" height="22" fill="#D9D9D9"/>
</mask>
<g mask="url(#mask0_7306_26256)">
<path d="M10.0859 15.583H11.9193V10.083H10.0859V15.583ZM11.0026 8.24967C11.2623 8.24967 11.48 8.16183 11.6557 7.98613C11.8314 7.81044 11.9193 7.59273 11.9193 7.33301C11.9193 7.07329 11.8314 6.85558 11.6557 6.67988C11.48 6.50419 11.2623 6.41634 11.0026 6.41634C10.7429 6.41634 10.5252 6.50419 10.3495 6.67988C10.1738 6.85558 10.0859 7.07329 10.0859 7.33301C10.0859 7.59273 10.1738 7.81044 10.3495 7.98613C10.5252 8.16183 10.7429 8.24967 11.0026 8.24967ZM11.0026 20.1663C9.73455 20.1663 8.54288 19.9257 7.4276 19.4445C6.31233 18.9632 5.34219 18.3101 4.51719 17.4851C3.69219 16.6601 3.03906 15.69 2.55781 14.5747C2.07656 13.4594 1.83594 12.2677 1.83594 10.9997C1.83594 9.73162 2.07656 8.53995 2.55781 7.42467C3.03906 6.3094 3.69219 5.33926 4.51719 4.51426C5.34219 3.68926 6.31233 3.03613 7.4276 2.55488C8.54288 2.07363 9.73455 1.83301 11.0026 1.83301C12.2707 1.83301 13.4623 2.07363 14.5776 2.55488C15.6929 3.03613 16.663 3.68926 17.488 4.51426C18.313 5.33926 18.9661 6.3094 19.4474 7.42467C19.9286 8.53995 20.1693 9.73162 20.1693 10.9997C20.1693 12.2677 19.9286 13.4594 19.4474 14.5747C18.9661 15.69 18.313 16.6601 17.488 17.4851C16.663 18.3101 15.6929 18.9632 14.5776 19.4445C13.4623 19.9257 12.2707 20.1663 11.0026 20.1663ZM11.0026 18.333C13.0498 18.333 14.7839 17.6226 16.2047 16.2018C17.6255 14.7809 18.3359 13.0469 18.3359 10.9997C18.3359 8.95245 17.6255 7.21842 16.2047 5.79759C14.7839 4.37676 13.0498 3.66634 11.0026 3.66634C8.95538 3.66634 7.22135 4.37676 5.80052 5.79759C4.37969 7.21842 3.66927 8.95245 3.66927 10.9997C3.66927 13.0469 4.37969 14.7809 5.80052 16.2018C7.22135 17.6226 8.95538 18.333 11.0026 18.333Z" fill="#000030"/>
</g>
</svg>
