<svg width="80" height="80" viewBox="0 0 80 80" fill="none" xmlns="http://www.w3.org/2000/svg">
<path opacity="0.2" d="M76.7688 40.3127L67.8125 49.269C67.3438 49.7365 66.7089 49.9991 66.0469 49.9991C65.3849 49.9991 64.7499 49.7365 64.2812 49.269L52.5313 37.5002L43.7813 46.2502L33.7812 36.2502L42.5313 27.5002L25 9.93147C30.0854 7.63411 35.7503 6.94177 41.2393 7.94677C46.7283 8.95177 51.7804 11.6063 55.7219 15.5565L76.7688 36.7721C77.0017 37.0043 77.1865 37.2803 77.3125 37.584C77.4386 37.8878 77.5035 38.2135 77.5035 38.5424C77.5035 38.8713 77.4386 39.197 77.3125 39.5008C77.1865 39.8046 77.0017 40.0805 76.7688 40.3127Z" fill="#10298E"/>
<path d="M78.5422 34.9997L57.461 13.7747C51.8307 8.15576 44.2013 5 36.2469 5C28.2925 5 20.6631 8.15576 15.0328 13.7747L15.0047 13.8029L10.7016 18.2497C10.2558 18.7288 10.0157 19.3635 10.0326 20.0176C10.0496 20.6718 10.3224 21.2932 10.7924 21.7484C11.2624 22.2037 11.8922 22.4566 12.5465 22.4527C13.2008 22.4489 13.8276 22.1886 14.2922 21.7279L18.5828 17.2966C20.3091 15.5707 22.279 14.1073 24.4297 12.9529L38.961 27.4997L8.96096 57.4997C8.49655 57.964 8.12815 58.5153 7.87681 59.122C7.62546 59.7287 7.49609 60.379 7.49609 61.0357C7.49609 61.6924 7.62546 62.3427 7.87681 62.9494C8.12815 63.5561 8.49655 64.1073 8.96096 64.5716L15.4266 71.0372C15.8909 71.5016 16.4421 71.87 17.0488 72.1214C17.6555 72.3727 18.3058 72.5021 18.9625 72.5021C19.6192 72.5021 20.2695 72.3727 20.8762 72.1214C21.4829 71.87 22.0342 71.5016 22.4985 71.0372L52.4985 41.0372L56.9797 45.5185L62.4985 51.031C62.9628 51.4954 63.514 51.8638 64.1207 52.1151C64.7274 52.3665 65.3777 52.4959 66.0344 52.4958C66.6911 52.4959 67.3414 52.3665 67.9481 52.1151C68.5548 51.8638 69.106 51.4954 69.5703 51.031L78.536 42.0654C79.4728 41.1287 79.9997 39.8586 80.0008 38.5338C80.002 37.2091 79.4774 35.938 78.5422 34.9997ZM18.961 67.4997L12.4985 61.0341L33.7485 39.7841L40.211 46.2497L18.961 67.4997ZM50.7297 35.7247L43.7485 42.7091L37.2828 36.2497L44.2672 29.2654C44.4997 29.0332 44.6841 28.7575 44.8099 28.454C44.9357 28.1505 45.0004 27.8251 45.0004 27.4966C45.0004 27.1681 44.9357 26.8428 44.8099 26.5393C44.6841 26.2358 44.4997 25.96 44.2672 25.7279L29.4735 10.9372C33.7476 9.73347 38.2653 9.68984 42.5619 10.8108C46.8585 11.9318 50.779 14.1769 53.9203 17.3154L67.7391 31.2247L58.7485 40.206L54.2672 35.7247C54.035 35.4923 53.7593 35.3079 53.4558 35.1821C53.1523 35.0563 52.827 34.9915 52.4985 34.9915C52.1699 34.9915 51.8446 35.0563 51.5411 35.1821C51.2376 35.3079 50.9619 35.4923 50.7297 35.7247ZM66.0422 47.4935L62.2922 43.7435L71.2485 34.7654L74.9985 38.5154L66.0422 47.4935Z" fill="#10298E"/>
</svg>
