<svg width="80" height="80" viewBox="0 0 80 80" fill="none" xmlns="http://www.w3.org/2000/svg">
<path opacity="0.2" d="M40 32.5H10V17.5H40V32.5ZM55 32.5V47.5H40V62.5H70V32.5H55Z" fill="#10298E"/>
<path d="M70 15H10C9.33696 15 8.70107 15.2634 8.23223 15.7322C7.76339 16.2011 7.5 16.837 7.5 17.5V62.5C7.5 63.163 7.76339 63.7989 8.23223 64.2678C8.70107 64.7366 9.33696 65 10 65H70C70.663 65 71.2989 64.7366 71.7678 64.2678C72.2366 63.7989 72.5 63.163 72.5 62.5V17.5C72.5 16.837 72.2366 16.2011 71.7678 15.7322C71.2989 15.2634 70.663 15 70 15ZM27.5 45V35H52.5V45H27.5ZM12.5 45V35H22.5V45H12.5ZM57.5 35H67.5V45H57.5V35ZM67.5 30H42.5V20H67.5V30ZM37.5 20V30H12.5V20H37.5ZM12.5 50H37.5V60H12.5V50ZM42.5 60V50H67.5V60H42.5Z" fill="#10298E"/>
</svg>
