<svg width="28" height="100" viewBox="0 0 28 100" fill="none" xmlns="http://www.w3.org/2000/svg">
<path d="M1.20742 98.6362C1.24461 99.362 1.86309 99.9201 2.58883 99.8829L14.4154 99.2769C15.1411 99.2397 15.6993 98.6212 15.6621 97.8955C15.6249 97.1697 15.0065 96.6115 14.2807 96.6487L3.76821 97.1875L3.22948 86.6749C3.19229 85.9492 2.57381 85.391 1.84807 85.4282C1.12233 85.4654 0.564156 86.0839 0.601348 86.8096L1.20742 98.6362ZM1.34963 1.59838C4.14292 7.0687 8.52047 12.7811 12.5963 18.8128C16.7198 24.915 20.6385 31.4757 22.7976 38.9091C27.0678 53.6108 24.5731 72.1712 1.54468 97.6873L3.49829 99.4504C26.9304 73.4869 29.9249 54.0129 25.3247 38.1751C23.0485 30.3386 18.942 23.5034 14.7768 17.3394C10.5639 11.105 6.38929 5.6813 3.69334 0.40162L1.34963 1.59838Z" fill="#0DBD74"/>
</svg>
