<svg width="25" height="25" viewBox="0 0 25 25" fill="none" xmlns="http://www.w3.org/2000/svg">
<g clip-path="url(#clip0_7192_4583)">
<path d="M22.7488 0.755859H2.29217C1.8223 0.755859 1.37167 0.942517 1.03942 1.27477C0.707165 1.60702 0.520508 2.05765 0.520508 2.52753V22.9842C0.520508 23.4541 0.707165 23.9047 1.03942 24.237C1.37167 24.5692 1.8223 24.7559 2.29217 24.7559H22.7488C23.2187 24.7559 23.6693 24.5692 24.0016 24.237C24.3339 23.9047 24.5205 23.4541 24.5205 22.9842V2.52753C24.5205 2.05765 24.3339 1.60702 24.0016 1.27477C23.6693 0.942517 23.2187 0.755859 22.7488 0.755859ZM7.67384 21.2009H4.06551V9.73919H7.67384V21.2009ZM5.86718 8.15086C5.45787 8.14855 5.05842 8.02505 4.71924 7.79595C4.38006 7.56684 4.11635 7.24239 3.96139 6.86355C3.80642 6.48471 3.76716 6.06845 3.84854 5.66731C3.92992 5.26618 4.12831 4.89814 4.41866 4.60964C4.70902 4.32115 5.07832 4.12513 5.47997 4.04632C5.88163 3.96751 6.29762 4.00945 6.67546 4.16684C7.0533 4.32424 7.37605 4.59003 7.60297 4.93067C7.8299 5.27132 7.95083 5.67155 7.95051 6.08086C7.95437 6.35489 7.90302 6.6269 7.79952 6.88066C7.69602 7.13443 7.54249 7.36476 7.34808 7.55793C7.15367 7.75109 6.92236 7.90314 6.66793 8.00501C6.41351 8.10688 6.14118 8.15648 5.86718 8.15086ZM20.9738 21.2109H17.3672V14.9492C17.3672 13.1025 16.5822 12.5325 15.5688 12.5325C14.4988 12.5325 13.4488 13.3392 13.4488 14.9959V21.2109H9.84051V9.74753H13.3105V11.3359H13.3572C13.7055 10.6309 14.9255 9.42586 16.7872 9.42586C18.8005 9.42586 20.9755 10.6209 20.9755 14.1209L20.9738 21.2109Z" fill="white"/>
</g>
<defs>
<clipPath id="clip0_7192_4583">
<rect width="24" height="24" fill="white" transform="translate(0.520508 0.755859)"/>
</clipPath>
</defs>
</svg>
