<svg width="19" height="19" viewBox="0 0 19 19" fill="none" xmlns="http://www.w3.org/2000/svg">
<path d="M9.4987 1.58301C6.43495 1.58301 3.95703 4.06092 3.95703 7.12467C3.95703 11.2809 9.4987 17.4163 9.4987 17.4163C9.4987 17.4163 15.0404 11.2809 15.0404 7.12467C15.0404 4.06092 12.5624 1.58301 9.4987 1.58301ZM5.54036 7.12467C5.54036 4.93967 7.3137 3.16634 9.4987 3.16634C11.6837 3.16634 13.457 4.93967 13.457 7.12467C13.457 9.40468 11.177 12.8168 9.4987 14.9463C7.85203 12.8326 5.54036 9.38093 5.54036 7.12467Z" fill="#A38756"/>
<path d="M9.4987 9.10384C10.5918 9.10384 11.4779 8.21774 11.4779 7.12467C11.4779 6.03161 10.5918 5.14551 9.4987 5.14551C8.40563 5.14551 7.51953 6.03161 7.51953 7.12467C7.51953 8.21774 8.40563 9.10384 9.4987 9.10384Z" fill="#A38756"/>
</svg>
