<svg width="252" height="80" viewBox="0 0 252 80" fill="none" xmlns="http://www.w3.org/2000/svg">
<path opacity="0.2" d="M67.5039 27.5V57.5C67.5039 59.4891 66.7137 61.3968 65.3072 62.8033C63.9007 64.2098 61.993 65 60.0039 65H20.0039C18.0148 65 16.1071 64.2098 14.7006 62.8033C13.2941 61.3968 12.5039 59.4891 12.5039 57.5V27.5C12.5039 26.837 12.7673 26.2011 13.2361 25.7322C13.705 25.2634 14.3409 25 15.0039 25H65.0039C65.6669 25 66.3028 25.2634 66.7717 25.7322C67.2405 26.2011 67.5039 26.837 67.5039 27.5Z" fill="#10298E"/>
<path d="M27.5039 15V5C27.5039 4.33696 27.7673 3.70107 28.2361 3.23223C28.705 2.76339 29.3409 2.5 30.0039 2.5C30.667 2.5 31.3028 2.76339 31.7717 3.23223C32.2405 3.70107 32.5039 4.33696 32.5039 5V15C32.5039 15.663 32.2405 16.2989 31.7717 16.7678C31.3028 17.2366 30.667 17.5 30.0039 17.5C29.3409 17.5 28.705 17.2366 28.2361 16.7678C27.7673 16.2989 27.5039 15.663 27.5039 15ZM40.0039 17.5C40.667 17.5 41.3028 17.2366 41.7717 16.7678C42.2405 16.2989 42.5039 15.663 42.5039 15V5C42.5039 4.33696 42.2405 3.70107 41.7717 3.23223C41.3028 2.76339 40.667 2.5 40.0039 2.5C39.3409 2.5 38.705 2.76339 38.2361 3.23223C37.7673 3.70107 37.5039 4.33696 37.5039 5V15C37.5039 15.663 37.7673 16.2989 38.2361 16.7678C38.705 17.2366 39.3409 17.5 40.0039 17.5ZM50.0039 17.5C50.667 17.5 51.3028 17.2366 51.7717 16.7678C52.2405 16.2989 52.5039 15.663 52.5039 15V5C52.5039 4.33696 52.2405 3.70107 51.7717 3.23223C51.3028 2.76339 50.667 2.5 50.0039 2.5C49.3409 2.5 48.705 2.76339 48.2361 3.23223C47.7673 3.70107 47.5039 4.33696 47.5039 5V15C47.5039 15.663 47.7673 16.2989 48.2361 16.7678C48.705 17.2366 49.3409 17.5 50.0039 17.5ZM79.0039 32L70.0039 38.75V57.5C70.0039 60.1522 68.9503 62.6957 67.075 64.5711C65.1996 66.4464 62.6561 67.5 60.0039 67.5H20.0039C17.3518 67.5 14.8082 66.4464 12.9328 64.5711C11.0575 62.6957 10.0039 60.1522 10.0039 57.5V38.75L1.00392 32C0.473483 31.6022 0.122811 31.0099 0.0290427 30.3536C-0.0647255 29.6972 0.106092 29.0304 0.503916 28.5C0.901741 27.9696 1.49399 27.6189 2.15036 27.5251C2.80674 27.4314 3.47348 27.6022 4.00392 28L10.0039 32.5V27.5C10.0039 26.1739 10.5307 24.9021 11.4684 23.9645C12.4061 23.0268 13.6778 22.5 15.0039 22.5H65.0039C66.33 22.5 67.6018 23.0268 68.5394 23.9645C69.4771 24.9021 70.0039 26.1739 70.0039 27.5V32.5L76.0039 28C76.5343 27.6022 77.2011 27.4314 77.8575 27.5251C78.5138 27.6189 79.1061 27.9696 79.5039 28.5C79.9017 29.0304 80.0726 29.6972 79.9788 30.3536C79.885 31.0099 79.5343 31.6022 79.0039 32ZM65.0039 27.5H15.0039V57.5C15.0039 58.8261 15.5307 60.0979 16.4684 61.0355C17.4061 61.9732 18.6778 62.5 20.0039 62.5H60.0039C61.33 62.5 62.6018 61.9732 63.5394 61.0355C64.4771 60.0979 65.0039 58.8261 65.0039 57.5V27.5Z" fill="#10298E"/>
<path opacity="0.2" d="M153.504 27.5V57.5C153.504 59.4891 152.714 61.3968 151.307 62.8033C149.901 64.2098 147.993 65 146.004 65H106.004C104.015 65 102.107 64.2098 100.701 62.8033C99.2941 61.3968 98.5039 59.4891 98.5039 57.5V27.5C98.5039 26.837 98.7673 26.2011 99.2361 25.7322C99.705 25.2634 100.341 25 101.004 25H151.004C151.667 25 152.303 25.2634 152.772 25.7322C153.241 26.2011 153.504 26.837 153.504 27.5Z" fill="#10298E"/>
<path d="M113.504 15V5C113.504 4.33696 113.767 3.70107 114.236 3.23223C114.705 2.76339 115.341 2.5 116.004 2.5C116.667 2.5 117.303 2.76339 117.772 3.23223C118.241 3.70107 118.504 4.33696 118.504 5V15C118.504 15.663 118.241 16.2989 117.772 16.7678C117.303 17.2366 116.667 17.5 116.004 17.5C115.341 17.5 114.705 17.2366 114.236 16.7678C113.767 16.2989 113.504 15.663 113.504 15ZM126.004 17.5C126.667 17.5 127.303 17.2366 127.772 16.7678C128.241 16.2989 128.504 15.663 128.504 15V5C128.504 4.33696 128.241 3.70107 127.772 3.23223C127.303 2.76339 126.667 2.5 126.004 2.5C125.341 2.5 124.705 2.76339 124.236 3.23223C123.767 3.70107 123.504 4.33696 123.504 5V15C123.504 15.663 123.767 16.2989 124.236 16.7678C124.705 17.2366 125.341 17.5 126.004 17.5ZM136.004 17.5C136.667 17.5 137.303 17.2366 137.772 16.7678C138.241 16.2989 138.504 15.663 138.504 15V5C138.504 4.33696 138.241 3.70107 137.772 3.23223C137.303 2.76339 136.667 2.5 136.004 2.5C135.341 2.5 134.705 2.76339 134.236 3.23223C133.767 3.70107 133.504 4.33696 133.504 5V15C133.504 15.663 133.767 16.2989 134.236 16.7678C134.705 17.2366 135.341 17.5 136.004 17.5ZM165.004 32L156.004 38.75V57.5C156.004 60.1522 154.95 62.6957 153.075 64.5711C151.2 66.4464 148.656 67.5 146.004 67.5H106.004C103.352 67.5 100.808 66.4464 98.9328 64.5711C97.0575 62.6957 96.0039 60.1522 96.0039 57.5V38.75L87.0039 32C86.4735 31.6022 86.1228 31.0099 86.029 30.3536C85.9353 29.6972 86.1061 29.0304 86.5039 28.5C86.9017 27.9696 87.494 27.6189 88.1504 27.5251C88.8067 27.4314 89.4735 27.6022 90.0039 28L96.0039 32.5V27.5C96.0039 26.1739 96.5307 24.9021 97.4684 23.9645C98.4061 23.0268 99.6778 22.5 101.004 22.5H151.004C152.33 22.5 153.602 23.0268 154.539 23.9645C155.477 24.9021 156.004 26.1739 156.004 27.5V32.5L162.004 28C162.534 27.6022 163.201 27.4314 163.857 27.5251C164.514 27.6189 165.106 27.9696 165.504 28.5C165.902 29.0304 166.073 29.6972 165.979 30.3536C165.885 31.0099 165.534 31.6022 165.004 32ZM151.004 27.5H101.004V57.5C101.004 58.8261 101.531 60.0979 102.468 61.0355C103.406 61.9732 104.678 62.5 106.004 62.5H146.004C147.33 62.5 148.602 61.9732 149.539 61.0355C150.477 60.0979 151.004 58.8261 151.004 57.5V27.5Z" fill="#10298E"/>
<path opacity="0.2" d="M239.504 27.5V57.5C239.504 59.4891 238.714 61.3968 237.307 62.8033C235.901 64.2098 233.993 65 232.004 65H192.004C190.015 65 188.107 64.2098 186.701 62.8033C185.294 61.3968 184.504 59.4891 184.504 57.5V27.5C184.504 26.837 184.767 26.2011 185.236 25.7322C185.705 25.2634 186.341 25 187.004 25H237.004C237.667 25 238.303 25.2634 238.772 25.7322C239.241 26.2011 239.504 26.837 239.504 27.5Z" fill="#10298E"/>
<path d="M199.504 15V5C199.504 4.33696 199.767 3.70107 200.236 3.23223C200.705 2.76339 201.341 2.5 202.004 2.5C202.667 2.5 203.303 2.76339 203.772 3.23223C204.241 3.70107 204.504 4.33696 204.504 5V15C204.504 15.663 204.241 16.2989 203.772 16.7678C203.303 17.2366 202.667 17.5 202.004 17.5C201.341 17.5 200.705 17.2366 200.236 16.7678C199.767 16.2989 199.504 15.663 199.504 15ZM212.004 17.5C212.667 17.5 213.303 17.2366 213.772 16.7678C214.241 16.2989 214.504 15.663 214.504 15V5C214.504 4.33696 214.241 3.70107 213.772 3.23223C213.303 2.76339 212.667 2.5 212.004 2.5C211.341 2.5 210.705 2.76339 210.236 3.23223C209.767 3.70107 209.504 4.33696 209.504 5V15C209.504 15.663 209.767 16.2989 210.236 16.7678C210.705 17.2366 211.341 17.5 212.004 17.5ZM222.004 17.5C222.667 17.5 223.303 17.2366 223.772 16.7678C224.241 16.2989 224.504 15.663 224.504 15V5C224.504 4.33696 224.241 3.70107 223.772 3.23223C223.303 2.76339 222.667 2.5 222.004 2.5C221.341 2.5 220.705 2.76339 220.236 3.23223C219.767 3.70107 219.504 4.33696 219.504 5V15C219.504 15.663 219.767 16.2989 220.236 16.7678C220.705 17.2366 221.341 17.5 222.004 17.5ZM251.004 32L242.004 38.75V57.5C242.004 60.1522 240.95 62.6957 239.075 64.5711C237.2 66.4464 234.656 67.5 232.004 67.5H192.004C189.352 67.5 186.808 66.4464 184.933 64.5711C183.057 62.6957 182.004 60.1522 182.004 57.5V38.75L173.004 32C172.473 31.6022 172.123 31.0099 172.029 30.3536C171.935 29.6972 172.106 29.0304 172.504 28.5C172.902 27.9696 173.494 27.6189 174.15 27.5251C174.807 27.4314 175.473 27.6022 176.004 28L182.004 32.5V27.5C182.004 26.1739 182.531 24.9021 183.468 23.9645C184.406 23.0268 185.678 22.5 187.004 22.5H237.004C238.33 22.5 239.602 23.0268 240.539 23.9645C241.477 24.9021 242.004 26.1739 242.004 27.5V32.5L248.004 28C248.534 27.6022 249.201 27.4314 249.857 27.5251C250.514 27.6189 251.106 27.9696 251.504 28.5C251.902 29.0304 252.073 29.6972 251.979 30.3536C251.885 31.0099 251.534 31.6022 251.004 32ZM237.004 27.5H187.004V57.5C187.004 58.8261 187.531 60.0979 188.468 61.0355C189.406 61.9732 190.678 62.5 192.004 62.5H232.004C233.33 62.5 234.602 61.9732 235.539 61.0355C236.477 60.0979 237.004 58.8261 237.004 57.5V27.5Z" fill="#10298E"/>
</svg>
