<svg width="80" height="80" viewBox="0 0 80 80" fill="none" xmlns="http://www.w3.org/2000/svg">
<path opacity="0.2" d="M70 22.5V67.5H45V52.5H35V67.5H10V32.5H25V12.5H55V22.5H70Z" fill="#10298E"/>
<path d="M75 65H72.5V22.5C72.5 21.837 72.2366 21.2011 71.7678 20.7322C71.2989 20.2634 70.663 20 70 20H57.5V12.5C57.5 11.837 57.2366 11.2011 56.7678 10.7322C56.2989 10.2634 55.663 10 55 10H25C24.337 10 23.7011 10.2634 23.2322 10.7322C22.7634 11.2011 22.5 11.837 22.5 12.5V30H10C9.33696 30 8.70107 30.2634 8.23223 30.7322C7.76339 31.2011 7.5 31.837 7.5 32.5V65H5C4.33696 65 3.70107 65.2634 3.23223 65.7322C2.76339 66.2011 2.5 66.837 2.5 67.5C2.5 68.163 2.76339 68.7989 3.23223 69.2678C3.70107 69.7366 4.33696 70 5 70H75C75.663 70 76.2989 69.7366 76.7678 69.2678C77.2366 68.7989 77.5 68.163 77.5 67.5C77.5 66.837 77.2366 66.2011 76.7678 65.7322C76.2989 65.2634 75.663 65 75 65ZM12.5 35H25C25.663 35 26.2989 34.7366 26.7678 34.2678C27.2366 33.7989 27.5 33.163 27.5 32.5V15H52.5V22.5C52.5 23.163 52.7634 23.7989 53.2322 24.2678C53.7011 24.7366 54.337 25 55 25H67.5V65H47.5V52.5C47.5 51.837 47.2366 51.2011 46.7678 50.7322C46.2989 50.2634 45.663 50 45 50H35C34.337 50 33.7011 50.2634 33.2322 50.7322C32.7634 51.2011 32.5 51.837 32.5 52.5V65H12.5V35ZM42.5 65H37.5V55H42.5V65ZM35 22.5C35 21.837 35.2634 21.2011 35.7322 20.7322C36.2011 20.2634 36.837 20 37.5 20H42.5C43.163 20 43.7989 20.2634 44.2678 20.7322C44.7366 21.2011 45 21.837 45 22.5C45 23.163 44.7366 23.7989 44.2678 24.2678C43.7989 24.7366 43.163 25 42.5 25H37.5C36.837 25 36.2011 24.7366 35.7322 24.2678C35.2634 23.7989 35 23.163 35 22.5ZM35 32.5C35 31.837 35.2634 31.2011 35.7322 30.7322C36.2011 30.2634 36.837 30 37.5 30H42.5C43.163 30 43.7989 30.2634 44.2678 30.7322C44.7366 31.2011 45 31.837 45 32.5C45 33.163 44.7366 33.7989 44.2678 34.2678C43.7989 34.7366 43.163 35 42.5 35H37.5C36.837 35 36.2011 34.7366 35.7322 34.2678C35.2634 33.7989 35 33.163 35 32.5ZM52.5 32.5C52.5 31.837 52.7634 31.2011 53.2322 30.7322C53.7011 30.2634 54.337 30 55 30H60C60.663 30 61.2989 30.2634 61.7678 30.7322C62.2366 31.2011 62.5 31.837 62.5 32.5C62.5 33.163 62.2366 33.7989 61.7678 34.2678C61.2989 34.7366 60.663 35 60 35H55C54.337 35 53.7011 34.7366 53.2322 34.2678C52.7634 33.7989 52.5 33.163 52.5 32.5ZM27.5 42.5C27.5 43.163 27.2366 43.7989 26.7678 44.2678C26.2989 44.7366 25.663 45 25 45H20C19.337 45 18.7011 44.7366 18.2322 44.2678C17.7634 43.7989 17.5 43.163 17.5 42.5C17.5 41.837 17.7634 41.2011 18.2322 40.7322C18.7011 40.2634 19.337 40 20 40H25C25.663 40 26.2989 40.2634 26.7678 40.7322C27.2366 41.2011 27.5 41.837 27.5 42.5ZM27.5 52.5C27.5 53.163 27.2366 53.7989 26.7678 54.2678C26.2989 54.7366 25.663 55 25 55H20C19.337 55 18.7011 54.7366 18.2322 54.2678C17.7634 53.7989 17.5 53.163 17.5 52.5C17.5 51.837 17.7634 51.2011 18.2322 50.7322C18.7011 50.2634 19.337 50 20 50H25C25.663 50 26.2989 50.2634 26.7678 50.7322C27.2366 51.2011 27.5 51.837 27.5 52.5ZM35 42.5C35 41.837 35.2634 41.2011 35.7322 40.7322C36.2011 40.2634 36.837 40 37.5 40H42.5C43.163 40 43.7989 40.2634 44.2678 40.7322C44.7366 41.2011 45 41.837 45 42.5C45 43.163 44.7366 43.7989 44.2678 44.2678C43.7989 44.7366 43.163 45 42.5 45H37.5C36.837 45 36.2011 44.7366 35.7322 44.2678C35.2634 43.7989 35 43.163 35 42.5ZM52.5 42.5C52.5 41.837 52.7634 41.2011 53.2322 40.7322C53.7011 40.2634 54.337 40 55 40H60C60.663 40 61.2989 40.2634 61.7678 40.7322C62.2366 41.2011 62.5 41.837 62.5 42.5C62.5 43.163 62.2366 43.7989 61.7678 44.2678C61.2989 44.7366 60.663 45 60 45H55C54.337 45 53.7011 44.7366 53.2322 44.2678C52.7634 43.7989 52.5 43.163 52.5 42.5ZM52.5 52.5C52.5 51.837 52.7634 51.2011 53.2322 50.7322C53.7011 50.2634 54.337 50 55 50H60C60.663 50 61.2989 50.2634 61.7678 50.7322C62.2366 51.2011 62.5 51.837 62.5 52.5C62.5 53.163 62.2366 53.7989 61.7678 54.2678C61.2989 54.7366 60.663 55 60 55H55C54.337 55 53.7011 54.7366 53.2322 54.2678C52.7634 53.7989 52.5 53.163 52.5 52.5Z" fill="#10298E"/>
</svg>
