<svg width="35" height="19" viewBox="0 0 35 19" fill="none" xmlns="http://www.w3.org/2000/svg">
<g clip-path="url(#clip0_878_96278)">
<path d="M0.279672 7.03C0.214122 7.05784 0.155757 7.10021 0.108983 7.15391C0.0622091 7.20762 0.0282485 7.27125 0.0096712 7.34C-0.00550669 7.396 -0.00799469 7.45469 0.00238513 7.51178C0.012765 7.56887 0.0357524 7.62292 0.0696726 7.67L2.65967 11.43C4.11124 13.5363 6.05282 15.2585 8.31736 16.4482C10.5819 17.638 13.1016 18.2597 15.6597 18.26H19.0497C21.6024 18.2664 24.1187 17.6539 26.3828 16.4748C28.6469 15.2957 30.5914 13.5852 32.0497 11.49L34.7597 7.57C34.7858 7.47849 34.7858 7.38151 34.7597 7.29C34.7087 7.18045 34.6248 7.08955 34.5197 7.03C32.5324 6.14328 30.7099 4.92603 29.1297 3.43C26.9997 1.6 25.1297 0.02 21.7297 0.00999999C21.0005 -0.00373081 20.2771 0.14222 19.6103 0.437617C18.9435 0.733015 18.3494 1.17071 17.8697 1.72L17.3997 2.25L16.9397 1.72C16.4741 1.18427 15.8997 0.753812 15.2549 0.457248C14.61 0.160684 13.9094 0.00481292 13.1997 0H13.0697C9.61967 0 7.77967 1.59 5.64967 3.42C4.07403 4.91502 2.25887 6.13528 0.279672 7.03ZM33.4997 7.83L31.3697 11C29.9861 12.9791 28.1435 14.5934 25.9996 15.7045C23.8557 16.8156 21.4744 17.3906 19.0597 17.38H15.6697C13.2522 17.3833 10.8701 16.8 8.72767 15.68C6.58529 14.5601 4.74668 12.9369 3.36967 10.95L1.21967 7.84H2.36967C3.26967 7.84 4.68967 7.84 6.27967 7.93C10.4697 8.12 13.6797 8.61 15.5597 9.37C16.7215 9.83513 18.0178 9.83513 19.1797 9.37C22.4797 8.05 28.7997 7.85 32.2697 7.85L33.4997 7.83ZM13.0697 0.83C13.9008 0.825154 14.7152 1.06414 15.4119 1.51737C16.1087 1.97061 16.6572 2.6182 16.9897 3.38C17.0315 3.44396 17.0886 3.4965 17.1558 3.53286C17.223 3.56922 17.2983 3.58826 17.3747 3.58826C17.4511 3.58826 17.5263 3.56922 17.5935 3.53286C17.6607 3.4965 17.7178 3.44396 17.7597 3.38C18.0932 2.63161 18.6359 1.99558 19.3225 1.54849C20.0091 1.1014 20.8103 0.862307 21.6297 0.86C24.7997 0.86 26.5397 2.36 28.5397 4.08C29.2197 4.67 29.9297 5.27 30.7297 5.86L32.2097 6.95H30.3697C26.7297 7.03 21.7797 7.37 18.8997 8.52C18.4158 8.72795 17.8962 8.84002 17.3697 8.85C16.859 8.84932 16.3533 8.75089 15.8797 8.56C13.0297 7.38 8.04967 7.07 4.36967 6.99H2.52967L4.01967 5.9C4.81967 5.31 5.51967 4.71 6.20967 4.12C8.20967 2.38 9.94967 0.87 13.0697 0.87V0.83Z" fill="black"/>
</g>
<defs>
<clipPath id="clip0_878_96278">
<rect width="34.75" height="18.26" fill="white"/>
</clipPath>
</defs>
</svg>
