<svg width="27" height="35" viewBox="0 0 27 35" fill="none" xmlns="http://www.w3.org/2000/svg">
<g clip-path="url(#clip0_878_96276)">
<path d="M21.4998 19.47L21.1498 19.35L18.4798 4.51C18.2485 3.24577 17.5817 2.10248 16.5953 1.27862C15.6089 0.454765 14.3651 0.00237604 13.0798 0C11.7946 0.00237604 10.5508 0.454765 9.56439 1.27862C8.57795 2.10248 7.91119 3.24577 7.67985 4.51L5.00984 19.38L4.64985 19.5C2.95343 20.0611 1.54603 21.2675 0.732003 22.8581C-0.0820227 24.4487 -0.237261 26.2958 0.299844 28C0.845049 29.6462 2.00291 31.0194 3.53335 31.8349C5.06378 32.6504 6.84937 32.8456 8.51985 32.38L8.94984 32.26L9.19984 32.64C9.6198 33.2876 10.1944 33.8205 10.8718 34.1907C11.5491 34.5608 12.308 34.7564 13.0798 34.76C13.8478 34.7607 14.6038 34.57 15.2795 34.2051C15.9552 33.8402 16.5293 33.3126 16.9498 32.67L17.1998 32.29L17.6398 32.41C19.3168 32.8724 21.1076 32.6686 22.6378 31.8411C24.1679 31.0136 25.3188 29.6265 25.8498 27.97C26.3897 26.2658 26.2357 24.4176 25.4213 22.8262C24.6069 21.2349 23.1978 20.0289 21.4998 19.47ZM25.0298 27.72C24.581 29.1202 23.6229 30.301 22.3452 31.0288C21.0675 31.7565 19.5632 31.9782 18.1298 31.65L17.5498 31.52L17.6498 30.93C17.7012 30.6596 17.728 30.3852 17.7298 30.11C17.7298 29.6644 17.9068 29.2371 18.2219 28.9221C18.537 28.607 18.9643 28.43 19.4098 28.43H19.8398V27.57H19.4098C18.7362 27.57 18.0901 27.8376 17.6138 28.3139C17.1374 28.7903 16.8698 29.4363 16.8698 30.11C16.8698 31.1152 16.4705 32.0792 15.7598 32.7899C15.049 33.5007 14.085 33.9 13.0798 33.9C12.0747 33.9 11.1107 33.5007 10.3999 32.7899C9.68915 32.0792 9.28985 31.1152 9.28985 30.11C9.28985 29.4363 9.02223 28.7903 8.54589 28.3139C8.06955 27.8376 7.42349 27.57 6.74984 27.57H6.31985V28.43H6.74984C7.1954 28.43 7.62272 28.607 7.93778 28.9221C8.25284 29.2371 8.42985 29.6644 8.42985 30.11C8.4322 30.3852 8.45896 30.6596 8.50984 30.93L8.60984 31.52L8.01985 31.65C6.58783 31.9778 5.08492 31.7558 3.80885 31.0279C2.53278 30.3001 1.57664 29.1195 1.12985 27.72C0.879435 26.9232 0.798121 26.083 0.891106 25.253C0.984092 24.423 1.24932 23.6216 1.66984 22.9C2.08006 22.2039 2.62911 21.5997 3.28285 21.1249C3.93658 20.65 4.68101 20.3148 5.46984 20.14L5.74984 20.08L8.52984 4.66C8.72218 3.59355 9.28328 2.62865 10.115 1.93401C10.9467 1.23938 11.9962 0.859214 13.0798 0.86C14.1635 0.859214 15.2129 1.23938 16.0447 1.93401C16.8764 2.62865 17.4375 3.59355 17.6298 4.66L20.4098 20.08L20.6898 20.14C21.4787 20.3148 22.2231 20.65 22.8768 21.1249C23.5306 21.5997 24.0796 22.2039 24.4898 22.9C24.9187 23.6179 25.1926 24.4176 25.2943 25.2476C25.3959 26.0777 25.3228 26.9198 25.0798 27.72H25.0298Z" fill="black"/>
</g>
<defs>
<clipPath id="clip0_878_96276">
<rect width="26.16" height="34.75" fill="white"/>
</clipPath>
</defs>
</svg>
