<svg width="13" height="17" viewBox="0 0 13 17" fill="none" xmlns="http://www.w3.org/2000/svg">
<path d="M6.4987 0.583008C3.43495 0.583008 0.957031 3.06092 0.957031 6.12468C0.957031 10.2809 6.4987 16.4163 6.4987 16.4163C6.4987 16.4163 12.0404 10.2809 12.0404 6.12468C12.0404 3.06092 9.56245 0.583008 6.4987 0.583008ZM2.54036 6.12468C2.54036 3.93967 4.3137 2.16634 6.4987 2.16634C8.6837 2.16634 10.457 3.93967 10.457 6.12468C10.457 8.40468 8.17703 11.8168 6.4987 13.9463C4.85203 11.8326 2.54036 8.38093 2.54036 6.12468Z" fill="#A38756"/>
<path d="M6.4987 8.10384C7.59176 8.10384 8.47786 7.21774 8.47786 6.12467C8.47786 5.03161 7.59176 4.14551 6.4987 4.14551C5.40563 4.14551 4.51953 5.03161 4.51953 6.12467C4.51953 7.21774 5.40563 8.10384 6.4987 8.10384Z" fill="#A38756"/>
</svg>
