<svg width="18" height="18" viewBox="0 0 18 18" fill="none" xmlns="http://www.w3.org/2000/svg">
<mask id="mask0_7306_24189" style="mask-type:alpha" maskUnits="userSpaceOnUse" x="0" y="0" width="18" height="18">
<rect width="18" height="18" fill="#D9D9D9"/>
</mask>
<g mask="url(#mask0_7306_24189)">
<path d="M9.00391 16.5C7.96641 16.5 6.99141 16.3031 6.07891 15.9094C5.16641 15.5156 4.37266 14.9813 3.69766 14.3063C3.02266 13.6313 2.48828 12.8375 2.09453 11.925C1.70078 11.0125 1.50391 10.0375 1.50391 9C1.50391 7.9625 1.70078 6.9875 2.09453 6.075C2.48828 5.1625 3.02266 4.36875 3.69766 3.69375C4.37266 3.01875 5.16641 2.48438 6.07891 2.09063C6.99141 1.69687 7.96641 1.5 9.00391 1.5C10.0414 1.5 11.0164 1.69687 11.9289 2.09063C12.8414 2.48438 13.6352 3.01875 14.3102 3.69375C14.9852 4.36875 15.5195 5.1625 15.9133 6.075C16.307 6.9875 16.5039 7.9625 16.5039 9C16.5039 9.3375 16.4852 9.66875 16.4477 9.99375C16.4102 10.3187 16.3477 10.6375 16.2602 10.95C16.0852 10.75 15.882 10.5813 15.6508 10.4438C15.4195 10.3063 15.1664 10.2125 14.8914 10.1625C14.9289 9.975 14.957 9.78438 14.9758 9.59063C14.9945 9.39688 15.0039 9.2 15.0039 9C15.0039 7.325 14.4227 5.90625 13.2602 4.74375C12.0977 3.58125 10.6789 3 9.00391 3C7.32891 3 5.91016 3.58125 4.74766 4.74375C3.58516 5.90625 3.00391 7.325 3.00391 9C3.00391 10.675 3.58516 12.0938 4.74766 13.2563C5.91016 14.4187 7.32891 15 9.00391 15C9.64141 15 10.2508 14.9062 10.832 14.7188C11.4133 14.5312 11.9477 14.2688 12.4352 13.9313C12.5852 14.1438 12.7695 14.3313 12.9883 14.4938C13.207 14.6563 13.4414 14.7813 13.6914 14.8688C13.0539 15.3813 12.3383 15.7813 11.5445 16.0688C10.7508 16.3563 9.90391 16.5 9.00391 16.5ZM14.4414 13.5C14.1789 13.5 13.957 13.4094 13.7758 13.2281C13.5945 13.0469 13.5039 12.825 13.5039 12.5625C13.5039 12.3 13.5945 12.0781 13.7758 11.8969C13.957 11.7156 14.1789 11.625 14.4414 11.625C14.7039 11.625 14.9258 11.7156 15.107 11.8969C15.2883 12.0781 15.3789 12.3 15.3789 12.5625C15.3789 12.825 15.2883 13.0469 15.107 13.2281C14.9258 13.4094 14.7039 13.5 14.4414 13.5ZM11.4789 12.525L8.25391 9.3V5.25H9.75391V8.7L12.5289 11.475L11.4789 12.525Z" fill="#1C1B1F"/>
</g>
</svg>
