<svg width="20" height="21" viewBox="0 0 20 21" fill="none" xmlns="http://www.w3.org/2000/svg">
<mask id="mask0_7306_20903" style="mask-type:alpha" maskUnits="userSpaceOnUse" x="0" y="0" width="20" height="21">
<rect y="0.904785" width="20" height="20" fill="#D9D9D9"/>
</mask>
<g mask="url(#mask0_7306_20903)">
<path d="M13.75 17.5714H14.5833V14.2381H13.75V17.5714ZM14.1667 13.4047C14.2778 13.4047 14.375 13.3631 14.4583 13.2797C14.5417 13.1964 14.5833 13.0992 14.5833 12.9881C14.5833 12.877 14.5417 12.7797 14.4583 12.6964C14.375 12.6131 14.2778 12.5714 14.1667 12.5714C14.0556 12.5714 13.9583 12.6131 13.875 12.6964C13.7917 12.7797 13.75 12.877 13.75 12.9881C13.75 13.0992 13.7917 13.1964 13.875 13.2797C13.9583 13.3631 14.0556 13.4047 14.1667 13.4047ZM5.83333 12.5714H8.89583C9.04861 12.252 9.22569 11.9534 9.42708 11.6756C9.62847 11.3978 9.85417 11.1409 10.1042 10.9047H5.83333V12.5714ZM5.83333 15.9047H8.39583C8.35417 15.627 8.33333 15.3492 8.33333 15.0714C8.33333 14.7936 8.35417 14.5159 8.39583 14.2381H5.83333V15.9047ZM4.16667 19.2381C3.70833 19.2381 3.31597 19.0749 2.98958 18.7485C2.66319 18.4221 2.5 18.0297 2.5 17.5714V4.23808C2.5 3.77974 2.66319 3.38738 2.98958 3.06099C3.31597 2.73461 3.70833 2.57141 4.16667 2.57141H10.8333L15.8333 7.57141V9.48808C15.5694 9.40474 15.2986 9.34224 15.0208 9.30058C14.7431 9.25891 14.4583 9.23808 14.1667 9.23808V8.40474H10V4.23808H4.16667V17.5714H8.89583C9.04861 17.8909 9.22569 18.1895 9.42708 18.4672C9.62847 18.745 9.85417 19.002 10.1042 19.2381H4.16667ZM14.1667 10.9047C15.3194 10.9047 16.3021 11.311 17.1146 12.1235C17.9271 12.936 18.3333 13.9186 18.3333 15.0714C18.3333 16.2242 17.9271 17.2068 17.1146 18.0193C16.3021 18.8318 15.3194 19.2381 14.1667 19.2381C13.0139 19.2381 12.0312 18.8318 11.2188 18.0193C10.4063 17.2068 10 16.2242 10 15.0714C10 13.9186 10.4063 12.936 11.2188 12.1235C12.0312 11.311 13.0139 10.9047 14.1667 10.9047Z" fill="#000030"/>
</g>
</svg>
