<svg width="20" height="20" viewBox="0 0 20 20" fill="none" xmlns="http://www.w3.org/2000/svg">
<path d="M16.1734 10.847L16.0979 11.4127L16.5466 11.7653L18.297 13.1413L16.7283 15.854L14.6519 15.02L14.1196 14.8062L13.6663 15.1577C13.2225 15.5019 12.7387 15.7877 12.2149 16.0008L11.6823 16.2174L11.6016 16.7868L11.2879 19H8.15588L7.84219 16.7868L7.7615 16.2174L7.22888 16.0008C6.71005 15.7897 6.23388 15.5046 5.76967 15.1518L5.31813 14.8086L4.79185 15.02L2.7155 15.854L1.14779 13.1432L2.91421 11.7683L3.38433 11.4024L3.28639 10.8148C3.24578 10.5711 3.22708 10.2848 3.22708 10C3.22708 9.75511 3.25942 9.47205 3.30723 9.18523L3.40517 8.5976L2.93504 8.23169L1.16783 6.85622L2.72681 4.14637L4.80227 4.98002L5.32664 5.19065L5.7776 4.85012C6.23563 4.50426 6.72282 4.2093 7.2393 3.99921L7.77192 3.78255L7.8526 3.21325L8.16629 1H11.2983L11.612 3.21325L11.6927 3.78255L12.2253 3.99921C12.7441 4.21026 13.2203 4.49544 13.6845 4.84825L14.136 5.19141L14.6623 4.98002L16.7387 4.14601L18.3064 6.85684L16.54 8.23169L16.0698 8.5976L16.1678 9.18523C16.2085 9.42955 16.2271 9.70565 16.2271 10C16.2271 10.3028 16.2088 10.5814 16.1734 10.847ZM4.97708 10C4.97708 12.6148 7.1123 14.75 9.72708 14.75C12.3419 14.75 14.4771 12.6148 14.4771 10C14.4771 7.38522 12.3419 5.25 9.72708 5.25C7.1123 5.25 4.97708 7.38522 4.97708 10Z" fill="#A38756" stroke="#A38756" stroke-width="2"/>
</svg>
