<svg width="39" height="39" viewBox="0 0 39 39" fill="none" xmlns="http://www.w3.org/2000/svg">
<circle cx="19.5" cy="19.5" r="18.8412" fill="white" stroke="#A38756" stroke-width="1.31757"/>
<mask id="mask0_2084_111246" style="mask-type:alpha" maskUnits="userSpaceOnUse" x="8" y="6" width="24" height="24">
<rect x="8" y="6" width="24" height="24" fill="#D9D9D9"/>
</mask>
<g mask="url(#mask0_2084_111246)">
<path d="M14.3 28.5003C13.8 28.5003 13.375 28.3253 13.025 27.9753C12.675 27.6253 12.5 27.2003 12.5 26.7003V16.3003C12.5 15.8003 12.675 15.3753 13.025 15.0253C13.375 14.6753 13.8 14.5003 14.3 14.5003H16.875V16.0003H14.3C14.2333 16.0003 14.1667 16.0337 14.1 16.1003C14.0333 16.167 14 16.2337 14 16.3003V26.7003C14 26.767 14.0333 26.8337 14.1 26.9003C14.1667 26.967 14.2333 27.0003 14.3 27.0003H25.7C25.7667 27.0003 25.8333 26.967 25.9 26.9003C25.9667 26.8337 26 26.767 26 26.7003V16.3003C26 16.2337 25.9667 16.167 25.9 16.1003C25.8333 16.0337 25.7667 16.0003 25.7 16.0003H23.125V14.5003H25.7C26.2 14.5003 26.625 14.6753 26.975 15.0253C27.325 15.3753 27.5 15.8003 27.5 16.3003V26.7003C27.5 27.2003 27.325 27.6253 26.975 27.9753C26.625 28.3253 26.2 28.5003 25.7 28.5003H14.3ZM19.25 21.7503V10.7253L17.4 12.5753L16.35 11.5003L20 7.85034L23.65 11.5003L22.6 12.5753L20.75 10.7253V21.7503H19.25Z" fill="#A38756"/>
</g>
</svg>
