<svg width="28" height="32" viewBox="0 0 28 32" fill="none" xmlns="http://www.w3.org/2000/svg">
<path d="M26.6199 23.8947L26.6199 23.8946L26.6149 23.8975L14.526 30.8557L14.5123 30.8636L14.4998 30.8732C14.3012 31.0258 14.0476 31.1062 13.7722 31.1062C13.4968 31.1062 13.2432 31.0258 13.0446 30.8732L13.0321 30.8636L13.0184 30.8557L0.92949 23.8975L0.929538 23.8974L0.923567 23.8942C0.71699 23.783 0.543345 23.6155 0.422094 23.4094C0.300819 23.2031 0.236802 22.9663 0.237458 22.7248V22.7241V8.6195C0.237458 8.11171 0.510577 7.67417 0.924517 7.44896L0.92455 7.44902L0.92949 7.44617L13.0184 0.487889L13.0321 0.480017L13.0446 0.470405C13.2432 0.317875 13.4968 0.237452 13.7722 0.237452C14.0476 0.237452 14.3012 0.317875 14.4998 0.470405L14.5123 0.480017L14.526 0.487889L26.6149 7.44617L26.6149 7.44623L26.6199 7.44896C27.0338 7.67417 27.3069 8.11171 27.3069 8.6195V22.7241C27.3069 23.2319 27.0338 23.6695 26.6199 23.8947ZM13.8907 3.16365L13.7718 3.09521L13.6531 3.16402L10.7609 4.8409L10.4096 5.04463L10.7595 5.25088L19.7726 10.5636L19.8922 10.6341L20.0123 10.5645L23.0116 8.8249L23.3671 8.61872L23.0109 8.41371L13.8907 3.16365ZM4.53323 8.41386L4.17651 8.6198L4.53349 8.82529L13.6537 14.0753L13.7721 14.1435L13.8905 14.0754L16.8898 12.3515L17.2427 12.1487L16.8925 11.9413L7.89464 6.61293L7.77517 6.54218L7.65492 6.6116L4.53323 8.41386ZM2.82304 21.7995V21.9366L2.94183 22.0052L12.1233 27.3022L12.4794 27.5077V27.0966V16.5808V16.4434L12.3604 16.375L3.17889 11.0935L2.82304 10.8889V11.2994V21.7995ZM24.7214 11.2994V10.8889L24.3655 11.0935L15.1841 16.375L15.065 16.4434V16.5808V27.0966V27.5077L15.4211 27.3022L24.6026 22.0052L24.4839 21.7995H24.7214V11.2994Z" fill="#111111" stroke="white" stroke-width="0.474903"/>
</svg>
