<svg width="217" height="71" viewBox="0 0 217 71" fill="none" xmlns="http://www.w3.org/2000/svg">
<path opacity="0.2" d="M59.7846 31.9798V59.7857H42.0703V44.2857C42.0703 43.6984 41.837 43.1352 41.4218 42.72C41.0065 42.3047 40.4433 42.0714 39.856 42.0714H30.9989C30.4116 42.0714 29.8484 42.3047 29.4331 42.72C29.0179 43.1352 28.7846 43.6984 28.7846 44.2857V59.7857H11.0703V31.9798C11.0703 31.6712 11.1349 31.3661 11.2598 31.0839C11.3846 30.8017 11.5671 30.5487 11.7955 30.3412L33.9384 9.43284C34.3461 9.06174 34.8775 8.85608 35.4288 8.85608C35.9801 8.85608 36.5116 9.06174 36.9193 9.43284L59.0622 30.3412C59.2901 30.549 59.472 30.8021 59.5964 31.0842C59.7208 31.3664 59.7849 31.6714 59.7846 31.9798Z" fill="#10298E"/>
<path d="M66.4291 57.5714H62.0006V31.9826C62.0007 31.3697 61.8735 30.7634 61.6272 30.2022C61.3809 29.6409 61.0207 29.1369 60.5696 28.7221L38.4267 7.83029C38.4159 7.82084 38.4057 7.81067 38.3963 7.79984C37.581 7.05842 36.5186 6.64758 35.4167 6.64758C34.3147 6.64758 33.2523 7.05842 32.4371 7.79984L32.4066 7.83029L10.2887 28.7221C9.83752 29.1369 9.47738 29.6409 9.23106 30.2022C8.98474 30.7634 8.85761 31.3697 8.8577 31.9826V57.5714H4.42913C3.84186 57.5714 3.27865 57.8047 2.86339 58.22C2.44813 58.6353 2.21484 59.1985 2.21484 59.7857C2.21484 60.373 2.44813 60.9362 2.86339 61.3515C3.27865 61.7667 3.84186 62 4.42913 62H66.4291C67.0164 62 67.5796 61.7667 67.9949 61.3515C68.4101 60.9362 68.6434 60.373 68.6434 59.7857C68.6434 59.1985 68.4101 58.6353 67.9949 58.22C67.5796 57.8047 67.0164 57.5714 66.4291 57.5714ZM13.2863 31.9826L13.3167 31.9549L35.4291 11.0714L57.5443 31.9494L57.5748 31.9771V57.5714H44.2863V44.2857C44.2863 43.1112 43.8197 41.9848 42.9892 41.1543C42.1587 40.3237 41.0322 39.8572 39.8577 39.8572H31.0006C29.826 39.8572 28.6996 40.3237 27.8691 41.1543C27.0386 41.9848 26.572 43.1112 26.572 44.2857V57.5714H13.2863V31.9826ZM39.8577 57.5714H31.0006V44.2857H39.8577V57.5714Z" fill="#10298E"/>
<path opacity="0.2" d="M108.496 31.9798V59.7857H90.7813V44.2857C90.7813 43.6984 90.548 43.1352 90.1327 42.72C89.7174 42.3047 89.1542 42.0714 88.567 42.0714H79.7098C79.1226 42.0714 78.5593 42.3047 78.1441 42.72C77.7288 43.1352 77.4955 43.6984 77.4955 44.2857V59.7857H59.7812V31.9798C59.7813 31.6712 59.8458 31.3661 59.9707 31.0839C60.0956 30.8017 60.2781 30.5487 60.5064 30.3412L82.6493 9.43284C83.057 9.06174 83.5885 8.85608 84.1398 8.85608C84.6911 8.85608 85.2226 9.06174 85.6303 9.43284L107.773 30.3412C108.001 30.549 108.183 30.8021 108.307 31.0842C108.432 31.3664 108.496 31.6714 108.496 31.9798Z" fill="#10298E"/>
<path d="M115.14 57.5714H110.711V31.9826C110.712 31.3697 110.584 30.7634 110.338 30.2022C110.092 29.6409 109.732 29.1369 109.281 28.7221L87.1377 7.83029C87.1268 7.82084 87.1167 7.81067 87.1072 7.79984C86.292 7.05842 85.2296 6.64758 84.1276 6.64758C83.0256 6.64758 81.9633 7.05842 81.148 7.79984L81.1176 7.83029L58.9996 28.7221C58.5485 29.1369 58.1883 29.6409 57.942 30.2022C57.6957 30.7634 57.5685 31.3697 57.5686 31.9826V57.5714H53.1401C52.5528 57.5714 51.9896 57.8047 51.5743 58.22C51.1591 58.6353 50.9258 59.1985 50.9258 59.7857C50.9258 60.373 51.1591 60.9362 51.5743 61.3515C51.9896 61.7667 52.5528 62 53.1401 62H115.14C115.727 62 116.291 61.7667 116.706 61.3515C117.121 60.9362 117.354 60.373 117.354 59.7857C117.354 59.1985 117.121 58.6353 116.706 58.22C116.291 57.8047 115.727 57.5714 115.14 57.5714ZM61.9972 31.9826L62.0277 31.9549L84.1401 11.0714L106.255 31.9494L106.286 31.9771V57.5714H92.9972V44.2857C92.9972 43.1112 92.5306 41.9848 91.7001 41.1543C90.8696 40.3237 89.7432 39.8572 88.5686 39.8572H79.7115C78.537 39.8572 77.4105 40.3237 76.58 41.1543C75.7495 41.9848 75.2829 43.1112 75.2829 44.2857V57.5714H61.9972V31.9826ZM88.5686 57.5714H79.7115V44.2857H88.5686V57.5714Z" fill="#10298E"/>
<path opacity="0.2" d="M205.925 31.9798V59.7857H188.211V44.2857C188.211 43.6984 187.978 43.1352 187.562 42.72C187.147 42.3047 186.584 42.0714 185.997 42.0714H177.14C176.552 42.0714 175.989 42.3047 175.574 42.72C175.159 43.1352 174.925 43.6984 174.925 44.2857V59.7857H157.211V31.9798C157.211 31.6712 157.275 31.3661 157.4 31.0839C157.525 30.8017 157.708 30.5487 157.936 30.3412L180.079 9.43284C180.487 9.06174 181.018 8.85608 181.569 8.85608C182.121 8.85608 182.652 9.06174 183.06 9.43284L205.203 30.3412C205.431 30.549 205.613 30.8021 205.737 31.0842C205.861 31.3664 205.926 31.6714 205.925 31.9798Z" fill="#10298E"/>
<path d="M212.57 57.5714H208.141V31.9826C208.141 31.3697 208.014 30.7634 207.768 30.2022C207.522 29.6409 207.161 29.1369 206.71 28.7221L184.567 7.83029C184.557 7.82084 184.546 7.81067 184.537 7.79984C183.722 7.05842 182.659 6.64758 181.557 6.64758C180.455 6.64758 179.393 7.05842 178.578 7.79984L178.547 7.83029L156.429 28.7221C155.978 29.1369 155.618 29.6409 155.372 30.2022C155.125 30.7634 154.998 31.3697 154.998 31.9826V57.5714H150.57C149.982 57.5714 149.419 57.8047 149.004 58.22C148.589 58.6353 148.355 59.1985 148.355 59.7857C148.355 60.373 148.589 60.9362 149.004 61.3515C149.419 61.7667 149.982 62 150.57 62H212.57C213.157 62 213.72 61.7667 214.135 61.3515C214.551 60.9362 214.784 60.373 214.784 59.7857C214.784 59.1985 214.551 58.6353 214.135 58.22C213.72 57.8047 213.157 57.5714 212.57 57.5714ZM159.427 31.9826L159.457 31.9549L181.57 11.0714L203.685 31.9494L203.715 31.9771V57.5714H190.427V44.2857C190.427 43.1112 189.96 41.9848 189.13 41.1543C188.299 40.3237 187.173 39.8572 185.998 39.8572H177.141C175.967 39.8572 174.84 40.3237 174.01 41.1543C173.179 41.9848 172.713 43.1112 172.713 44.2857V57.5714H159.427V31.9826ZM185.998 57.5714H177.141V44.2857H185.998V57.5714Z" fill="#10298E"/>
<path opacity="0.2" d="M157.214 31.9798V59.7857H139.5V44.2857C139.5 43.6984 139.267 43.1352 138.851 42.72C138.436 42.3047 137.873 42.0714 137.286 42.0714H128.429C127.841 42.0714 127.278 42.3047 126.863 42.72C126.448 43.1352 126.214 43.6984 126.214 44.2857V59.7857H108.5V31.9798C108.5 31.6712 108.565 31.3661 108.689 31.0839C108.814 30.8017 108.997 30.5487 109.225 30.3412L131.368 9.43284C131.776 9.06174 132.307 8.85608 132.859 8.85608C133.41 8.85608 133.941 9.06174 134.349 9.43284L156.492 30.3412C156.72 30.549 156.902 30.8021 157.026 31.0842C157.151 31.3664 157.215 31.6714 157.214 31.9798Z" fill="#10298E"/>
<path d="M163.859 57.5714H159.43V31.9826C159.43 31.3697 159.303 30.7634 159.057 30.2022C158.811 29.6409 158.45 29.1369 157.999 28.7221L135.856 7.83029C135.846 7.82084 135.835 7.81067 135.826 7.79984C135.011 7.05842 133.948 6.64758 132.846 6.64758C131.744 6.64758 130.682 7.05842 129.867 7.79984L129.836 7.83029L107.718 28.7221C107.267 29.1369 106.907 29.6409 106.661 30.2022C106.414 30.7634 106.287 31.3697 106.287 31.9826V57.5714H101.859C101.272 57.5714 100.708 57.8047 100.293 58.22C99.8778 58.6353 99.6445 59.1985 99.6445 59.7857C99.6445 60.373 99.8778 60.9362 100.293 61.3515C100.708 61.7667 101.272 62 101.859 62H163.859C164.446 62 165.009 61.7667 165.425 61.3515C165.84 60.9362 166.073 60.373 166.073 59.7857C166.073 59.1985 165.84 58.6353 165.425 58.22C165.009 57.8047 164.446 57.5714 163.859 57.5714ZM110.716 31.9826L110.746 31.9549L132.859 11.0714L154.974 31.9494L155.004 31.9771V57.5714H141.716V44.2857C141.716 43.1112 141.249 41.9848 140.419 41.1543C139.588 40.3237 138.462 39.8572 137.287 39.8572H128.43C127.256 39.8572 126.129 40.3237 125.299 41.1543C124.468 41.9848 124.002 43.1112 124.002 44.2857V57.5714H110.716V31.9826ZM137.287 57.5714H128.43V44.2857H137.287V57.5714Z" fill="#10298E"/>
</svg>
