<svg width="196" height="21" viewBox="0 0 196 21" fill="none" xmlns="http://www.w3.org/2000/svg">
<g clip-path="url(#clip0_906_67746)">
<path d="M30.8613 0.362549H34.4302V20.8063H30.8613V0.362549Z" fill="#0C0C0C"/>
<path d="M54.8673 21C53.3829 21.0177 51.9103 20.7374 50.5381 20.1759C49.2771 19.6545 48.1332 18.8898 47.1727 17.9264C46.2325 16.97 45.4876 15.8424 44.979 14.6056C44.4506 13.3214 44.1823 11.9467 44.1896 10.5597V10.502C44.1823 9.11507 44.4506 7.74029 44.979 6.45612C45.4922 5.20997 46.2474 4.07603 47.2018 3.11886C48.2135 2.11325 49.4183 1.31909 50.745 0.783378C52.0716 0.247661 53.4932 -0.0187353 54.9255 -3.62791e-05C56.41 -0.0194155 57.8829 0.260943 59.2547 0.823978C60.5084 1.34014 61.6457 2.09897 62.6002 3.05612C63.5547 4.01327 64.3072 5.14952 64.8137 6.39843C65.3459 7.68163 65.6156 9.0569 65.6073 10.4443V10.502C65.6152 11.8894 65.3455 13.2646 64.8137 14.5479C64.3021 15.7937 63.5466 16.9265 62.5909 17.8811C61.62 18.8507 60.4687 19.6245 59.2007 20.1595C57.83 20.7325 56.3547 21.0187 54.8673 21ZM54.9255 17.7245C55.8819 17.7347 56.8296 17.5423 57.705 17.1601C58.5274 16.8003 59.2658 16.2757 59.8737 15.6192C60.4867 14.9566 60.9674 14.1849 61.2905 13.3449C61.6312 12.4554 61.803 11.5111 61.7974 10.5597V10.502C61.8025 9.54527 61.6307 8.59569 61.2905 7.70038C60.9674 6.8526 60.4821 6.07475 59.8613 5.40962C59.238 4.75551 58.4913 4.22917 57.6634 3.86047C56.7849 3.46816 55.8308 3.26994 54.8673 3.27954C53.9095 3.26975 52.9606 3.46217 52.0836 3.844C51.2635 4.2058 50.5257 4.72856 49.9148 5.38077C49.304 6.04564 48.8248 6.81856 48.5022 7.65917C48.1578 8.54772 47.9845 9.49244 47.9912 10.4443V10.502C47.9856 11.4578 48.1589 12.4064 48.5022 13.2996C48.8218 14.1491 49.3075 14.9276 49.9315 15.5903C50.5527 16.2478 51.2999 16.7758 52.1293 17.1436C53.0079 17.5359 53.962 17.7341 54.9255 17.7245Z" fill="#0C0C0C"/>
<path d="M75.3213 0.362549H78.67L89.6926 14.4985V0.362549H93.2864V20.8063H90.2576L78.9151 6.26249V20.8063H75.3213V0.362549Z" fill="#0C0C0C"/>
<path d="M103.573 0.362549H118.825V3.60504H107.163V8.85814H117.5V12.1006H107.163V17.5638H118.975V20.8063H103.573V0.362549Z" fill="#0C0C0C"/>
<path d="M129.263 0.362549H144.515V3.60504H132.852V8.85814H143.189V12.1006H132.852V17.5638H144.664V20.8063H129.263V0.362549Z" fill="#0C0C0C"/>
<path d="M154.972 0.36248H164.158C165.329 0.343095 166.494 0.525722 167.602 0.902208C168.531 1.22202 169.381 1.7347 170.095 2.40603C170.636 2.97077 171.06 3.6358 171.341 4.36307C171.643 5.14524 171.793 5.9771 171.782 6.81451V6.87631C171.793 7.64591 171.667 8.41144 171.412 9.13823C171.181 9.78563 170.838 10.388 170.398 10.9181C169.962 11.44 169.439 11.8845 168.853 12.2324C168.232 12.6001 167.562 12.8776 166.863 13.0564L172.43 20.798H168.171L163.09 13.6703H158.541V20.798H154.972V0.36248ZM163.879 10.4979C164.991 10.5566 166.089 10.2287 166.983 9.57084C167.36 9.27227 167.66 8.88988 167.86 8.45467C168.06 8.01946 168.154 7.54367 168.134 7.06583V7.00403C168.164 6.52356 168.079 6.04281 167.883 5.60199C167.688 5.16117 167.389 4.77309 167.012 4.47019C166.264 3.89338 165.21 3.60497 163.85 3.60497H158.541V10.4979H163.879Z" fill="#0C0C0C"/>
<path d="M188.717 20.963C187.168 20.9603 185.633 20.6811 184.184 20.139C182.703 19.582 181.342 18.75 180.175 17.6875L182.339 15.1331C183.245 15.926 184.261 16.5852 185.356 17.0901C186.442 17.5615 187.619 17.7947 188.804 17.7741C189.738 17.8242 190.665 17.5805 191.451 17.0778C191.759 16.8754 192.011 16.5988 192.182 16.2739C192.354 15.949 192.439 15.5863 192.431 15.2196V15.162C192.438 14.828 192.373 14.4965 192.24 14.1896C192.079 13.8691 191.837 13.5953 191.538 13.3944C191.104 13.097 190.63 12.8625 190.13 12.6981C189.367 12.4384 188.588 12.2251 187.799 12.0595C186.811 11.8393 185.839 11.553 184.89 11.2026C184.121 10.9298 183.399 10.5391 182.751 10.0448C182.184 9.60785 181.731 9.04278 181.43 8.3968C181.107 7.64604 180.951 6.83528 180.973 6.01952V5.96183C180.963 5.13495 181.141 4.31656 181.496 3.56807C181.836 2.85414 182.326 2.22058 182.934 1.70992C183.583 1.17477 184.329 0.766554 185.131 0.506863C186.036 0.209422 186.983 0.0618683 187.936 0.0701366C189.315 0.0497416 190.686 0.271525 191.987 0.725226C193.21 1.171 194.351 1.81263 195.365 2.62457L193.428 5.30674C192.572 4.67419 191.638 4.15224 190.649 3.75348C189.765 3.40231 188.822 3.22056 187.869 3.21786C186.995 3.16325 186.127 3.40914 185.414 3.91416C185.141 4.10996 184.92 4.36698 184.766 4.66416C184.613 4.96135 184.533 5.29026 184.533 5.62398V5.68167C184.527 6.0358 184.598 6.38707 184.741 6.71169C184.906 7.05119 185.166 7.337 185.489 7.5357C185.955 7.82704 186.458 8.05695 186.984 8.21964C187.622 8.42839 188.428 8.65087 189.403 8.88708C190.374 9.12293 191.329 9.42299 192.261 9.78526C193.017 10.0675 193.719 10.4742 194.338 10.9883C194.87 11.4406 195.296 12.0031 195.585 12.6364C195.877 13.33 196.018 14.0768 196 14.8282V14.8859C196.015 15.7649 195.832 16.6361 195.464 17.4362C195.117 18.1778 194.605 18.8325 193.969 19.3521C193.29 19.8963 192.509 20.3011 191.671 20.5428C190.712 20.8255 189.717 20.9671 188.717 20.963Z" fill="#0C0C0C"/>
<path d="M16.5985 0.346191L12.5518 10.5722H16.3201L20.5746 0.346191H16.5985Z" fill="#0C0C0C"/>
<path d="M3.97609 0.346191H0L8.50891 20.79H11.6665H12.0654L10.0877 15.8006L3.97609 0.346191Z" fill="#0C0C0C"/>
<path d="M16.5985 0.346191L12.5518 10.5722H16.3201L20.5746 0.346191H16.5985Z" fill="#0C0C0C"/>
</g>
<defs>
<clipPath id="clip0_906_67746">
<rect width="196" height="21" fill="white"/>
</clipPath>
</defs>
</svg>
