<svg width="49" height="49" viewBox="0 0 49 49" fill="none" xmlns="http://www.w3.org/2000/svg">
<circle cx="24.4688" cy="24.6367" r="23.1953" stroke="black" stroke-linecap="round" stroke-linejoin="round"/>
<path d="M10.6992 43.0543V36.3217C10.742 33.8214 12.4804 28.8208 19.0914 28.8208C25.7025 28.8208 29.8131 28.8208 31.0421 28.8208C33.4365 28.9903 38.2253 30.6643 38.2253 36.0039C38.2253 41.3436 38.2253 42.9011 38.2253 43.2401" stroke="black" stroke-linecap="round" stroke-linejoin="round"/>
<path d="M16.0312 29.4961L16.0377 45.9707" stroke="black" stroke-linecap="round" stroke-linejoin="round"/>
<path d="M32.6953 29.3291V46.238" stroke="black" stroke-linecap="round" stroke-linejoin="round"/>
<rect x="18.7031" y="28.8467" width="11.2031" height="5.70386" stroke="black" stroke-linecap="round" stroke-linejoin="round"/>
<circle cx="19.1016" cy="37.5698" r="0.632812" fill="black"/>
<circle cx="29.7734" cy="37.5698" r="0.632812" fill="black"/>
<path d="M19.1914 20.7056C19.8393 22.6197 22.1203 26.4902 24.7966 26.4902C27.4728 26.4901 29.2425 22.6197 29.9508 20.7057" stroke="black" stroke-linecap="round" stroke-linejoin="round"/>
<path d="M18.4312 14.0417C16.4122 14.0869 12.7035 14.4555 13.1366 15.8661C13.6781 17.6294 19.9156 18.2174 24.7533 18.2174C29.5911 18.2174 36.1017 17.3584 36.1017 15.6855C36.1017 14.3472 32.6655 14.0428 30.9475 14.0579" stroke="black" stroke-linecap="round" stroke-linejoin="round"/>
<path d="M18.5136 15.6869C18.3629 13.7578 18.9386 9.89054 22.4472 9.85442C25.9559 9.81829 27.1633 9.83937 27.3285 9.85442C28.4738 9.99014 30.7465 11.4009 30.6742 15.9584" stroke="black" stroke-linecap="round" stroke-linejoin="round"/>
</svg>
