<svg width="11" height="21" viewBox="0 0 11 21" fill="none" xmlns="http://www.w3.org/2000/svg">
<path d="M10.1692 20.131H5.71319V12.3696C7.49423 12.1037 10.5777 10.2716 10.5777 7.43798C10.5777 5.17209 9.82454 2.06335 9.37551 0.411624L9.32745 0.252201C9.26634 0.135901 9.1297 0 8.94501 0H1.63273C1.44941 0 1.29836 0.10846 1.23656 0.28291L1.20223 0.412277C0.753199 2.06335 0 5.17209 0 7.43798C0 10.2716 3.08352 12.1037 4.86455 12.3696V20.131H0.408526C0.175083 20.131 0 20.2983 0 20.5198C0 20.7413 0.175769 20.9085 0.408526 20.9085H10.1692C10.4027 20.9085 10.5777 20.7413 10.5777 20.5198C10.5777 20.2983 10.4027 20.131 10.1692 20.131ZM8.65664 0.778818C9.03427 2.17899 9.79227 5.2629 9.79227 7.43798C9.79227 10.039 6.69777 11.6189 5.33625 11.6189C3.96579 11.6189 0.848636 10.0397 0.848636 7.43798C0.848636 5.26094 1.60664 2.17834 1.98427 0.778818H8.65664Z" fill="#C6C6C6"/>
<path d="M9.06959 5.04779C9.03801 4.98833 8.97553 4.92822 8.91236 4.92822H1.85069C1.78821 4.92822 1.72505 4.98768 1.69346 5.04779C1.66188 5.1373 1.22246 6.98896 1.53623 8.12386C1.88159 9.43779 3.70176 10.9314 5.30223 11.1699H5.45946H5.49104C7.06061 10.9307 8.8492 9.43779 9.22614 8.12386C9.53991 6.98896 9.06959 5.1373 9.06959 5.04779Z" fill="#EE807C"/>
</svg>
