<svg width="80" height="80" viewBox="0 0 80 80" fill="none" xmlns="http://www.w3.org/2000/svg">
<path opacity="0.2" d="M27.5 20C27.5 21.4834 27.0601 22.9334 26.236 24.1668C25.4119 25.4001 24.2406 26.3614 22.8701 26.9291C21.4997 27.4968 19.9917 27.6453 18.5368 27.3559C17.082 27.0665 15.7456 26.3522 14.6967 25.3033C13.6478 24.2544 12.9335 22.918 12.6441 21.4632C12.3547 20.0083 12.5032 18.5003 13.0709 17.1299C13.6386 15.7594 14.5999 14.5881 15.8332 13.764C17.0666 12.9399 18.5166 12.5 20 12.5C21.9891 12.5 23.8968 13.2902 25.3033 14.6967C26.7098 16.1032 27.5 18.0109 27.5 20ZM60 12.5C58.5166 12.5 57.0666 12.9399 55.8332 13.764C54.5999 14.5881 53.6386 15.7594 53.0709 17.1299C52.5032 18.5003 52.3547 20.0083 52.6441 21.4632C52.9335 22.918 53.6478 24.2544 54.6967 25.3033C55.7456 26.3522 57.082 27.0665 58.5368 27.3559C59.9917 27.6453 61.4997 27.4968 62.8701 26.9291C64.2406 26.3614 65.4119 25.4001 66.236 24.1668C67.0601 22.9334 67.5 21.4834 67.5 20C67.5 18.0109 66.7098 16.1032 65.3033 14.6967C63.8968 13.2902 61.9891 12.5 60 12.5Z" fill="#10298E"/>
<path d="M70 20.0008C69.9991 18.1307 69.4737 16.2983 68.4837 14.7118C67.4936 13.1252 66.0785 11.8481 64.3991 11.0254C62.7196 10.2027 60.8431 9.86749 58.9827 10.0577C57.1223 10.248 55.3525 10.9561 53.8743 12.1017C52.3961 13.2473 51.2688 14.7844 50.6204 16.5385C49.972 18.2926 49.8284 20.1934 50.206 22.025C50.5836 23.8566 51.4673 25.5457 52.7566 26.9003C54.0459 28.2549 55.6893 29.2208 57.5 29.6883V35.0008C57.5 35.6639 57.2366 36.2997 56.7678 36.7686C56.299 37.2374 55.6631 37.5008 55 37.5008H25C24.337 37.5008 23.7011 37.2374 23.2323 36.7686C22.7634 36.2997 22.5 35.6639 22.5 35.0008V29.6883C24.8567 29.0798 26.9105 27.6328 28.2765 25.6183C29.6426 23.6039 30.227 21.1604 29.9203 18.7458C29.6136 16.3313 28.4369 14.1115 26.6106 12.5025C24.7843 10.8935 22.434 10.0059 20 10.0059C17.5661 10.0059 15.2157 10.8935 13.3894 12.5025C11.5632 14.1115 10.3864 16.3313 10.0797 18.7458C9.77304 21.1604 10.3575 23.6039 11.7235 25.6183C13.0896 27.6328 15.1434 29.0798 17.5 29.6883V35.0008C17.5 36.9899 18.2902 38.8976 19.6967 40.3041C21.1032 41.7106 23.0109 42.5008 25 42.5008H37.5V50.3133C35.1434 50.9218 33.0896 52.3689 31.7235 54.3833C30.3575 56.3978 29.773 58.8413 30.0797 61.2558C30.3864 63.6704 31.5632 65.8902 33.3894 67.4991C35.2157 69.1081 37.5661 69.9958 40 69.9958C42.434 69.9958 44.7843 69.1081 46.6106 67.4991C48.4369 65.8902 49.6136 63.6704 49.9203 61.2558C50.227 58.8413 49.6426 56.3978 48.2765 54.3833C46.9105 52.3689 44.8567 50.9218 42.5 50.3133V42.5008H55C56.9891 42.5008 58.8968 41.7106 60.3033 40.3041C61.7099 38.8976 62.5 36.9899 62.5 35.0008V29.6883C64.6458 29.131 66.5462 27.8776 67.9033 26.1246C69.2605 24.3715 69.9979 22.2178 70 20.0008ZM15 20.0008C15 19.0119 15.2933 18.0452 15.8427 17.223C16.3921 16.4007 17.173 15.7599 18.0866 15.3814C19.0002 15.003 20.0056 14.904 20.9755 15.0969C21.9454 15.2898 22.8363 15.766 23.5356 16.4653C24.2348 17.1646 24.711 18.0555 24.904 19.0254C25.0969 19.9953 24.9979 21.0006 24.6194 21.9142C24.241 22.8279 23.6001 23.6088 22.7779 24.1582C21.9556 24.7076 20.9889 25.0008 20 25.0008C18.6739 25.0008 17.4022 24.474 16.4645 23.5364C15.5268 22.5987 15 21.3269 15 20.0008ZM45 60.0008C45 60.9897 44.7068 61.9564 44.1574 62.7787C43.608 63.6009 42.8271 64.2418 41.9134 64.6202C40.9998 64.9987 39.9945 65.0977 39.0246 64.9048C38.0547 64.7118 37.1638 64.2356 36.4645 63.5364C35.7652 62.8371 35.289 61.9462 35.0961 60.9763C34.9032 60.0064 35.0022 59.001 35.3806 58.0874C35.7591 57.1738 36.3999 56.3929 37.2222 55.8435C38.0444 55.2941 39.0111 55.0008 40 55.0008C41.3261 55.0008 42.5979 55.5276 43.5356 56.4653C44.4732 57.403 45 58.6747 45 60.0008ZM60 25.0008C59.0111 25.0008 58.0444 24.7076 57.2222 24.1582C56.3999 23.6088 55.7591 22.8279 55.3806 21.9142C55.0022 21.0006 54.9032 19.9953 55.0961 19.0254C55.289 18.0555 55.7652 17.1646 56.4645 16.4653C57.1638 15.766 58.0547 15.2898 59.0246 15.0969C59.9945 14.904 60.9998 15.003 61.9134 15.3814C62.8271 15.7599 63.608 16.4007 64.1574 17.223C64.7068 18.0452 65 19.0119 65 20.0008C65 21.3269 64.4732 22.5987 63.5356 23.5364C62.5979 24.474 61.3261 25.0008 60 25.0008Z" fill="#10298E"/>
</svg>
